<svg width="32" height="33" viewBox="0 0 32 33" fill="none" xmlns="http://www.w3.org/2000/svg">
<rect y="0.154297" width="32" height="32" rx="6" fill="#FEE0AA"/>
<path d="M6.57709 25.0345C6.39423 24.8383 6.31313 24.5681 6.35769 24.3037L6.9177 20.9803C6.94918 20.7934 7.04137 20.6221 7.17999 20.4929L17.9443 10.4608L21.9141 14.7204L11.1498 24.7525C11.0112 24.8817 10.8339 24.9616 10.6453 24.9799L7.29072 25.3048C7.02375 25.3306 6.75996 25.2307 6.57709 25.0345Z" fill="#FF831C"/>
<path d="M23.6374 13.1143L25.3803 11.49C25.7285 11.1654 25.7477 10.62 25.4232 10.2718L22.6286 7.2733C22.3041 6.92506 21.7587 6.90586 21.4105 7.23041L19.6676 8.85472L23.6374 13.1143Z" fill="#FF831C"/>
</svg>
