<svg width="33" height="32" viewBox="0 0 33 32" fill="none" xmlns="http://www.w3.org/2000/svg">
<path d="M7.9834 5C6.32654 5 4.9834 6.34315 4.9834 8V11H28.9834V8C28.9834 6.34315 27.6403 5 25.9834 5H7.9834Z" fill="#FF831C"/>
<path d="M28.9834 13H4.9834V24C4.9834 25.6569 6.32654 27 7.9834 27H22.9834C26.2971 27 28.9834 24.3137 28.9834 21V13Z" fill="#FDC974"/>
<path d="M21.9834 21C21.9834 20.4477 22.4311 20 22.9834 20H28.9834V21C28.9834 24.3137 26.2971 27 22.9834 27H21.9834V21Z" fill="#FF831C"/>
<path d="M9.9834 3V8" stroke="#FF831C" stroke-width="2" stroke-linecap="round"/>
<path d="M23.9834 3V8" stroke="#FF831C" stroke-width="2" stroke-linecap="round"/>
</svg>
