<svg width="1440" height="314" viewBox="0 0 1440 314" fill="none" xmlns="http://www.w3.org/2000/svg">
<rect width="1440" height="314" fill="url(#paint0_linear_807_2009)"/>
<g opacity="0.4">
<path d="M716.292 254.994L712.29 239.812H702.471L698.443 254.994L694.204 239.812H685.017L693.678 268.874H702.497L707.367 250.75L712.237 268.874H721.057L729.797 239.812H720.609L716.318 254.994H716.292Z" fill="#FF831C"/>
<path d="M731.956 268.874L720.583 239.812H731.166L737.8 257.598L744.434 239.812H755.017L743.644 268.874H731.929H731.956Z" fill="#FF831C"/>
</g>
<path d="M953.197 108.425C953.197 108.425 941.659 108.425 932.811 108.425C925.195 108.425 911.003 108.425 911.003 108.425C911.003 108.425 901.737 108.425 894.883 108.425C888.424 108.425 877.816 108.425 877.816 108.425C877.816 108.425 869.924 108.425 864.541 108.425C854.854 108.425 847 100.571 847 90.8835C847 81.1956 854.854 73.342 864.541 73.342C866.482 73.342 868.349 73.6572 870.094 74.2391C873.505 63.8092 883.314 56.2746 894.883 56.2746C898.503 56.2746 901.951 57.0123 905.084 58.3454C910.87 49.1278 921.125 43 932.811 43C948.642 43 961.846 54.245 964.872 69.1831C967.265 68.1969 969.886 67.6529 972.635 67.6529C983.894 67.6529 993.021 76.78 993.021 88.0389C993.021 99.2978 983.894 108.425 972.635 108.425C965.498 108.425 953.197 108.425 953.197 108.425Z" fill="white"/>
<path d="M1130.59 157.314C1130.59 151.792 1135.07 147.314 1140.59 147.314H1244.98C1250.5 147.314 1254.98 151.792 1254.98 157.314V313.715H1130.59V157.314Z" fill="#DFDBD7"/>
<path d="M1022.02 105.314C1022.02 99.7916 1026.49 95.3145 1032.02 95.3145H1151.16C1156.68 95.3145 1161.16 99.7916 1161.16 105.314V313.716H1022.02V105.314Z" fill="#EBE7E0"/>
<rect opacity="0.7" x="1036.77" y="114.289" width="29.5154" height="29.5154" rx="3" fill="white"/>
<rect opacity="0.7" x="1076.83" y="114.289" width="29.5154" height="29.5154" rx="3" fill="white"/>
<rect opacity="0.7" x="1116.89" y="114.289" width="29.5154" height="29.5154" rx="3" fill="white"/>
<rect opacity="0.7" x="1036.77" y="156.454" width="29.5154" height="29.5154" rx="3" fill="white"/>
<rect opacity="0.7" x="1076.83" y="156.454" width="29.5154" height="29.5154" rx="3" fill="white"/>
<rect opacity="0.7" x="1116.89" y="156.454" width="29.5154" height="29.5154" rx="3" fill="white"/>
<rect opacity="0.7" x="1036.77" y="198.619" width="29.5154" height="29.5154" rx="3" fill="white"/>
<rect opacity="0.7" x="1076.83" y="198.619" width="29.5154" height="29.5154" rx="3" fill="white"/>
<rect opacity="0.7" x="1116.89" y="198.619" width="29.5154" height="29.5154" rx="3" fill="white"/>
<rect opacity="0.7" x="1036.77" y="240.783" width="29.5154" height="29.5154" rx="3" fill="white"/>
<rect opacity="0.7" x="1076.83" y="240.783" width="29.5154" height="29.5154" rx="3" fill="white"/>
<rect opacity="0.7" x="1116.89" y="240.783" width="29.5154" height="29.5154" rx="3" fill="white"/>
<g opacity="0.7">
<path d="M287.605 178.93C287.605 173.407 283.128 168.93 277.605 168.93H178.017C172.494 168.93 168.017 173.407 168.017 178.93V313.716H287.605V178.93Z" fill="#C8C7C4"/>
<path d="M401.995 43C401.995 37.4771 397.518 33 391.995 33H244.868C239.345 33 234.868 37.4772 234.868 43V313.716H401.995V43Z" fill="#D7D4CE"/>
<g opacity="0.5">
<rect opacity="0.7" width="20.7981" height="20.7981" rx="3" transform="matrix(-1 0 0 1 384.911 46.3711)" fill="white"/>
<rect opacity="0.7" width="20.7981" height="20.7981" rx="3" transform="matrix(-1 0 0 1 384.911 76.082)" fill="white"/>
<rect opacity="0.7" width="20.7981" height="20.7981" rx="3" transform="matrix(-1 0 0 1 384.911 105.795)" fill="white"/>
<rect opacity="0.7" width="20.7981" height="20.7981" rx="3" transform="matrix(-1 0 0 1 384.911 135.506)" fill="white"/>
<rect opacity="0.7" width="20.7981" height="20.7981" rx="3" transform="matrix(-1 0 0 1 384.911 165.217)" fill="white"/>
<rect opacity="0.7" width="20.7981" height="20.7981" rx="3" transform="matrix(-1 0 0 1 384.911 194.929)" fill="white"/>
<rect opacity="0.7" width="20.7981" height="20.7981" rx="3" transform="matrix(-1 0 0 1 356.685 46.3711)" fill="white"/>
<rect opacity="0.7" width="20.7981" height="20.7981" rx="3" transform="matrix(-1 0 0 1 356.685 76.082)" fill="white"/>
<rect opacity="0.7" width="20.7981" height="20.7981" rx="3" transform="matrix(-1 0 0 1 356.685 105.795)" fill="white"/>
<rect opacity="0.7" width="20.7981" height="20.7981" rx="3" transform="matrix(-1 0 0 1 356.685 135.506)" fill="white"/>
<rect opacity="0.7" width="20.7981" height="20.7981" rx="3" transform="matrix(-1 0 0 1 356.685 165.217)" fill="white"/>
<rect opacity="0.7" width="20.7981" height="20.7981" rx="3" transform="matrix(-1 0 0 1 356.685 194.929)" fill="white"/>
<rect opacity="0.7" width="20.7981" height="20.7981" rx="3" transform="matrix(-1 0 0 1 328.46 46.3711)" fill="white"/>
<rect opacity="0.7" width="20.7981" height="20.7981" rx="3" transform="matrix(-1 0 0 1 328.46 76.082)" fill="white"/>
<rect opacity="0.7" width="20.7981" height="20.7981" rx="3" transform="matrix(-1 0 0 1 328.46 105.795)" fill="white"/>
<rect opacity="0.7" width="20.7981" height="20.7981" rx="3" transform="matrix(-1 0 0 1 328.46 135.506)" fill="white"/>
<rect opacity="0.7" width="20.7981" height="20.7981" rx="3" transform="matrix(-1 0 0 1 328.46 165.217)" fill="white"/>
<rect opacity="0.7" width="20.7981" height="20.7981" rx="3" transform="matrix(-1 0 0 1 328.46 194.929)" fill="white"/>
<rect opacity="0.7" width="20.7981" height="20.7981" rx="3" transform="matrix(-1 0 0 1 300.233 46.3711)" fill="white"/>
<rect opacity="0.7" width="20.7981" height="20.7981" rx="3" transform="matrix(-1 0 0 1 300.233 76.082)" fill="white"/>
<rect opacity="0.7" width="20.7981" height="20.7981" rx="3" transform="matrix(-1 0 0 1 300.233 105.795)" fill="white"/>
<rect opacity="0.7" width="20.7981" height="20.7981" rx="3" transform="matrix(-1 0 0 1 300.233 135.506)" fill="white"/>
<rect opacity="0.7" width="20.7981" height="20.7981" rx="3" transform="matrix(-1 0 0 1 300.233 165.217)" fill="white"/>
<rect opacity="0.7" width="20.7981" height="20.7981" rx="3" transform="matrix(-1 0 0 1 300.233 194.929)" fill="white"/>
<rect opacity="0.7" width="20.7981" height="20.7981" rx="3" transform="matrix(-1 0 0 1 272.007 46.3711)" fill="white"/>
<rect opacity="0.7" width="20.7981" height="20.7981" rx="3" transform="matrix(-1 0 0 1 272.007 76.082)" fill="white"/>
<rect opacity="0.7" width="20.7981" height="20.7981" rx="3" transform="matrix(-1 0 0 1 272.007 105.795)" fill="white"/>
<rect opacity="0.7" width="20.7981" height="20.7981" rx="3" transform="matrix(-1 0 0 1 272.007 135.506)" fill="white"/>
<rect opacity="0.7" width="20.7981" height="20.7981" rx="3" transform="matrix(-1 0 0 1 272.007 165.217)" fill="white"/>
<rect opacity="0.7" width="20.7981" height="20.7981" rx="3" transform="matrix(-1 0 0 1 272.007 194.929)" fill="white"/>
</g>
<path d="M477.017 98.709C477.017 93.1861 472.539 88.709 467.017 88.709H321.375C315.852 88.709 311.375 93.1861 311.375 98.709V313.716H477.017V98.709Z" fill="#EBE9E5"/>
<rect opacity="0.7" width="20.7981" height="20.7981" rx="3" transform="matrix(-1 0 0 1 460.676 102.08)" fill="white"/>
<rect opacity="0.7" width="20.7981" height="20.7981" rx="3" transform="matrix(-1 0 0 1 460.676 131.791)" fill="white"/>
<rect opacity="0.7" width="20.7981" height="20.7981" rx="3" transform="matrix(-1 0 0 1 460.676 161.504)" fill="white"/>
<rect opacity="0.7" width="20.7981" height="20.7981" rx="3" transform="matrix(-1 0 0 1 460.676 191.215)" fill="white"/>
<rect opacity="0.7" width="20.7981" height="20.7981" rx="3" transform="matrix(-1 0 0 1 460.676 220.926)" fill="white"/>
<rect opacity="0.7" width="20.7981" height="20.7981" rx="3" transform="matrix(-1 0 0 1 460.676 250.638)" fill="white"/>
<rect opacity="0.7" width="20.7981" height="20.7981" rx="3" transform="matrix(-1 0 0 1 432.449 102.08)" fill="white"/>
<rect opacity="0.7" width="20.7981" height="20.7981" rx="3" transform="matrix(-1 0 0 1 432.449 131.791)" fill="white"/>
<rect opacity="0.7" width="20.7981" height="20.7981" rx="3" transform="matrix(-1 0 0 1 432.449 161.504)" fill="white"/>
<rect opacity="0.7" width="20.7981" height="20.7981" rx="3" transform="matrix(-1 0 0 1 432.449 191.215)" fill="white"/>
<rect opacity="0.7" width="20.7981" height="20.7981" rx="3" transform="matrix(-1 0 0 1 432.449 220.926)" fill="white"/>
<rect opacity="0.7" width="20.7981" height="20.7981" rx="3" transform="matrix(-1 0 0 1 432.449 250.638)" fill="white"/>
<rect opacity="0.7" width="20.7981" height="20.7981" rx="3" transform="matrix(-1 0 0 1 404.225 102.08)" fill="white"/>
<rect opacity="0.7" width="20.7981" height="20.7981" rx="3" transform="matrix(-1 0 0 1 404.225 131.791)" fill="white"/>
<rect opacity="0.7" width="20.7981" height="20.7981" rx="3" transform="matrix(-1 0 0 1 404.225 161.504)" fill="white"/>
<rect opacity="0.7" width="20.7981" height="20.7981" rx="3" transform="matrix(-1 0 0 1 404.225 191.215)" fill="white"/>
<rect opacity="0.7" width="20.7981" height="20.7981" rx="3" transform="matrix(-1 0 0 1 404.225 220.926)" fill="white"/>
<rect opacity="0.7" width="20.7981" height="20.7981" rx="3" transform="matrix(-1 0 0 1 404.225 250.638)" fill="white"/>
<rect opacity="0.7" width="20.7981" height="20.7981" rx="3" transform="matrix(-1 0 0 1 375.998 102.08)" fill="white"/>
<rect opacity="0.7" width="20.7981" height="20.7981" rx="3" transform="matrix(-1 0 0 1 375.998 131.791)" fill="white"/>
<rect opacity="0.7" width="20.7981" height="20.7981" rx="3" transform="matrix(-1 0 0 1 375.998 161.504)" fill="white"/>
<rect opacity="0.7" width="20.7981" height="20.7981" rx="3" transform="matrix(-1 0 0 1 375.998 191.215)" fill="white"/>
<rect opacity="0.7" width="20.7981" height="20.7981" rx="3" transform="matrix(-1 0 0 1 375.998 220.926)" fill="white"/>
<rect opacity="0.7" width="20.7981" height="20.7981" rx="3" transform="matrix(-1 0 0 1 375.998 250.638)" fill="white"/>
<rect opacity="0.7" width="20.7981" height="20.7981" rx="3" transform="matrix(-1 0 0 1 347.771 102.08)" fill="white"/>
<rect opacity="0.7" width="20.7981" height="20.7981" rx="3" transform="matrix(-1 0 0 1 347.771 131.791)" fill="white"/>
<rect opacity="0.7" width="20.7981" height="20.7981" rx="3" transform="matrix(-1 0 0 1 347.771 161.504)" fill="white"/>
<rect opacity="0.7" width="20.7981" height="20.7981" rx="3" transform="matrix(-1 0 0 1 347.771 191.215)" fill="white"/>
<rect opacity="0.7" width="20.7981" height="20.7981" rx="3" transform="matrix(-1 0 0 1 347.771 220.926)" fill="white"/>
<rect opacity="0.7" width="20.7981" height="20.7981" rx="3" transform="matrix(-1 0 0 1 347.771 250.638)" fill="white"/>
</g>
<path d="M165.461 122.927C165.461 122.927 176.31 122.927 184.629 122.927C191.791 122.927 205.135 122.927 205.135 122.927C205.135 122.927 213.847 122.927 220.291 122.927C226.365 122.927 236.338 122.927 236.338 122.927C236.338 122.927 243.759 122.927 248.82 122.927C257.929 122.927 265.313 115.543 265.313 106.434C265.313 97.3247 257.929 89.9404 248.82 89.9404C246.995 89.9404 245.24 90.2367 243.599 90.7839C240.392 80.9771 231.169 73.8927 220.291 73.8927C216.887 73.8927 213.646 74.5862 210.7 75.8397C205.259 67.1728 195.617 61.4111 184.629 61.4111C169.744 61.4111 157.329 71.9843 154.484 86.0299C152.234 85.1026 149.769 84.5911 147.185 84.5911C136.598 84.5911 128.017 93.173 128.017 103.759C128.017 114.345 136.598 122.927 147.185 122.927C153.895 122.927 165.461 122.927 165.461 122.927Z" fill="white"/>
<path d="M663.517 164.206C663.517 160.84 665.011 158.5 667.585 158.5C669.961 158.5 671.419 160.462 671.653 163.378H674.731V157.384H676.585V173.422H674.731V164.89H671.671C671.473 167.896 670.015 169.894 667.585 169.894C665.011 169.894 663.517 167.59 663.517 164.206ZM669.907 164.224C669.907 161.65 668.953 159.994 667.585 159.994C666.271 159.994 665.317 161.65 665.317 164.224C665.317 166.762 666.271 168.436 667.585 168.436C668.953 168.436 669.907 166.762 669.907 164.224ZM691.691 173.422H689.837V157.384H691.691V173.422ZM688.199 167.41L688.451 168.94C686.741 169.318 684.383 169.462 681.377 169.48H679.577V158.878H686.849V160.372H681.395V167.896C683.753 167.896 686.291 167.842 688.199 167.41ZM707.013 173.422H705.177V164.458H702.045V162.91H705.177V157.384H707.013V173.422ZM703.557 168.4L702.441 169.768C701.073 168.904 699.273 166.852 698.697 165.088C698.139 166.996 696.537 169.012 694.809 170.056L693.657 168.724C696.141 167.104 697.707 164.458 697.707 161.398V158.752H699.597V161.29C699.597 164.368 701.199 166.924 703.557 168.4ZM723.505 167.014H709.015V165.52H723.505V167.014ZM721.813 172.972H710.869V168.346H712.723V171.496H721.813V172.972ZM721.813 163.774H710.923V158.014H721.651V159.49H712.777V162.28H721.813V163.774ZM737.22 161.632C737.22 163.756 735.474 165.16 733.134 165.16C730.866 165.16 729.048 163.81 729.048 161.632C729.048 159.49 730.794 157.96 733.134 157.96C735.474 157.96 737.22 159.454 737.22 161.632ZM735.402 161.614C735.402 160.408 734.538 159.49 733.134 159.49C731.892 159.49 730.866 160.426 730.866 161.614C730.866 162.784 731.838 163.63 733.134 163.63C734.502 163.63 735.402 162.712 735.402 161.614ZM742.332 173.296H731.37V169.102H739.974V167.788H731.298V166.294H741.81V170.47H733.224V171.838H742.332V173.296ZM741.792 165.466H739.956V157.384H741.792V165.466ZM752.2 166.816C752.2 168.742 750.67 170.236 748.384 170.236C746.08 170.236 744.532 168.796 744.532 166.816C744.532 164.908 746.08 163.396 748.384 163.396C750.67 163.396 752.2 164.854 752.2 166.816ZM750.382 166.816C750.382 165.682 749.536 164.908 748.384 164.908C747.214 164.908 746.386 165.682 746.386 166.816C746.386 167.932 747.214 168.724 748.384 168.724C749.626 168.724 750.382 167.932 750.382 166.816ZM753.01 162.622H743.686V161.128H753.01V162.622ZM745.954 159.832V158.32H750.814V159.832H745.954ZM756.268 157.384V163.972H758.752V165.52H756.268V173.422H754.414V157.384H756.268ZM773.516 171.082H759.026V169.588H764.444V164.098H766.28V169.588H773.516V171.082ZM771.716 158.914C771.716 161.686 771.662 165.25 771.014 167.914L769.25 167.644C769.718 165.556 769.862 162.568 769.862 160.408H760.7V158.914H771.716ZM774.781 173.548L775.051 169.534H777.067L776.275 173.548H774.781ZM620.998 190.206C620.998 186.84 622.492 184.5 625.066 184.5C627.442 184.5 628.9 186.462 629.134 189.378H632.212V183.384H634.066V199.422H632.212V190.89H629.152C628.954 193.896 627.496 195.894 625.066 195.894C622.492 195.894 620.998 193.59 620.998 190.206ZM627.388 190.224C627.388 187.65 626.434 185.994 625.066 185.994C623.752 185.994 622.798 187.65 622.798 190.224C622.798 192.762 623.752 194.436 625.066 194.436C626.434 194.436 627.388 192.762 627.388 190.224ZM649.172 199.422H647.318V183.384H649.172V199.422ZM645.68 193.41L645.932 194.94C644.222 195.318 641.864 195.462 638.858 195.48H637.058V184.878H644.33V186.372H638.876V193.896C641.234 193.896 643.772 193.842 645.68 193.41ZM664.495 199.422H662.659V190.458H659.527V188.91H662.659V183.384H664.495V199.422ZM661.039 194.4L659.923 195.768C658.555 194.904 656.755 192.852 656.179 191.088C655.621 192.996 654.019 195.012 652.291 196.056L651.139 194.724C653.623 193.104 655.189 190.458 655.189 187.398V184.752H657.079V187.29C657.079 190.368 658.681 192.924 661.039 194.4ZM680.987 193.014H666.497V191.52H680.987V193.014ZM679.295 198.972H668.351V194.346H670.205V197.496H679.295V198.972ZM679.295 189.774H668.405V184.014H679.133V185.49H670.259V188.28H679.295V189.774ZM700.894 188.496H698.536V191.988H696.682V183.384H698.536V186.966H700.894V188.496ZM698.536 199.386H693.37V192.816H698.536V199.386ZM692.668 197.676L692.848 199.062C691.93 199.242 690.526 199.332 689.032 199.368H687.286V195.444H690.562V194.202H687.232V192.816H692.362V196.704H689.086V198.036C690.598 198.036 691.678 197.91 692.668 197.676ZM696.88 198.036V194.166H695.026V198.036H696.88ZM695.368 190.026L694.342 191.412C693.028 190.872 691.372 189.666 690.652 188.1C690.166 189.756 688.492 191.196 686.836 191.862L685.756 190.458C687.988 189.612 689.68 187.776 689.68 185.292V183.978H691.588V185.202C691.588 187.704 693.568 189.468 695.368 190.026ZM715.784 191.628H701.294V190.152H715.784V191.628ZM714.452 199.314H703.148V195.354H712.004V194.238H703.058V192.78H713.858V196.704H704.984V197.856H714.452V199.314ZM708.566 183.474C712.112 183.474 714.146 184.626 714.146 186.336C714.146 188.028 712.112 189.18 708.566 189.18C705.038 189.18 703.022 188.028 703.022 186.336C703.022 184.626 705.038 183.474 708.566 183.474ZM708.566 184.896C706.244 184.896 704.894 185.454 704.894 186.336C704.894 187.182 706.244 187.74 708.566 187.74C710.888 187.74 712.256 187.182 712.256 186.336C712.256 185.454 710.888 184.896 708.566 184.896ZM734.053 199.314H722.695V195.462H731.605V194.382H722.695V192.924H733.441V196.776H724.531V197.838H734.053V199.314ZM734.575 188.046L733.747 189.504C731.263 189.216 729.049 188.136 728.131 186.624C727.285 188.172 725.053 189.216 722.497 189.504L721.705 188.082C724.171 187.938 726.457 187.092 727.033 185.418H722.353V183.978H733.891V185.418H729.247C729.895 187.092 732.397 187.938 734.575 188.046ZM735.367 191.844H720.877V190.35H735.367V191.844ZM749.789 199.242H738.773V195.138H747.431V193.878H738.701V192.42H749.267V196.506H740.609V197.802H749.789V199.242ZM749.285 191.502H747.449V183.384H749.285V191.502ZM744.443 184.14C744.299 188.586 740.843 190.998 737.207 191.898L736.271 190.386C739.349 189.828 741.833 188.082 742.391 185.67H737.081V184.14H744.443ZM763.81 199.44H761.974V193.608H755.674V192.15H770.164V193.608H763.81V199.44ZM769.552 189.072L768.706 190.566C766.33 190.17 763.738 188.604 762.928 186.822C762.226 188.604 759.616 190.152 757.186 190.584L756.376 189.072C759.22 188.748 761.974 186.858 761.974 184.554V183.744H763.918V184.554C763.918 186.858 766.96 188.82 769.552 189.072ZM786.596 183.384H788.45V192.348H786.596V183.384ZM783.896 188.082C783.896 190.35 782.06 191.772 779.774 191.772C777.506 191.772 775.652 190.35 775.652 188.082C775.652 185.868 777.488 184.266 779.774 184.266C782.042 184.266 783.896 185.832 783.896 188.082ZM782.096 188.064C782.096 186.804 781.214 185.778 779.774 185.778C778.388 185.778 777.452 186.822 777.452 188.064C777.452 189.396 778.406 190.368 779.774 190.368C781.16 190.368 782.096 189.378 782.096 188.064ZM789.998 198.036L788.99 199.368C787.928 198.9 786.524 197.658 786.11 196.47C785.786 197.676 784.382 199.026 783.14 199.638L782.096 198.396C783.95 197.55 785.192 195.912 785.192 193.86V193.122H786.974V193.842C786.974 195.858 788.216 197.406 789.998 198.036ZM781.916 198.054C781.34 197.748 780.548 197.1 780.224 196.398C779.828 197.676 778.568 198.9 777.11 199.53L776.102 198.288C777.794 197.568 779.252 196.002 779.252 193.968V193.212H781.052V193.878C781.052 195.498 782.186 196.47 783.104 196.758L781.916 198.054ZM803.179 191.988H798.607V195.912H804.961V197.388H790.471V195.912H796.771V191.988H792.361V184.608H803.089V186.102H794.215V190.494H803.179V191.988ZM818.627 190.584H813.821V191.862H820.175V193.338H805.685V191.862H811.985V190.584H807.593V186.552H816.377V185.346H807.539V183.924H818.231V187.884H809.447V189.144H818.627V190.584ZM807.377 194.436H818.285V199.476H816.449V195.912H807.377V194.436Z" fill="#4E4C4B"/>
<defs>
<linearGradient id="paint0_linear_807_2009" x1="720" y1="753.846" x2="720" y2="176.266" gradientUnits="userSpaceOnUse">
<stop stop-color="#EED7BD"/>
<stop offset="1" stop-color="#FFF9F2"/>
</linearGradient>
</defs>
</svg>
