<svg width="394" height="83" viewBox="0 0 394 83" fill="none" xmlns="http://www.w3.org/2000/svg">
<path d="M129.166 19.9784L134.349 25.9408H141.785L133.356 16.4158L141.591 8.35044H134.349L129.166 13.447V2.28906H123.111V25.9408H129.166V19.9784Z" fill="#FF831C"/>
<path fill-rule="evenodd" clip-rule="evenodd" d="M84.3811 13.1253C83.824 14.3129 83.5576 15.6736 83.5576 17.1827V17.2075C83.5576 18.6919 83.824 20.0526 84.3811 21.2402C84.914 22.4277 85.6648 23.442 86.6095 24.2832C87.5541 25.0996 88.644 25.7429 89.9035 26.1882C91.163 26.6335 92.471 26.8562 93.9 26.8562C95.3291 26.8562 96.6855 26.6335 97.945 26.1882C99.2045 25.7429 100.319 25.0996 101.239 24.2585C102.159 23.4173 102.886 22.403 103.443 21.1907C104 19.9784 104.267 18.6424 104.267 17.158C104.267 15.6736 103.976 14.3129 103.443 13.1006C102.91 11.8883 102.159 10.874 101.239 10.0328C100.294 9.21636 99.2045 8.57311 97.945 8.12778C96.6855 7.68245 95.3049 7.45979 93.9 7.45979C92.4952 7.45979 91.163 7.68245 89.9035 8.12778C88.644 8.57311 87.5541 9.21636 86.6095 10.0575C85.6891 10.8987 84.9382 11.9131 84.3811 13.1253ZM95.7166 21.4133C95.1838 21.636 94.5782 21.7597 93.9243 21.7597C93.2461 21.7597 92.6405 21.6607 92.1077 21.4133C91.5748 21.1659 91.1388 20.8443 90.7513 20.4485C90.388 20.0526 90.0973 19.5578 89.9035 19.0135C89.7098 18.4692 89.6129 17.8755 89.6129 17.2075C89.6129 16.5395 89.7098 15.9457 89.9035 15.3767C90.0973 14.8324 90.388 14.3376 90.7513 13.917C91.1146 13.4964 91.5748 13.1748 92.1077 12.9274C92.6405 12.7047 93.2703 12.581 93.9243 12.581C94.5782 12.581 95.1838 12.7047 95.7166 12.9274C96.2495 13.1501 96.7097 13.4964 97.073 13.8923C97.4363 14.2881 97.7028 14.7829 97.9207 15.352C98.1387 15.921 98.2356 16.5642 98.2356 17.2075C98.2356 17.8507 98.1145 18.4692 97.9207 19.0135C97.727 19.5578 97.4363 20.0526 97.073 20.4485C96.7097 20.8443 96.2495 21.1659 95.7166 21.4133Z" fill="#FF831C"/>
<path d="M74.7169 17.5538L72.3674 8.35044H66.6028L64.2291 17.5538L61.7343 8.35044H56.333L61.4195 25.9656H66.6028L69.4609 14.9809L72.319 25.9656H77.5023L82.6372 8.35044H77.2359L74.7169 17.5538Z" fill="#FF831C"/>
<path d="M114.391 8.72155C113.723 8.98983 113.148 9.35428 112.714 9.86231L112.332 8.35044H107.149V25.9161H113.204V16.5148C113.204 16.0942 113.253 15.6736 113.398 15.3025C113.543 14.9066 113.713 14.585 113.955 14.3129C114.197 14.0407 114.464 13.8181 114.779 13.6696C115.094 13.4964 115.433 13.4222 115.772 13.4222H119.26L120.301 8.3257H116.523C115.772 8.3257 115.069 8.47414 114.391 8.72155Z" fill="#FF831C"/>
<path d="M149.657 25.9408L142.972 8.3257H149.197L153.097 19.1125L156.996 8.3257H163.221L156.536 25.9408H149.657Z" fill="#FF831C"/>
<path fill-rule="evenodd" clip-rule="evenodd" d="M184.826 8.35044H179.691L179.667 8.3257L179.134 9.56272C178.287 8.94421 177.39 8.47415 176.397 8.17726C175.404 7.88038 174.339 7.73194 173.224 7.73194C171.941 7.73194 170.754 7.9546 169.64 8.42466C168.525 8.89473 167.557 9.53798 166.733 10.3792C165.91 11.2203 165.28 12.2099 164.795 13.3727C164.335 14.5355 164.093 15.8468 164.093 17.1827C164.093 18.5187 164.335 19.7557 164.771 20.8938C165.207 22.0318 165.837 22.9967 166.66 23.8379C167.484 24.6543 168.453 25.3223 169.567 25.7924C170.705 26.2624 171.941 26.5346 173.297 26.5346C174.387 26.5593 175.428 26.4109 176.446 26.0645C177.463 25.7429 178.359 25.2234 179.183 24.5306L179.643 25.9656H184.826V8.35044ZM177.124 20.2505C176.397 21.0422 175.404 21.4381 174.193 21.4381C172.982 21.4381 172.013 21.0422 171.262 20.2505C170.512 19.4589 170.148 18.494 170.148 17.1827C170.148 15.8715 170.536 14.8077 171.262 14.0407C171.989 13.2738 172.982 12.8779 174.193 12.8779C175.404 12.8779 176.373 13.249 177.124 14.0407C177.875 14.8324 178.238 15.921 178.238 17.1827C178.238 18.4445 177.851 19.4589 177.124 20.2505Z" fill="#FF831C"/>
<path d="M194.951 2.28906V25.9408H188.895V2.28906H194.951Z" fill="#FF831C"/>
<path d="M205.051 25.9408V2.28906H198.996V25.9408H205.051Z" fill="#FF831C"/>
<path fill-rule="evenodd" clip-rule="evenodd" d="M214.352 20.3495C215.224 21.4876 216.483 22.0318 218.155 22.0318C219.317 22.0318 220.31 21.8587 221.158 21.4876C222.006 21.1165 222.781 20.5227 223.507 19.731L227.431 22.6998C226.317 24.0111 225.058 25.0254 223.629 25.7676C222.2 26.5098 220.528 26.8562 218.615 26.8562C217.04 26.8562 215.611 26.6335 214.303 26.1882C212.995 25.7429 211.881 25.0996 210.937 24.2832C209.992 23.442 209.241 22.4277 208.733 21.2402C208.2 20.0526 207.957 18.6919 207.957 17.1827C207.957 15.6736 208.224 14.3871 208.757 13.1995C209.29 12.012 210.016 10.9729 210.961 10.1317C211.881 9.29058 212.971 8.64733 214.207 8.17726C215.442 7.70719 216.774 7.48453 218.179 7.48453C219.584 7.48453 220.964 7.70719 222.2 8.15252C223.411 8.59785 224.476 9.2411 225.348 10.0575C226.22 10.8987 226.898 11.9131 227.407 13.1253C227.916 14.3376 228.158 15.6983 228.158 17.2322L214.376 20.3742L214.352 20.3495ZM218.397 12.2099C217.089 12.2099 215.999 12.5316 215.151 13.1995C214.303 13.8428 213.746 14.7582 213.528 15.921L222.006 13.9912C221.618 13.4717 221.134 13.0511 220.528 12.7047C219.923 12.3584 219.22 12.2099 218.397 12.2099Z" fill="#FF831C"/>
<path d="M248.988 28.8849C249.448 27.7963 249.666 26.6088 249.666 25.2728V8.35044H243.611V17.8755C243.417 18.7661 243.006 19.4836 242.376 20.0279C241.746 20.5722 240.995 20.8443 240.123 20.8443C239.736 20.8443 239.372 20.7701 238.985 20.6464C238.621 20.5227 238.282 20.3 237.992 20.0031C237.701 19.7063 237.459 19.2857 237.289 18.7909C237.12 18.2961 237.023 17.6775 237.023 16.9353V8.35044H230.968V18.8651C230.968 19.9042 231.161 20.869 231.573 21.735C231.985 22.6009 232.542 23.3431 233.269 23.9863C233.995 24.6048 234.843 25.0996 235.836 25.446C236.829 25.7924 237.895 25.9656 239.057 25.9656C239.857 25.9656 240.68 25.8171 241.48 25.5202C242.279 25.2234 242.981 24.778 243.587 24.2337V25.6192C243.587 26.1882 243.514 26.683 243.32 27.1284C243.151 27.5737 242.884 27.9448 242.57 28.2417C242.255 28.5386 241.867 28.7612 241.455 28.9344C241.044 29.1076 240.583 29.1818 240.099 29.1818C239.397 29.1818 238.767 29.0086 238.21 28.6128C237.628 28.2169 237.314 27.6479 237.241 26.9057H231.186C231.282 28.2664 231.646 29.4292 232.227 30.3693C232.833 31.3342 233.559 32.1012 234.455 32.6949C235.352 33.2887 236.345 33.7093 237.459 33.9567C238.573 34.2041 239.687 34.3278 240.801 34.2783C242.061 34.2041 243.248 33.9567 244.338 33.5114C245.428 33.066 246.372 32.4475 247.147 31.6806C247.922 30.9136 248.552 29.9735 248.988 28.8849Z" fill="#FF831C"/>
<path d="M278.74 18.0191H254.59V15.0791H278.74V18.0191ZM276.22 29.4791H257.5V22.9991H271.69V21.8591H257.44V19.0991H275.65V25.5791H261.46V26.7191H276.22V29.4791ZM276.04 13.9091H257.74V7.66906H271.48V6.64906H257.74V3.88906H275.5V10.0691H261.76V11.1791H276.04V13.9091ZM308.558 15.2591H301.178V16.6691H311.378V19.8791H287.228V16.6691H297.248V15.2591H290.258V4.00906H308.348V7.12906H294.188V8.20906H307.748V11.1791H294.188V12.2891H308.558V15.2591ZM308.888 25.1291C308.888 27.7691 306.128 29.8091 299.318 29.8091C292.508 29.8091 289.748 27.7991 289.748 25.1291C289.748 22.3991 292.508 20.4491 299.288 20.4491C306.128 20.4491 308.888 22.4591 308.888 25.1291ZM304.718 25.1291C304.718 24.1091 302.618 23.4491 299.288 23.4491C296.078 23.4491 293.918 24.1091 293.918 25.1291C293.918 26.1191 296.078 26.7491 299.288 26.7491C302.618 26.7491 304.718 26.1191 304.718 25.1291ZM335.385 29.6591H331.605V16.9391H329.775V28.4591H326.175V3.34906H329.775V13.7591H331.605V2.92906H335.385V29.6591ZM324.885 18.8591C324.885 21.9791 322.485 24.3491 318.975 24.3491C315.315 24.3491 313.005 21.9491 313.005 18.8591C313.005 15.7091 315.435 13.3691 318.975 13.3691C322.485 13.3691 324.885 15.7391 324.885 18.8591ZM312.465 12.5891V9.49906H325.305V12.5891H312.465ZM315.495 8.08906V4.96906H322.665V8.08906H315.495ZM321.375 18.8591C321.375 17.4491 320.355 16.3091 318.975 16.3091C317.565 16.3091 316.485 17.4191 316.485 18.8591C316.485 20.3591 317.565 21.4091 318.975 21.4091C320.355 21.4091 321.375 20.2991 321.375 18.8591Z" fill="#222222"/>
<path d="M22.681 50.1291V61.0791H4.68101V50.1291H22.681ZM15.541 75.6891H11.611V66.8991H1.59101V63.8091H25.741V66.8991H15.541V75.6891ZM18.721 57.9591V53.2491H8.67101V57.9591H18.721ZM45.248 57.0891V48.9291H49.178V75.6591H45.248V60.4191H38.258V57.0891H45.248ZM42.728 68.4591C39.338 69.2391 34.148 69.7191 30.848 69.7191H28.178V51.5391H32.108V66.2991C32.438 66.3291 32.798 66.3291 33.158 66.3291C36.158 66.3291 39.428 65.8191 42.248 65.2491L42.728 68.4591ZM53.5051 53.9091V50.8191H67.5751V53.9091H62.7751C62.9251 58.0191 65.5051 60.8691 68.4151 61.7991L66.2551 64.9191C64.4251 64.2591 61.9651 62.1891 60.7351 59.6391C59.8951 62.3091 57.2551 64.9491 54.8251 65.6991L52.3951 62.5191C56.3551 61.1091 58.5451 58.0491 58.6051 53.9091H53.5051ZM75.1051 74.9991H56.1751V66.8391H60.1651V71.8791H75.1051V74.9991ZM74.5051 68.3691H70.4851V48.9291H74.5051V68.3691ZM107.893 75.4491H89.233V68.0091H103.123V66.7191H89.293V63.5991H107.143V70.8591H93.223V72.3291H107.893V75.4491ZM107.143 62.5791H103.123V48.9291H107.143V62.5791ZM85.693 56.0691C85.693 52.3491 88.843 49.8591 92.923 49.8591C97.033 49.8591 100.243 52.3791 100.243 56.0691C100.243 59.7291 97.033 62.2791 92.923 62.2791C88.783 62.2791 85.693 59.6991 85.693 56.0691ZM89.563 56.0691C89.563 57.9591 91.003 59.1291 92.923 59.1291C94.843 59.1291 96.343 57.9591 96.343 56.0691C96.343 54.1791 94.843 52.9791 92.923 52.9791C90.973 52.9791 89.563 54.1791 89.563 56.0691ZM134.93 62.8191H131.45V75.6591H127.52V48.9291H131.45V59.5791H134.93V62.8191ZM125.6 51.5391C125.6 56.0091 125.33 60.5691 124.67 63.5391L120.98 63.1491C121.43 60.4491 121.61 57.7491 121.61 54.7791H111.29V51.5391H125.6ZM126.56 69.5691C124.1 69.8991 120.08 70.2591 116.78 70.4391C113.99 70.5291 112.07 70.5891 110.09 70.5891L109.67 67.3491C111.98 67.3491 113.24 67.3791 114.89 67.3491V60.1191H118.67V67.1991C121.61 67.0191 124.4 66.8091 126.26 66.5691L126.56 69.5691ZM160.368 62.8491C158.568 63.1491 155.988 63.3891 153.468 63.5691V66.4491H165.288V75.2991H146.868V66.4491H149.418V63.7791C147.198 63.8691 145.158 63.8691 143.508 63.8691L142.998 60.5691C145.758 60.5991 148.818 60.5691 150.918 60.4791C154.428 60.3291 158.028 60.1191 160.098 59.8491L160.368 62.8491ZM159.438 55.8291C158.838 56.8491 158.328 57.8091 157.758 58.8291C155.628 58.5291 153.048 57.1191 151.908 55.2291C150.768 57.3291 148.308 59.0991 145.578 59.5491C144.888 58.5591 144.228 57.5391 143.598 56.5491C148.008 55.7091 149.778 53.5191 149.778 51.1791V49.7991H153.918V51.2091C153.918 53.3691 156.588 55.4691 159.438 55.8291ZM165.288 48.9291V65.3091H161.358V48.9291H165.288ZM161.268 72.2691V69.4491H150.858V72.2691H161.268ZM173.725 56.9991C173.725 58.9191 175.255 60.2391 177.115 60.2391C178.975 60.2391 180.565 58.9191 180.565 56.9991C180.565 55.0491 178.975 53.7591 177.115 53.7591C175.255 53.7591 173.725 55.0491 173.725 56.9991ZM191.065 48.9291V75.6591H187.105V48.9291H191.065ZM169.885 56.9991C169.885 53.1591 173.005 50.6091 177.115 50.6091C181.255 50.6091 184.465 53.1591 184.465 56.9991C184.465 60.8691 181.255 63.3891 177.115 63.3891C173.005 63.3891 169.885 60.8691 169.885 56.9991ZM186.145 69.0291C184.135 69.2991 180.265 69.6591 177.505 69.7791C174.565 69.9291 171.295 70.0491 168.895 70.0191L168.445 66.5391C171.535 66.5391 174.295 66.5391 176.965 66.4491C180.565 66.3591 183.835 66.0891 185.875 65.9091L186.145 69.0291ZM222.143 50.0091C222.203 53.1891 221.843 57.0891 221.243 59.9691H225.083V63.1191H219.383V68.9091H215.393V63.1191H212.753V68.7891H208.763V63.1191H200.933V59.9691H217.583C217.973 58.3791 218.243 55.6191 218.183 53.1891H204.173V50.0091H222.143ZM222.893 74.9991H203.693V66.4791H207.683V71.9091H222.893V74.9991ZM240.63 56.5791H226.59V53.5791H240.63V56.5791ZM229.89 52.4991V49.4991H237.69V52.4991H229.89ZM248.52 66.7791H244.47V63.1191H241.53V60.1491H244.47V57.9291H241.74V54.9891H244.47V48.9291H248.52V66.7791ZM240.24 61.7991C240.24 64.4091 237.6 66.4491 233.79 66.4491C229.95 66.4491 227.31 64.4091 227.31 61.7991C227.31 59.3091 229.92 57.2091 233.79 57.2091C237.6 57.2091 240.24 59.3091 240.24 61.7991ZM231.3 61.7991C231.3 62.8191 232.32 63.6291 233.79 63.6291C235.26 63.6291 236.28 62.8191 236.28 61.7991C236.28 60.8391 235.26 59.9991 233.79 59.9991C232.32 59.9991 231.3 60.8391 231.3 61.7991ZM248.46 71.1891C248.46 74.0691 244.86 75.6291 239.04 75.6291C233.19 75.6291 229.53 74.0091 229.53 71.1891C229.53 68.3991 233.19 66.8091 239.04 66.8091C244.86 66.8091 248.46 68.3991 248.46 71.1891ZM239.04 69.8091C235.62 69.8091 233.7 70.4391 233.7 71.2191C233.7 72.0591 235.62 72.6591 239.04 72.6591C242.46 72.6591 244.38 72.0291 244.38 71.2191C244.38 70.4691 242.46 69.8091 239.04 69.8091ZM275.797 62.9091H251.647V59.7591H275.797V62.9091ZM273.487 75.5091H254.647V68.3691H268.837V67.2591H254.617V64.1391H272.827V71.1291H258.577V72.2691H273.487V75.5091ZM258.397 54.1491C258.397 55.1091 260.107 55.8291 263.707 55.8291C267.247 55.8291 269.047 55.1091 269.047 54.1491C269.047 53.2191 267.247 52.4391 263.707 52.4391C260.107 52.4391 258.397 53.2191 258.397 54.1491ZM254.227 54.1191C254.227 51.3891 257.407 49.4991 263.707 49.4991C270.007 49.4991 273.217 51.3891 273.217 54.1191C273.217 56.8491 270.007 58.7091 263.707 58.7091C257.407 58.7091 254.227 56.8491 254.227 54.1191ZM305.285 75.3291H287.735V64.6191H291.695V66.9891H301.355V64.6191H305.285V75.3291ZM284.645 53.4891V50.2791H298.745V53.4891H293.945C294.395 57.0291 296.885 59.2191 299.885 60.2691L297.755 63.3891C295.715 62.6691 292.865 60.3591 291.875 58.1391C291.185 60.5091 288.155 63.2091 285.575 64.0191L283.565 60.8691C287.195 59.6391 289.385 57.0591 289.745 53.4891H284.645ZM309.005 57.9291H305.285V63.4791H301.355V48.9291H305.285V54.6891H309.005V57.9291ZM301.355 72.2091V70.0791H291.695V72.2091H301.355ZM330.642 48.9291V59.0091H334.362V62.2491H330.642V75.6591H326.682V48.9291H330.642ZM309.732 60.2991C309.732 54.6891 312.402 50.6391 316.782 50.6391C321.192 50.6391 323.832 54.6891 323.832 60.2991C323.832 65.7891 321.192 69.8691 316.782 69.8691C312.402 69.8691 309.732 65.8191 309.732 60.2991ZM320.082 60.2991C320.082 56.2191 318.702 54.1491 316.782 54.1491C314.952 54.1491 313.572 56.2191 313.572 60.2991C313.572 64.3191 314.952 66.4191 316.782 66.4191C318.702 66.4191 320.082 64.3191 320.082 60.2991ZM351.259 66.5391L351.529 69.6591C348.829 70.1091 345.139 70.3191 342.109 70.4991C340.489 70.6191 337.039 70.7091 335.029 70.7091L334.579 67.3491C336.499 67.3791 338.629 67.4091 340.729 67.3491V63.4491H336.229V50.9391H340.249V54.6291H345.979V50.9691H349.939V63.4491H344.719V67.1391C346.939 67.0191 349.369 66.7791 351.259 66.5391ZM356.389 48.9291V59.7591H359.569V62.9991H356.389V75.6591H352.459V48.9291H356.389ZM345.979 60.3291V57.6891H340.249V60.3291H345.979ZM382.376 57.2991C382.376 61.4091 378.446 64.2591 372.416 64.2591C366.416 64.2591 362.486 61.4091 362.486 57.2991C362.486 53.2191 366.416 50.3991 372.416 50.3991C378.446 50.3991 382.376 53.2191 382.376 57.2991ZM384.506 72.3591H360.356V69.2091H365.486V65.0091L369.536 65.1891V69.2091H375.266V65.1891L379.316 65.0091V69.2091H384.506V72.3591ZM378.326 57.3291C378.326 55.1091 376.016 53.4591 372.416 53.4591C368.816 53.4591 366.506 55.1091 366.506 57.3291C366.506 59.6091 368.816 61.2591 372.416 61.2591C375.956 61.2591 378.326 59.6091 378.326 57.3291ZM387.393 65.9691L386.763 50.6991H391.233L390.753 65.9691H387.393ZM387.063 72.4791V68.6691H391.083V72.4791H387.063Z" fill="#222222"/>
</svg>
