<svg width="1007" height="318" viewBox="0 0 1007 318" fill="none" xmlns="http://www.w3.org/2000/svg">
<g filter="url(#filter0_bd_60_2832)">
<rect x="9" y="46.3818" width="179.736" height="224.67" rx="8" transform="rotate(-12.9836 9 46.3818)" fill="#FFFAF1" fill-opacity="0.6" shape-rendering="crispEdges"/>
<rect x="9.59955" y="46.7567" width="178.736" height="223.67" rx="7.5" transform="rotate(-12.9836 9.59955 46.7567)" stroke="url(#paint0_linear_60_2832)" shape-rendering="crispEdges"/>
<path d="M130.496 152.704L143.913 149.611L133.777 166.934L130.496 152.704Z" fill="white"/>
<path d="M85.5625 130.522L135.976 118.899L144.101 150.423L131.091 153.423L133.903 165.62L95.6864 174.431L85.5625 130.522Z" fill="#FED39D"/>
<path d="M83.2855 124.36C82.541 121.131 84.5551 117.91 87.7841 117.166L128.131 107.863C131.36 107.118 134.581 109.133 135.326 112.362L136.79 118.712L84.7497 130.711L83.2855 124.36Z" fill="#FF831C"/>
<path d="M136.79 118.712L135.326 112.362C134.581 109.133 131.36 107.118 128.131 107.863L87.7841 117.166C84.5551 117.91 82.541 121.131 83.2855 124.36L84.7497 130.711M136.79 118.712L84.7497 130.711M136.79 118.712L144.008 150.017M84.7497 130.711L93.8068 169.992C94.5513 173.221 97.7725 175.235 101.001 174.491L133.372 167.027M144.008 150.017L130.185 153.204L133.372 167.027M144.008 150.017L133.372 167.027" stroke="#FF831C" stroke-width="4" stroke-linejoin="round"/>
<rect x="87.5664" y="109.508" width="5.00675" height="14.1858" rx="2.50338" transform="rotate(-12.9836 87.5664 109.508)" fill="#FF831C"/>
<rect x="103.832" y="105.759" width="5.00675" height="14.1858" rx="2.50338" transform="rotate(-12.9836 103.832 105.759)" fill="#FF831C"/>
<rect x="120.094" y="102.009" width="5.00675" height="14.1858" rx="2.50338" transform="rotate(-12.9836 120.094 102.009)" fill="#FF831C"/>
<rect x="95.0078" y="134.34" width="6.67567" height="6.67567" transform="rotate(-12.9836 95.0078 134.34)" fill="white" stroke="#FF831C" stroke-width="4" stroke-linejoin="round"/>
<rect x="97.8203" y="146.537" width="6.67567" height="6.67567" transform="rotate(-12.9836 97.8203 146.537)" fill="white" stroke="#FF831C" stroke-width="4" stroke-linejoin="round"/>
<rect x="100.629" y="158.733" width="6.67567" height="6.67567" transform="rotate(-12.9836 100.629 158.733)" fill="white" stroke="#FF831C" stroke-width="4" stroke-linejoin="round"/>
<path d="M107.891 138.22L130.658 132.97" stroke="#FF831C" stroke-width="4"/>
<path d="M110.703 150.417L133.471 145.168" stroke="#FF831C" stroke-width="4"/>
<path d="M113.516 162.614L131.404 158.49" stroke="#FF831C" stroke-width="4"/>
<path fill-rule="evenodd" clip-rule="evenodd" d="M156.676 149.451C156.305 149.537 155.916 149.445 155.623 149.203L151.942 146.161C151.735 145.99 151.59 145.756 151.53 145.494L146.846 125.178L154.885 123.324L159.569 143.64C159.63 143.902 159.602 144.176 159.491 144.421L157.513 148.767C157.355 149.113 157.046 149.366 156.676 149.451ZM154.135 120.072L153.377 116.783C153.225 116.126 152.57 115.716 151.912 115.867L146.253 117.172C145.596 117.324 145.186 117.979 145.338 118.636L146.096 121.926L154.135 120.072Z" fill="#FF831C"/>
</g>
<g filter="url(#filter1_bd_60_2832)">
<rect x="208.41" y="38.5771" width="179.736" height="224.67" rx="8" transform="rotate(17.0112 208.41 38.5771)" fill="#FFFAF1" fill-opacity="0.6" shape-rendering="crispEdges"/>
<rect x="208.742" y="39.2016" width="178.736" height="223.67" rx="7.5" transform="rotate(17.0112 208.742 39.2016)" stroke="url(#paint1_linear_60_2832)" shape-rendering="crispEdges"/>
<path d="M277.281 201.712L276.064 203.107C273.972 205.506 270.37 205.853 267.858 203.898L262.057 199.384L259.641 207.281C259.479 207.809 258.92 208.106 258.392 207.945L232.216 199.936C231.631 199.757 231.343 199.099 231.607 198.547L238.54 184.097C238.711 183.74 238.661 183.32 238.421 183.005C236.851 180.951 231.256 172.828 232.158 162.511C235.805 142.618 251.4 135.947 264.368 137.21C279.111 138.646 288.344 149.981 289.593 159.586C290.538 166.855 288.043 173.927 286.043 176.456C285.842 176.71 285.741 177.034 285.801 177.353L288.154 189.86C288.265 190.454 287.829 191.01 287.225 191.043L282.077 191.325C281.602 191.351 281.212 191.708 281.142 192.178L280.67 195.394C280.633 195.644 280.503 195.871 280.306 196.029L278.165 197.746C277.956 197.914 277.823 198.159 277.796 198.426L277.522 201.154C277.502 201.361 277.417 201.556 277.281 201.712Z" fill="#FED39D"/>
<path d="M254.458 193.418L262.057 199.384M262.057 199.384L267.858 203.898C270.37 205.853 273.972 205.506 276.064 203.107L277.281 201.712C277.417 201.556 277.502 201.361 277.522 201.154L277.796 198.426C277.823 198.159 277.956 197.914 278.165 197.746L280.306 196.029C280.503 195.871 280.633 195.644 280.67 195.394L281.142 192.178C281.212 191.708 281.602 191.351 282.077 191.325L287.225 191.043C287.829 191.01 288.265 190.454 288.154 189.86L285.801 177.353C285.741 177.034 285.842 176.71 286.043 176.456C288.043 173.927 290.538 166.855 289.593 159.586C288.344 149.981 279.111 138.646 264.368 137.21C251.4 135.947 235.805 142.618 232.158 162.511C231.256 172.828 236.851 180.951 238.421 183.005C238.661 183.32 238.711 183.74 238.54 184.097L231.607 198.547C231.343 199.099 231.631 199.757 232.216 199.936L258.392 207.945C258.92 208.106 259.479 207.809 259.641 207.281L262.057 199.384Z" stroke="#FF831C" stroke-width="4"/>
<rect x="253.195" y="150.255" width="24.3102" height="24.3102" rx="3" transform="rotate(17.0112 253.195 150.255)" fill="#FF831C" stroke="#FF831C" stroke-width="4"/>
<path d="M259.684 144.151L257.421 151.548" stroke="#FF831C" stroke-width="4"/>
<path d="M250.309 174.795L248.046 182.192" stroke="#FF831C" stroke-width="4"/>
<path d="M267.082 146.415L264.819 153.812" stroke="#FF831C" stroke-width="4"/>
<path d="M257.707 177.059L255.444 184.455" stroke="#FF831C" stroke-width="4"/>
<path d="M274.477 148.678L272.214 156.074" stroke="#FF831C" stroke-width="4"/>
<path d="M265.102 179.321L262.839 186.718" stroke="#FF831C" stroke-width="4"/>
<path d="M239.977 167.012L247.373 169.275" stroke="#FF831C" stroke-width="4"/>
<path d="M270.621 176.387L278.018 178.65" stroke="#FF831C" stroke-width="4"/>
<path d="M242.242 159.615L249.639 161.878" stroke="#FF831C" stroke-width="4"/>
<path d="M272.887 168.99L280.283 171.253" stroke="#FF831C" stroke-width="4"/>
<path d="M244.504 152.219L251.901 154.482" stroke="#FF831C" stroke-width="4"/>
<path d="M275.148 161.594L282.545 163.857" stroke="#FF831C" stroke-width="4"/>
<path d="M270.173 162.292L266.889 173.026L264.064 172.162L267.348 161.428L270.173 162.292Z" fill="white"/>
<path d="M255.39 169.508L252.345 168.576L259.193 158.932L263.035 160.108L263.315 171.932L260.27 171.001L260.27 168.696L256.679 167.598L255.39 169.508ZM257.98 165.669L260.271 166.37L260.27 162.42L260.186 162.394L257.98 165.669Z" fill="white"/>
</g>
<g filter="url(#filter2_bd_60_2832)">
<rect x="657.172" y="6" width="179.736" height="224.67" rx="8" fill="#FFFAF1" fill-opacity="0.6" shape-rendering="crispEdges"/>
<rect x="657.672" y="6.5" width="178.736" height="223.67" rx="7.5" stroke="url(#paint2_linear_60_2832)" shape-rendering="crispEdges"/>
<path d="M743.375 98.835L731.375 103.835V119.835L726.375 126.835L717.375 143.335L715.875 152.335L721.875 153.835L733.875 129.835L738.875 126.835L747.875 150.335L753.875 154.335L757.875 150.335L745.875 122.335C745.708 118.835 745.475 110.835 745.875 106.835C746.275 102.835 744.375 99.835 743.375 98.835Z" fill="#FED39D"/>
<circle cx="731.159" cy="88.642" r="7.30703" fill="#FED39D" stroke="#FF831C" stroke-width="4"/>
<path d="M739.043 127.142L745.579 123.227L758.844 149.747L752.355 153.772L739.043 127.142Z" fill="#FED39D"/>
<path d="M731.377 103.352L737.954 99.8707C740.567 98.4876 743.792 99.2023 745.578 101.545M731.377 103.352V121.578L725.456 127.653L716.098 147.9C714.831 150.641 716.832 153.772 719.852 153.772C721.465 153.772 722.93 152.835 723.607 151.371L733.658 129.626L745.578 122.544M731.377 103.352L725.456 116.781L715.98 112.765M752.78 120.473V111.359L745.645 101.635C745.623 101.605 745.6 101.575 745.578 101.545M745.578 122.544V101.545M745.578 122.544L757.367 147.563C758.728 150.451 756.621 153.772 753.429 153.772C751.722 153.772 750.173 152.775 749.466 151.222L738.417 126.938M745.578 101.545V101.543M752.781 120.439L758.079 131.902M758.079 131.902L766.337 149.768L777.25 144.339C778.224 143.854 778.637 142.682 778.18 141.693L771.611 127.482C771.135 126.452 769.903 126.019 768.888 126.524L758.079 131.902ZM771.049 152.327C771.049 153.988 769.702 155.335 768.041 155.335C766.379 155.335 765.033 153.988 765.033 152.327C765.033 150.665 766.379 149.318 768.041 149.318C769.702 149.318 771.049 150.665 771.049 152.327Z" stroke="#FF831C" stroke-width="4" stroke-linecap="round" stroke-linejoin="round"/>
<path d="M770.375 126.335L758.875 131.835L766.375 149.335L778.875 142.835L770.375 126.335Z" fill="#FF831C"/>
</g>
<g filter="url(#filter3_bd_60_2832)">
<rect x="470.695" y="97.2529" width="179.736" height="224.67" rx="8" transform="rotate(-21.7282 470.695 97.2529)" fill="#FFFAF1" fill-opacity="0.6" shape-rendering="crispEdges"/>
<rect x="471.345" y="97.5323" width="178.736" height="223.67" rx="7.5" transform="rotate(-21.7282 471.345 97.5323)" stroke="url(#paint3_linear_60_2832)" shape-rendering="crispEdges"/>
<path d="M558.133 145.656L615.319 122.866L634.559 168.463L641.605 186.142L626.847 192.023L583.496 209.299L558.133 145.656Z" fill="#FED39D"/>
<path d="M610.668 124.721L562.785 143.803C559.706 145.03 558.205 148.52 559.432 151.598L562.725 159.86L580.904 205.477C582.131 208.556 585.621 210.056 588.699 208.83L626.476 193.775L636.583 189.747C639.661 188.52 641.162 185.03 639.935 181.952L635.908 171.846L621.756 136.335L618.463 128.073C617.237 124.995 613.747 123.494 610.668 124.721Z" stroke="#FF831C" stroke-width="4" stroke-linejoin="round"/>
<rect x="571.977" y="205.874" width="5.95745" height="16.8794" rx="2.97872" transform="rotate(-111.728 571.977 205.874)" fill="#FF831C"/>
<rect x="566.098" y="191.116" width="5.95745" height="16.8794" rx="2.97872" transform="rotate(-111.728 566.098 191.116)" fill="#FF831C"/>
<rect x="560.215" y="176.358" width="5.95745" height="16.8794" rx="2.97872" transform="rotate(-111.728 560.215 176.358)" fill="#FF831C"/>
<rect x="554.332" y="161.601" width="5.95745" height="16.8794" rx="2.97872" transform="rotate(-111.728 554.332 161.601)" fill="#FF831C"/>
<rect x="578.07" y="149.201" width="33.7589" height="10.922" transform="rotate(-21.7282 578.07 149.201)" fill="white" stroke="#FF831C" stroke-width="4" stroke-linejoin="round"/>
</g>
<g filter="url(#filter4_bd_60_2832)">
<rect x="821.531" y="27.3438" width="179.736" height="224.67" rx="8" transform="rotate(11.0434 821.531 27.3438)" fill="#FFFAF1" fill-opacity="0.6" shape-rendering="crispEdges"/>
<rect x="821.926" y="27.9303" width="178.736" height="223.67" rx="7.5" transform="rotate(11.0434 821.926 27.9303)" stroke="url(#paint4_linear_60_2832)" shape-rendering="crispEdges"/>
<path d="M860.686 126.875C861.661 121.879 866.502 118.619 871.498 119.594C876.494 120.569 879.754 125.41 878.779 130.406L878.616 131.242L860.523 127.711L860.686 126.875Z" fill="#FF831C"/>
<path d="M871.498 119.594V119.594C866.502 118.619 861.661 121.879 860.686 126.875L860.523 127.711L878.616 131.242L878.779 130.406C879.754 125.41 876.494 120.569 871.498 119.594V119.594ZM871.498 119.594L872.865 112.589M868.542 134.739L867.095 142.154M874.914 134.87L877.942 141.209M862.588 132.464L857.399 137.2" stroke="#FF831C" stroke-width="4" stroke-linejoin="round"/>
<path d="M878.643 158.289C879.321 156.768 884.006 151.067 885.267 149.929L898.083 152.43L899.625 162.544C900.265 166.74 896.552 170.302 892.387 169.489L906.978 172.337L902.496 195.299C902.337 196.112 901.55 196.642 900.737 196.483L871.48 190.773C870.069 190.498 869.401 188.869 870.212 187.682L878.427 175.663L879.194 171.737L872.156 171.132L862.119 186.779C861.373 187.942 859.993 188.532 858.637 188.267C856.264 187.804 855.137 185.065 856.496 183.066L865.026 170.519L861.929 170.314C859.315 170.141 857.446 167.713 857.948 165.142L857.996 164.897C858.429 162.675 860.582 161.225 862.804 161.659L860.278 147.283L877.292 150.604L878.643 158.289Z" fill="#FED39D"/>
<path d="M878.643 158.289C879.321 156.768 884.006 151.067 885.267 149.929L898.083 152.43L899.625 162.544C900.265 166.74 896.552 170.302 892.387 169.489L883.018 167.661C881.407 167.346 880.355 165.785 880.67 164.174V164.174C880.984 162.563 882.545 161.511 884.157 161.826L892.992 163.55L892.322 158.574M904.724 142.123L918.373 144.787C921.595 145.416 923.698 148.538 923.069 151.76C922.44 154.983 919.318 157.085 916.095 156.456L914.224 156.091M916.844 149.075L906.978 172.337M906.978 172.337L902.496 195.299C902.337 196.112 901.55 196.642 900.737 196.483L871.48 190.773C870.069 190.498 869.401 188.869 870.212 187.682L878.427 175.663M906.978 172.337L891.853 169.385M878.427 175.663L900.403 179.952M878.427 175.663L879.194 171.737M879.194 171.737L880.487 165.11L862.804 161.659M879.194 171.737L865.026 170.519M865.026 170.519L861.929 170.314C859.315 170.141 857.446 167.713 857.948 165.142L857.996 164.897C858.429 162.675 860.582 161.225 862.804 161.659V161.659M865.026 170.519L856.496 183.066C855.137 185.065 856.264 187.804 858.637 188.267V188.267C859.993 188.532 861.373 187.942 862.119 186.779L872.242 170.998M862.804 161.659L860.278 147.283L877.292 150.604L879.818 164.979" stroke="#FF831C" stroke-width="4" stroke-linejoin="round"/>
<path d="M895.388 133.485C892.13 132.849 888.973 134.975 888.337 138.233C888.01 139.911 888.414 141.561 889.328 142.855C890.19 144.074 891.504 144.976 893.085 145.284C894.666 145.593 896.223 145.251 897.479 144.446C898.813 143.591 899.808 142.214 900.136 140.536C900.772 137.278 898.646 134.121 895.388 133.485Z" fill="#FED39D" stroke="#FF831C" stroke-width="4" stroke-linejoin="round"/>
<path d="M877.945 150.785L860.512 147.383L861.673 160.468L879.657 163.978L877.945 150.785Z" fill="#FF831C"/>
</g>
<g filter="url(#filter5_bd_60_2832)">
<rect x="346.004" y="22.8506" width="179.736" height="224.67" rx="8" fill="#FFFAF1" fill-opacity="0.6" shape-rendering="crispEdges"/>
<rect x="346.504" y="23.3506" width="178.736" height="223.67" rx="7.5" stroke="url(#paint5_linear_60_2832)" shape-rendering="crispEdges"/>
<path d="M404.02 113.906L467.754 105.763" stroke="#FF831C" stroke-width="4" stroke-linecap="round"/>
<path d="M433.727 106.104C433.727 104.911 434.694 103.944 435.887 103.944C437.08 103.944 438.047 104.911 438.047 106.104V158.55H433.727V106.104Z" fill="#FF831C" stroke="#FF831C" stroke-width="4"/>
<path d="M420.87 160.603C421.124 160.095 421.644 159.773 422.212 159.773H449.561C450.13 159.773 450.649 160.095 450.903 160.603L452.728 164.257C453.226 165.254 452.501 166.427 451.386 166.427H420.387C419.272 166.427 418.547 165.254 419.045 164.257L420.87 160.603Z" fill="#FF831C" stroke="#FF831C" stroke-width="4" stroke-linejoin="round"/>
<path d="M447.781 136.043H470.493H474.371V138.259C474.371 141.93 471.395 144.906 467.724 144.906H454.429C450.757 144.906 447.781 141.93 447.781 138.259V136.043Z" fill="#FED39D"/>
<path d="M470.493 136.043H474.371V138.259C474.371 141.93 471.395 144.906 467.724 144.906H454.429C450.757 144.906 447.781 141.93 447.781 138.259V136.043H470.493ZM470.493 136.043L461.076 107.237L451.659 136.043" stroke="#FF831C" stroke-width="4" stroke-linejoin="round"/>
<path d="M397.371 141.888H420.083H423.961V144.104C423.961 147.775 420.985 150.751 417.314 150.751H404.019C400.347 150.751 397.371 147.775 397.371 144.104V141.888Z" fill="#FED39D"/>
<path d="M420.083 141.888H423.961V144.104C423.961 147.775 420.985 150.751 417.314 150.751H404.019C400.347 150.751 397.371 147.775 397.371 144.104V141.888H420.083ZM420.083 141.888L410.666 113.082L401.249 141.888" stroke="#FF831C" stroke-width="4" stroke-linejoin="round"/>
</g>
<defs>
<filter id="filter0_bd_60_2832" x="-0.9" y="-2" width="245.417" height="281.208" filterUnits="userSpaceOnUse" color-interpolation-filters="sRGB">
<feFlood flood-opacity="0" result="BackgroundImageFix"/>
<feGaussianBlur in="BackgroundImageFix" stdDeviation="4"/>
<feComposite in2="SourceAlpha" operator="in" result="effect1_backgroundBlur_60_2832"/>
<feColorMatrix in="SourceAlpha" type="matrix" values="0 0 0 0 0 0 0 0 0 0 0 0 0 0 0 0 0 0 127 0" result="hardAlpha"/>
<feOffset dy="4"/>
<feGaussianBlur stdDeviation="4.95"/>
<feComposite in2="hardAlpha" operator="out"/>
<feColorMatrix type="matrix" values="0 0 0 0 0.865527 0 0 0 0 0.511059 0 0 0 0 0.216621 0 0 0 0.1 0"/>
<feBlend mode="normal" in2="effect1_backgroundBlur_60_2832" result="effect2_dropShadow_60_2832"/>
<feBlend mode="normal" in="SourceGraphic" in2="effect2_dropShadow_60_2832" result="shape"/>
</filter>
<filter id="filter1_bd_60_2832" x="132.78" y="30.5771" width="257.402" height="289.323" filterUnits="userSpaceOnUse" color-interpolation-filters="sRGB">
<feFlood flood-opacity="0" result="BackgroundImageFix"/>
<feGaussianBlur in="BackgroundImageFix" stdDeviation="4"/>
<feComposite in2="SourceAlpha" operator="in" result="effect1_backgroundBlur_60_2832"/>
<feColorMatrix in="SourceAlpha" type="matrix" values="0 0 0 0 0 0 0 0 0 0 0 0 0 0 0 0 0 0 127 0" result="hardAlpha"/>
<feOffset dy="4"/>
<feGaussianBlur stdDeviation="4.95"/>
<feComposite in2="hardAlpha" operator="out"/>
<feColorMatrix type="matrix" values="0 0 0 0 0.865527 0 0 0 0 0.511059 0 0 0 0 0.216621 0 0 0 0.1 0"/>
<feBlend mode="normal" in2="effect1_backgroundBlur_60_2832" result="effect2_dropShadow_60_2832"/>
<feBlend mode="normal" in="SourceGraphic" in2="effect2_dropShadow_60_2832" result="shape"/>
</filter>
<filter id="filter2_bd_60_2832" x="647.272" y="-2" width="199.534" height="246.57" filterUnits="userSpaceOnUse" color-interpolation-filters="sRGB">
<feFlood flood-opacity="0" result="BackgroundImageFix"/>
<feGaussianBlur in="BackgroundImageFix" stdDeviation="4"/>
<feComposite in2="SourceAlpha" operator="in" result="effect1_backgroundBlur_60_2832"/>
<feColorMatrix in="SourceAlpha" type="matrix" values="0 0 0 0 0 0 0 0 0 0 0 0 0 0 0 0 0 0 127 0" result="hardAlpha"/>
<feOffset dy="4"/>
<feGaussianBlur stdDeviation="4.95"/>
<feComposite in2="hardAlpha" operator="out"/>
<feColorMatrix type="matrix" values="0 0 0 0 0.865527 0 0 0 0 0.511059 0 0 0 0 0.216621 0 0 0 0.1 0"/>
<feBlend mode="normal" in2="effect1_backgroundBlur_60_2832" result="effect2_dropShadow_60_2832"/>
<feBlend mode="normal" in="SourceGraphic" in2="effect2_dropShadow_60_2832" result="shape"/>
</filter>
<filter id="filter3_bd_60_2832" x="460.795" y="22.7139" width="269.941" height="297.146" filterUnits="userSpaceOnUse" color-interpolation-filters="sRGB">
<feFlood flood-opacity="0" result="BackgroundImageFix"/>
<feGaussianBlur in="BackgroundImageFix" stdDeviation="4"/>
<feComposite in2="SourceAlpha" operator="in" result="effect1_backgroundBlur_60_2832"/>
<feColorMatrix in="SourceAlpha" type="matrix" values="0 0 0 0 0 0 0 0 0 0 0 0 0 0 0 0 0 0 127 0" result="hardAlpha"/>
<feOffset dy="4"/>
<feGaussianBlur stdDeviation="4.95"/>
<feComposite in2="hardAlpha" operator="out"/>
<feColorMatrix type="matrix" values="0 0 0 0 0.865527 0 0 0 0 0.511059 0 0 0 0 0.216621 0 0 0 0.1 0"/>
<feBlend mode="normal" in2="effect1_backgroundBlur_60_2832" result="effect2_dropShadow_60_2832"/>
<feBlend mode="normal" in="SourceGraphic" in2="effect2_dropShadow_60_2832" result="shape"/>
</filter>
<filter id="filter4_bd_60_2832" x="768.596" y="19.3438" width="239.241" height="276.838" filterUnits="userSpaceOnUse" color-interpolation-filters="sRGB">
<feFlood flood-opacity="0" result="BackgroundImageFix"/>
<feGaussianBlur in="BackgroundImageFix" stdDeviation="4"/>
<feComposite in2="SourceAlpha" operator="in" result="effect1_backgroundBlur_60_2832"/>
<feColorMatrix in="SourceAlpha" type="matrix" values="0 0 0 0 0 0 0 0 0 0 0 0 0 0 0 0 0 0 127 0" result="hardAlpha"/>
<feOffset dy="4"/>
<feGaussianBlur stdDeviation="4.95"/>
<feComposite in2="hardAlpha" operator="out"/>
<feColorMatrix type="matrix" values="0 0 0 0 0.865527 0 0 0 0 0.511059 0 0 0 0 0.216621 0 0 0 0.1 0"/>
<feBlend mode="normal" in2="effect1_backgroundBlur_60_2832" result="effect2_dropShadow_60_2832"/>
<feBlend mode="normal" in="SourceGraphic" in2="effect2_dropShadow_60_2832" result="shape"/>
</filter>
<filter id="filter5_bd_60_2832" x="336.104" y="14.8506" width="199.534" height="246.57" filterUnits="userSpaceOnUse" color-interpolation-filters="sRGB">
<feFlood flood-opacity="0" result="BackgroundImageFix"/>
<feGaussianBlur in="BackgroundImageFix" stdDeviation="4"/>
<feComposite in2="SourceAlpha" operator="in" result="effect1_backgroundBlur_60_2832"/>
<feColorMatrix in="SourceAlpha" type="matrix" values="0 0 0 0 0 0 0 0 0 0 0 0 0 0 0 0 0 0 127 0" result="hardAlpha"/>
<feOffset dy="4"/>
<feGaussianBlur stdDeviation="4.95"/>
<feComposite in2="hardAlpha" operator="out"/>
<feColorMatrix type="matrix" values="0 0 0 0 0.865527 0 0 0 0 0.511059 0 0 0 0 0.216621 0 0 0 0.1 0"/>
<feBlend mode="normal" in2="effect1_backgroundBlur_60_2832" result="effect2_dropShadow_60_2832"/>
<feBlend mode="normal" in="SourceGraphic" in2="effect2_dropShadow_60_2832" result="shape"/>
</filter>
<linearGradient id="paint0_linear_60_2832" x1="9" y1="23.9149" x2="229.738" y2="321.602" gradientUnits="userSpaceOnUse">
<stop stop-color="#FF831C"/>
<stop offset="1" stop-color="#FFD38A"/>
</linearGradient>
<linearGradient id="paint1_linear_60_2832" x1="208.41" y1="16.1102" x2="429.148" y2="313.797" gradientUnits="userSpaceOnUse">
<stop stop-color="#FF831C"/>
<stop offset="1" stop-color="#FFD38A"/>
</linearGradient>
<linearGradient id="paint2_linear_60_2832" x1="657.172" y1="-16.467" x2="877.91" y2="281.22" gradientUnits="userSpaceOnUse">
<stop stop-color="#FF831C"/>
<stop offset="1" stop-color="#FFD38A"/>
</linearGradient>
<linearGradient id="paint3_linear_60_2832" x1="470.695" y1="74.786" x2="691.433" y2="372.473" gradientUnits="userSpaceOnUse">
<stop stop-color="#FF831C"/>
<stop offset="1" stop-color="#FFD38A"/>
</linearGradient>
<linearGradient id="paint4_linear_60_2832" x1="821.531" y1="4.87678" x2="1042.27" y2="302.564" gradientUnits="userSpaceOnUse">
<stop stop-color="#FF831C"/>
<stop offset="1" stop-color="#FFD38A"/>
</linearGradient>
<linearGradient id="paint5_linear_60_2832" x1="346.004" y1="0.383616" x2="566.742" y2="298.071" gradientUnits="userSpaceOnUse">
<stop stop-color="#FF831C"/>
<stop offset="1" stop-color="#FFD38A"/>
</linearGradient>
</defs>
</svg>
