<svg width="898" height="285" viewBox="0 0 898 285" fill="none" xmlns="http://www.w3.org/2000/svg">
<g filter="url(#filter0_bd_882_8759)">
<rect x="9" y="41.9478" width="160" height="200" rx="8" transform="rotate(-12.9836 9 41.9478)" fill="#FFFAF1" fill-opacity="0.6" shape-rendering="crispEdges"/>
<rect x="9.59955" y="42.3226" width="159" height="199" rx="7.5" transform="rotate(-12.9836 9.59955 42.3226)" stroke="url(#paint0_linear_882_8759)" shape-rendering="crispEdges"/>
<path d="M118.111 138.467L131.528 135.374L121.392 152.697L118.111 138.467Z" fill="white"/>
<path d="M73.1768 116.287L123.591 104.663L131.715 136.187L118.705 139.187L121.518 151.384L83.3007 160.195L73.1768 116.287Z" fill="#FED39D"/>
<path d="M70.8998 110.124C70.1553 106.895 72.1694 103.674 75.3984 102.929L115.745 93.6267C118.974 92.8822 122.195 94.8962 122.94 98.1252L124.404 104.475L72.364 116.474L70.8998 110.124Z" fill="#FF831C"/>
<path d="M124.404 104.475L122.94 98.1252C122.195 94.8962 118.974 92.8822 115.745 93.6267L75.3984 102.929C72.1694 103.674 70.1553 106.895 70.8998 110.124L72.364 116.474M124.404 104.475L72.364 116.474M124.404 104.475L131.622 135.781M72.364 116.474L81.4211 155.756C82.1656 158.985 85.3867 160.999 88.6157 160.255L120.986 152.791M131.622 135.781L117.799 138.968L120.986 152.791M131.622 135.781L120.986 152.791" stroke="#FF831C" stroke-width="4" stroke-linejoin="round"/>
<rect x="75.1826" y="95.2715" width="5.00675" height="14.1858" rx="2.50338" transform="rotate(-12.9836 75.1826 95.2715)" fill="#FF831C"/>
<rect x="91.4453" y="91.522" width="5.00675" height="14.1858" rx="2.50338" transform="rotate(-12.9836 91.4453 91.522)" fill="#FF831C"/>
<rect x="107.707" y="87.7725" width="5.00675" height="14.1858" rx="2.50338" transform="rotate(-12.9836 107.707 87.7725)" fill="#FF831C"/>
<rect x="82.6201" y="120.104" width="6.67567" height="6.67567" transform="rotate(-12.9836 82.6201 120.104)" fill="white" stroke="#FF831C" stroke-width="4" stroke-linejoin="round"/>
<rect x="85.4326" y="132.3" width="6.67567" height="6.67567" transform="rotate(-12.9836 85.4326 132.3)" fill="white" stroke="#FF831C" stroke-width="4" stroke-linejoin="round"/>
<rect x="88.2451" y="144.498" width="6.67567" height="6.67567" transform="rotate(-12.9836 88.2451 144.498)" fill="white" stroke="#FF831C" stroke-width="4" stroke-linejoin="round"/>
<path d="M95.5039 123.984L118.271 118.734" stroke="#FF831C" stroke-width="4"/>
<path d="M98.3164 136.181L121.084 130.931" stroke="#FF831C" stroke-width="4"/>
<path d="M101.129 148.377L119.018 144.253" stroke="#FF831C" stroke-width="4"/>
<path fill-rule="evenodd" clip-rule="evenodd" d="M144.288 135.215C143.918 135.3 143.529 135.208 143.236 134.966L139.554 131.925C139.348 131.754 139.203 131.519 139.142 131.258L134.458 110.942L142.497 109.088L147.182 129.404C147.242 129.666 147.214 129.94 147.103 130.184L145.125 134.531C144.968 134.877 144.658 135.129 144.288 135.215ZM141.747 105.836L140.989 102.547C140.838 101.889 140.182 101.479 139.525 101.631L133.866 102.936C133.208 103.087 132.798 103.743 132.95 104.4L133.708 107.689L141.747 105.836Z" fill="#FF831C"/>
</g>
<g filter="url(#filter1_bd_882_8759)">
<rect x="186.516" y="35" width="160" height="200" rx="8" transform="rotate(17.0112 186.516 35)" fill="#FFFAF1" fill-opacity="0.6" shape-rendering="crispEdges"/>
<rect x="186.847" y="35.6244" width="159" height="199" rx="7.5" transform="rotate(17.0112 186.847 35.6244)" stroke="url(#paint1_linear_882_8759)" shape-rendering="crispEdges"/>
<path d="M249.558 183.453L248.342 184.848C246.249 187.247 242.648 187.594 240.135 185.639L234.334 181.125L231.918 189.022C231.757 189.55 231.198 189.847 230.67 189.686L204.494 181.677C203.909 181.498 203.62 180.84 203.885 180.289L210.817 165.838C210.988 165.481 210.938 165.061 210.698 164.747C209.129 162.692 203.534 154.569 204.435 144.253C208.083 124.359 223.677 117.688 236.646 118.952C251.389 120.387 260.621 131.722 261.87 141.328C262.816 148.596 260.32 155.668 258.32 158.197C258.119 158.451 258.018 158.775 258.078 159.094L260.431 171.601C260.543 172.195 260.106 172.751 259.503 172.784L254.354 173.066C253.88 173.092 253.489 173.449 253.42 173.919L252.947 177.136C252.911 177.386 252.781 177.612 252.584 177.77L250.443 179.487C250.233 179.655 250.1 179.901 250.073 180.168L249.8 182.896C249.779 183.102 249.695 183.297 249.558 183.453Z" fill="#FED39D"/>
<path d="M226.736 175.159L234.334 181.125M234.334 181.125L240.135 185.639C242.648 187.594 246.249 187.247 248.342 184.848L249.558 183.453C249.695 183.297 249.779 183.102 249.8 182.896L250.073 180.168C250.1 179.901 250.233 179.655 250.443 179.487L252.584 177.77C252.781 177.612 252.911 177.386 252.947 177.136L253.42 173.919C253.489 173.449 253.88 173.092 254.354 173.066L259.503 172.784C260.106 172.751 260.543 172.195 260.431 171.601L258.078 159.094C258.018 158.775 258.119 158.451 258.32 158.197C260.32 155.668 262.816 148.596 261.87 141.328C260.621 131.722 251.389 120.387 236.646 118.952C223.677 117.688 208.083 124.359 204.435 144.253C203.534 154.569 209.129 162.692 210.698 164.747C210.938 165.061 210.988 165.481 210.817 165.838L203.885 180.289C203.62 180.84 203.909 181.498 204.494 181.677L230.67 189.686C231.198 189.847 231.757 189.55 231.918 189.022L234.334 181.125Z" stroke="#FF831C" stroke-width="4"/>
<rect x="225.472" y="131.996" width="24.3102" height="24.3102" rx="3" transform="rotate(17.0112 225.472 131.996)" fill="#FF831C" stroke="#FF831C" stroke-width="4"/>
<path d="M231.962 125.893L229.699 133.29" stroke="#FF831C" stroke-width="4"/>
<path d="M222.587 156.537L220.324 163.933" stroke="#FF831C" stroke-width="4"/>
<path d="M239.358 128.156L237.095 135.552" stroke="#FF831C" stroke-width="4"/>
<path d="M229.983 158.799L227.72 166.196" stroke="#FF831C" stroke-width="4"/>
<path d="M246.755 130.419L244.492 137.816" stroke="#FF831C" stroke-width="4"/>
<path d="M237.38 161.062L235.117 168.459" stroke="#FF831C" stroke-width="4"/>
<path d="M212.256 148.753L219.652 151.016" stroke="#FF831C" stroke-width="4"/>
<path d="M242.899 158.128L250.296 160.391" stroke="#FF831C" stroke-width="4"/>
<path d="M214.519 141.356L221.915 143.619" stroke="#FF831C" stroke-width="4"/>
<path d="M245.162 150.732L252.559 152.995" stroke="#FF831C" stroke-width="4"/>
<path d="M216.781 133.96L224.178 136.223" stroke="#FF831C" stroke-width="4"/>
<path d="M247.425 143.335L254.821 145.598" stroke="#FF831C" stroke-width="4"/>
<path d="M242.454 144.033L239.17 154.768L236.345 153.903L239.629 143.169L242.454 144.033Z" fill="white"/>
<path d="M227.669 151.249L224.624 150.317L231.472 140.673L235.314 141.849L235.594 153.674L232.549 152.742L232.549 150.438L228.959 149.339L227.669 151.249ZM230.26 147.41L232.55 148.111L232.549 144.161L232.465 144.136L230.26 147.41Z" fill="white"/>
</g>
<g filter="url(#filter2_bd_882_8759)">
<rect x="586" y="6" width="160" height="200" rx="8" fill="#FFFAF1" fill-opacity="0.6" shape-rendering="crispEdges"/>
<rect x="586.5" y="6.5" width="159" height="199" rx="7.5" stroke="url(#paint2_linear_882_8759)" shape-rendering="crispEdges"/>
<circle cx="650.12" cy="76.307" r="7.30703" fill="#FED39D" stroke="#FF831C" stroke-width="4"/>
<path d="M658.004 114.808L664.539 110.892L677.805 137.413L671.316 141.437L658.004 114.808Z" fill="#FED39D"/>
<path d="M650.339 91.0173L656.916 87.5358C659.529 86.1526 662.754 86.8674 664.54 89.2098M650.339 91.0173V109.243L644.418 115.318L635.059 135.566C633.792 138.306 635.794 141.437 638.814 141.437C640.427 141.437 641.892 140.5 642.569 139.037L652.62 117.292L664.54 110.209M650.339 91.0173L644.418 104.446L634.942 100.43M671.742 108.138V99.0242L664.607 89.3C664.585 89.2697 664.562 89.2396 664.54 89.2098M664.54 110.209V89.2098M664.54 110.209L676.329 135.228C677.69 138.116 675.583 141.437 672.391 141.437C670.684 141.437 669.135 140.44 668.428 138.887L657.379 114.603M664.54 89.2098V89.2081M671.743 108.104L677.041 119.567M677.041 119.567L685.299 137.433L696.211 132.004C697.186 131.519 697.598 130.347 697.142 129.358L690.573 115.147C690.097 114.118 688.865 113.684 687.85 114.189L677.041 119.567ZM690.011 139.992C690.011 141.653 688.664 143 687.003 143C685.341 143 683.994 141.653 683.994 139.992C683.994 138.33 685.341 136.984 687.003 136.984C688.664 136.984 690.011 138.33 690.011 139.992Z" stroke="#FF831C" stroke-width="4" stroke-linecap="round" stroke-linejoin="round"/>
</g>
<g filter="url(#filter3_bd_882_8759)">
<rect x="420" y="87.2329" width="160" height="200" rx="8" transform="rotate(-21.7282 420 87.2329)" fill="#FFFAF1" fill-opacity="0.6" shape-rendering="crispEdges"/>
<rect x="420.65" y="87.5123" width="159" height="199" rx="7.5" transform="rotate(-21.7282 420.65 87.5123)" stroke="url(#paint3_linear_882_8759)" shape-rendering="crispEdges"/>
<path d="M493.706 127.831L550.893 105.041L570.133 150.638L577.178 168.317L562.42 174.198L519.069 191.474L493.706 127.831Z" fill="#FED39D"/>
<path d="M546.241 106.895L498.357 125.978C495.279 127.204 493.778 130.694 495.004 133.772L498.297 142.034L516.476 187.652C517.703 190.73 521.193 192.231 524.271 191.004L562.049 175.949L572.155 171.921C575.233 170.695 576.734 167.205 575.507 164.127L571.48 154.02L557.328 118.509L554.036 110.247C552.809 107.169 549.319 105.668 546.241 106.895Z" stroke="#FF831C" stroke-width="4" stroke-linejoin="round"/>
<rect x="507.55" y="188.048" width="5.95745" height="16.8794" rx="2.97872" transform="rotate(-111.728 507.55 188.048)" fill="#FF831C"/>
<rect x="501.668" y="173.291" width="5.95745" height="16.8794" rx="2.97872" transform="rotate(-111.728 501.668 173.291)" fill="#FF831C"/>
<rect x="495.787" y="158.533" width="5.95745" height="16.8794" rx="2.97872" transform="rotate(-111.728 495.787 158.533)" fill="#FF831C"/>
<rect x="489.905" y="143.775" width="5.95745" height="16.8794" rx="2.97872" transform="rotate(-111.728 489.905 143.775)" fill="#FF831C"/>
<rect x="513.643" y="131.376" width="33.7589" height="10.922" transform="rotate(-21.7282 513.643 131.376)" fill="white" stroke="#FF831C" stroke-width="4" stroke-linejoin="round"/>
</g>
<g filter="url(#filter4_bd_882_8759)">
<rect x="732.312" y="25" width="160" height="200" rx="8" transform="rotate(11.0434 732.312 25)" fill="#FFFAF1" fill-opacity="0.6" shape-rendering="crispEdges"/>
<rect x="732.707" y="25.5865" width="159" height="199" rx="7.5" transform="rotate(11.0434 732.707 25.5865)" stroke="url(#paint4_linear_882_8759)" shape-rendering="crispEdges"/>
<path d="M764.144 110.535C765.119 105.538 769.96 102.279 774.956 103.254V103.254V103.254C779.952 104.229 783.212 109.07 782.237 114.066L782.074 114.902L763.981 111.371L764.144 110.535Z" fill="#FF831C"/>
<path d="M774.956 103.254V103.254C769.96 102.279 765.119 105.538 764.144 110.535L763.981 111.371L782.074 114.902L782.237 114.066C783.212 109.07 779.952 104.229 774.956 103.254V103.254ZM774.956 103.254L776.323 96.2483M772 118.399L770.553 125.814M778.372 118.529L781.4 124.869M766.046 116.124L760.857 120.86" stroke="#FF831C" stroke-width="4" stroke-linejoin="round"/>
<path d="M782.102 141.95C782.78 140.428 787.465 134.727 788.726 133.589L801.542 136.09L803.084 146.204C803.724 150.4 800.011 153.962 795.846 153.149L810.437 155.997L805.955 178.959C805.796 179.772 805.009 180.302 804.195 180.144L774.939 174.434C773.528 174.158 772.86 172.529 773.671 171.342L781.886 159.323L782.653 155.398L775.615 154.793L765.578 170.439C764.832 171.602 763.452 172.192 762.096 171.927C759.723 171.464 758.596 168.726 759.955 166.726L768.485 154.18L765.388 153.975C762.774 153.801 760.905 151.373 761.407 148.802L761.455 148.557C761.888 146.335 764.041 144.885 766.263 145.319L763.737 130.943L780.751 134.264L782.102 141.95Z" fill="#FED39D"/>
<path d="M782.102 141.95C782.78 140.428 787.465 134.727 788.726 133.589L801.542 136.09L803.084 146.204C803.724 150.4 800.011 153.962 795.846 153.149L786.477 151.321C784.866 151.006 783.814 149.445 784.129 147.834V147.834C784.443 146.223 786.004 145.172 787.616 145.486L796.451 147.211L795.781 142.234M808.183 125.783L821.832 128.447C825.054 129.076 827.157 132.198 826.528 135.42C825.899 138.643 822.777 140.746 819.554 140.117L817.683 139.751M820.303 132.735L810.437 155.997M810.437 155.997L805.955 178.959C805.796 179.772 805.009 180.302 804.195 180.144L774.939 174.434C773.528 174.158 772.86 172.529 773.671 171.342L781.886 159.323M810.437 155.997L795.312 153.045M781.886 159.323L803.862 163.612M781.886 159.323L782.653 155.398M782.653 155.398L783.946 148.77L766.263 145.319M782.653 155.398L768.485 154.18M768.485 154.18L765.388 153.975C762.774 153.801 760.905 151.373 761.407 148.802L761.455 148.557C761.888 146.335 764.041 144.885 766.263 145.319V145.319M768.485 154.18L759.955 166.726C758.596 168.726 759.723 171.464 762.096 171.927V171.927C763.452 172.192 764.832 171.602 765.578 170.439L775.701 154.658M766.263 145.319L763.737 130.943L780.751 134.264L783.277 148.639" stroke="#FF831C" stroke-width="4" stroke-linejoin="round"/>
<path d="M798.846 117.145C795.588 116.509 792.431 118.635 791.795 121.893C791.468 123.57 791.872 125.221 792.786 126.514C793.648 127.733 794.962 128.635 796.543 128.944C798.124 129.252 799.681 128.911 800.937 128.105C802.271 127.25 803.266 125.873 803.594 124.196C804.23 120.938 802.104 117.781 798.846 117.145Z" fill="#FED39D" stroke="#FF831C" stroke-width="4" stroke-linejoin="round"/>
<path d="M781.403 134.445L763.97 131.042L765.131 144.128L783.115 147.638L781.403 134.445Z" fill="#FF831C"/>
</g>
<g filter="url(#filter5_bd_882_8759)">
<rect x="309" y="21" width="160" height="200" rx="8" fill="#FFFAF1" fill-opacity="0.6" shape-rendering="crispEdges"/>
<rect x="309.5" y="21.5" width="159" height="199" rx="7.5" stroke="url(#paint5_linear_882_8759)" shape-rendering="crispEdges"/>
<path d="M357.147 99.7209L420.882 91.5776" stroke="#FF831C" stroke-width="4" stroke-linecap="round"/>
<path d="M386.854 91.9189C386.854 90.7259 387.822 89.7588 389.015 89.7588V89.7588C390.208 89.7588 391.175 90.7259 391.175 91.9189V144.364H386.854V91.9189Z" fill="#FF831C" stroke="#FF831C" stroke-width="4"/>
<path d="M373.998 146.417C374.252 145.909 374.772 145.587 375.34 145.587H402.689C403.257 145.587 403.777 145.909 404.031 146.417L405.856 150.071C406.354 151.068 405.629 152.241 404.514 152.241H373.515C372.4 152.241 371.675 151.068 372.173 150.071L373.998 146.417Z" fill="#FF831C" stroke="#FF831C" stroke-width="4" stroke-linejoin="round"/>
<path d="M400.91 121.857H423.622H427.5V124.073C427.5 127.744 424.524 130.72 420.853 130.72H407.558C403.886 130.72 400.91 127.744 400.91 124.073V121.857Z" fill="#FED39D"/>
<path d="M423.622 121.857H427.5V124.073C427.5 127.744 424.524 130.72 420.853 130.72H407.558C403.886 130.72 400.91 127.744 400.91 124.073V121.857H423.622ZM423.622 121.857L414.205 93.0513L404.788 121.857" stroke="#FF831C" stroke-width="4" stroke-linejoin="round"/>
<path d="M350.5 127.703H373.212H377.09V129.919C377.09 133.59 374.114 136.566 370.442 136.566H357.147C353.476 136.566 350.5 133.59 350.5 129.919V127.703Z" fill="#FED39D"/>
<path d="M373.212 127.703H377.09V129.919C377.09 133.59 374.114 136.566 370.442 136.566H357.147C353.476 136.566 350.5 133.59 350.5 129.919V127.703H373.212ZM373.212 127.703L363.795 98.897L354.378 127.703" stroke="#FF831C" stroke-width="4" stroke-linejoin="round"/>
</g>
<defs>
<filter id="filter0_bd_882_8759" x="-0.9" y="-2" width="220.644" height="252.734" filterUnits="userSpaceOnUse" color-interpolation-filters="sRGB">
<feFlood flood-opacity="0" result="BackgroundImageFix"/>
<feGaussianBlur in="BackgroundImageFix" stdDeviation="4"/>
<feComposite in2="SourceAlpha" operator="in" result="effect1_backgroundBlur_882_8759"/>
<feColorMatrix in="SourceAlpha" type="matrix" values="0 0 0 0 0 0 0 0 0 0 0 0 0 0 0 0 0 0 127 0" result="hardAlpha"/>
<feOffset dy="4"/>
<feGaussianBlur stdDeviation="4.95"/>
<feComposite in2="hardAlpha" operator="out"/>
<feColorMatrix type="matrix" values="0 0 0 0 0.865527 0 0 0 0 0.511059 0 0 0 0 0.216621 0 0 0 0.1 0"/>
<feBlend mode="normal" in2="effect1_backgroundBlur_882_8759" result="effect2_dropShadow_882_8759"/>
<feBlend mode="normal" in="SourceGraphic" in2="effect2_dropShadow_882_8759" result="shape"/>
</filter>
<filter id="filter1_bd_882_8759" x="118.104" y="27" width="231.312" height="259.959" filterUnits="userSpaceOnUse" color-interpolation-filters="sRGB">
<feFlood flood-opacity="0" result="BackgroundImageFix"/>
<feGaussianBlur in="BackgroundImageFix" stdDeviation="4"/>
<feComposite in2="SourceAlpha" operator="in" result="effect1_backgroundBlur_882_8759"/>
<feColorMatrix in="SourceAlpha" type="matrix" values="0 0 0 0 0 0 0 0 0 0 0 0 0 0 0 0 0 0 127 0" result="hardAlpha"/>
<feOffset dy="4"/>
<feGaussianBlur stdDeviation="4.95"/>
<feComposite in2="hardAlpha" operator="out"/>
<feColorMatrix type="matrix" values="0 0 0 0 0.865527 0 0 0 0 0.511059 0 0 0 0 0.216621 0 0 0 0.1 0"/>
<feBlend mode="normal" in2="effect1_backgroundBlur_882_8759" result="effect2_dropShadow_882_8759"/>
<feBlend mode="normal" in="SourceGraphic" in2="effect2_dropShadow_882_8759" result="shape"/>
</filter>
<filter id="filter2_bd_882_8759" x="576.1" y="-2" width="179.8" height="221.9" filterUnits="userSpaceOnUse" color-interpolation-filters="sRGB">
<feFlood flood-opacity="0" result="BackgroundImageFix"/>
<feGaussianBlur in="BackgroundImageFix" stdDeviation="4"/>
<feComposite in2="SourceAlpha" operator="in" result="effect1_backgroundBlur_882_8759"/>
<feColorMatrix in="SourceAlpha" type="matrix" values="0 0 0 0 0 0 0 0 0 0 0 0 0 0 0 0 0 0 127 0" result="hardAlpha"/>
<feOffset dy="4"/>
<feGaussianBlur stdDeviation="4.95"/>
<feComposite in2="hardAlpha" operator="out"/>
<feColorMatrix type="matrix" values="0 0 0 0 0.865527 0 0 0 0 0.511059 0 0 0 0 0.216621 0 0 0 0.1 0"/>
<feBlend mode="normal" in2="effect1_backgroundBlur_882_8759" result="effect2_dropShadow_882_8759"/>
<feBlend mode="normal" in="SourceGraphic" in2="effect2_dropShadow_882_8759" result="shape"/>
</filter>
<filter id="filter3_bd_882_8759" x="410.1" y="20" width="242.473" height="266.923" filterUnits="userSpaceOnUse" color-interpolation-filters="sRGB">
<feFlood flood-opacity="0" result="BackgroundImageFix"/>
<feGaussianBlur in="BackgroundImageFix" stdDeviation="4"/>
<feComposite in2="SourceAlpha" operator="in" result="effect1_backgroundBlur_882_8759"/>
<feColorMatrix in="SourceAlpha" type="matrix" values="0 0 0 0 0 0 0 0 0 0 0 0 0 0 0 0 0 0 127 0" result="hardAlpha"/>
<feOffset dy="4"/>
<feGaussianBlur stdDeviation="4.95"/>
<feComposite in2="hardAlpha" operator="out"/>
<feColorMatrix type="matrix" values="0 0 0 0 0.865527 0 0 0 0 0.511059 0 0 0 0 0.216621 0 0 0 0.1 0"/>
<feBlend mode="normal" in2="effect1_backgroundBlur_882_8759" result="effect2_dropShadow_882_8759"/>
<feBlend mode="normal" in="SourceGraphic" in2="effect2_dropShadow_882_8759" result="shape"/>
</filter>
<filter id="filter4_bd_882_8759" x="684.102" y="17" width="215.148" height="248.845" filterUnits="userSpaceOnUse" color-interpolation-filters="sRGB">
<feFlood flood-opacity="0" result="BackgroundImageFix"/>
<feGaussianBlur in="BackgroundImageFix" stdDeviation="4"/>
<feComposite in2="SourceAlpha" operator="in" result="effect1_backgroundBlur_882_8759"/>
<feColorMatrix in="SourceAlpha" type="matrix" values="0 0 0 0 0 0 0 0 0 0 0 0 0 0 0 0 0 0 127 0" result="hardAlpha"/>
<feOffset dy="4"/>
<feGaussianBlur stdDeviation="4.95"/>
<feComposite in2="hardAlpha" operator="out"/>
<feColorMatrix type="matrix" values="0 0 0 0 0.865527 0 0 0 0 0.511059 0 0 0 0 0.216621 0 0 0 0.1 0"/>
<feBlend mode="normal" in2="effect1_backgroundBlur_882_8759" result="effect2_dropShadow_882_8759"/>
<feBlend mode="normal" in="SourceGraphic" in2="effect2_dropShadow_882_8759" result="shape"/>
</filter>
<filter id="filter5_bd_882_8759" x="299.1" y="13" width="179.8" height="221.9" filterUnits="userSpaceOnUse" color-interpolation-filters="sRGB">
<feFlood flood-opacity="0" result="BackgroundImageFix"/>
<feGaussianBlur in="BackgroundImageFix" stdDeviation="4"/>
<feComposite in2="SourceAlpha" operator="in" result="effect1_backgroundBlur_882_8759"/>
<feColorMatrix in="SourceAlpha" type="matrix" values="0 0 0 0 0 0 0 0 0 0 0 0 0 0 0 0 0 0 127 0" result="hardAlpha"/>
<feOffset dy="4"/>
<feGaussianBlur stdDeviation="4.95"/>
<feComposite in2="hardAlpha" operator="out"/>
<feColorMatrix type="matrix" values="0 0 0 0 0.865527 0 0 0 0 0.511059 0 0 0 0 0.216621 0 0 0 0.1 0"/>
<feBlend mode="normal" in2="effect1_backgroundBlur_882_8759" result="effect2_dropShadow_882_8759"/>
<feBlend mode="normal" in="SourceGraphic" in2="effect2_dropShadow_882_8759" result="shape"/>
</filter>
<linearGradient id="paint0_linear_882_8759" x1="9" y1="21.9478" x2="205.5" y2="286.948" gradientUnits="userSpaceOnUse">
<stop stop-color="#FF831C"/>
<stop offset="1" stop-color="#FFD38A"/>
</linearGradient>
<linearGradient id="paint1_linear_882_8759" x1="186.516" y1="15" x2="383.016" y2="280" gradientUnits="userSpaceOnUse">
<stop stop-color="#FF831C"/>
<stop offset="1" stop-color="#FFD38A"/>
</linearGradient>
<linearGradient id="paint2_linear_882_8759" x1="586" y1="-14" x2="782.5" y2="251" gradientUnits="userSpaceOnUse">
<stop stop-color="#FF831C"/>
<stop offset="1" stop-color="#FFD38A"/>
</linearGradient>
<linearGradient id="paint3_linear_882_8759" x1="420" y1="67.2329" x2="616.5" y2="332.233" gradientUnits="userSpaceOnUse">
<stop stop-color="#FF831C"/>
<stop offset="1" stop-color="#FFD38A"/>
</linearGradient>
<linearGradient id="paint4_linear_882_8759" x1="732.313" y1="5" x2="928.813" y2="270" gradientUnits="userSpaceOnUse">
<stop stop-color="#FF831C"/>
<stop offset="1" stop-color="#FFD38A"/>
</linearGradient>
<linearGradient id="paint5_linear_882_8759" x1="309" y1="0.999997" x2="505.5" y2="266" gradientUnits="userSpaceOnUse">
<stop stop-color="#FF831C"/>
<stop offset="1" stop-color="#FFD38A"/>
</linearGradient>
</defs>
</svg>
