<svg width="816" height="309" viewBox="0 0 816 309" fill="none" xmlns="http://www.w3.org/2000/svg">
<rect x="1" y="1" width="814" height="306.664" rx="11" fill="url(#paint0_linear_720_16793)" stroke="#FF831C" stroke-width="2"/>
<mask id="mask0_720_16793" style="mask-type:alpha" maskUnits="userSpaceOnUse" x="2" y="2" width="812" height="305">
<rect x="2" y="2" width="812" height="304.664" rx="10" fill="#D9D9D9"/>
</mask>
<g mask="url(#mask0_720_16793)">
<path d="M161.979 487.757L150.111 482.591C148.591 481.931 146.828 482.079 145.455 483.008L129.967 493.422C127.922 494.794 125.177 494.431 123.562 492.561L120.629 489.157C118.785 487.017 115.502 486.896 113.497 488.888C110.967 491.417 106.648 490.435 105.464 487.058L101.104 474.625C100.835 473.845 100.754 473.011 100.902 472.19L105.289 446.558C105.41 445.885 105.652 445.253 106.042 444.674L117.736 427.143C118.355 426.214 118.637 425.111 118.53 424.008L116.525 401.686C116.484 401.309 116.417 400.946 116.296 400.582L110.766 383.979C110.429 382.956 110.429 381.853 110.792 380.844L115.206 368.169C115.771 366.528 117.171 365.33 118.866 364.994L127.236 363.366C129.523 362.922 131.165 360.917 131.165 358.589V353.53C131.165 351.862 130.304 350.314 128.891 349.413L118.22 342.672C117.561 342.255 117.009 341.676 116.619 341.003L111.979 325.059C111.589 324.387 111.038 323.808 110.378 323.391L84.7982 307.218C83.2104 306.222 81.1919 306.209 79.6041 307.218L64.5467 316.69C63.5106 317.336 62.2727 317.578 61.0616 317.35L57.1593 316.623C55.0064 316.219 49.8902 320.162 48.9213 322.126L45.9879 328.114C45.3151 329.486 44.0233 330.468 42.5297 330.751L33.6621 332.433C32.1954 332.715 30.944 333.644 30.2577 334.962L27.5127 340.237C25.5212 344.058 19.9235 343.6 18.5779 339.51L14.8236 328.087C14.3661 326.701 13.3165 325.597 11.9574 325.059L-18.9108 313.138C-21.2253 312.25 -23.8358 313.232 -24.9795 315.425L-26.3924 318.13C-27.0249 319.327 -28.1148 320.215 -29.4201 320.565L-48.0164 325.665C-51.1113 326.512 -54.1658 324.185 -54.1658 320.969V313.569C-54.1658 310.999 -56.1573 308.873 -58.7274 308.711L-61.8627 308.51C-64.2041 308.362 -66.3167 309.909 -66.8818 312.183L-69.5596 322.893C-69.8018 323.875 -70.3535 324.75 -71.1071 325.409L-86.0702 338.245C-88.3712 340.21 -91.8833 339.631 -93.4307 337.021L-100.428 325.167C-102.07 322.382 -105.918 321.951 -108.138 324.279L-124.676 341.622C-125.779 342.78 -126.25 344.421 -125.914 345.995L-121.123 368.519C-120.599 370.968 -118.298 372.623 -115.808 372.34L-90.2685 369.407C-88.9902 369.259 -87.7119 369.622 -86.7027 370.416L-69.6942 383.79C-67.595 385.445 -64.5405 385.096 -62.8719 382.997L-58.8755 377.951C-55.7806 374.049 -49.51 376.767 -50.2501 381.705L-52.3493 395.631C-52.5511 397.017 -52.1609 398.416 -51.2593 399.492L-41.1941 411.454C-39.9293 412.961 -39.6871 415.087 -40.6021 416.836C-44.0737 423.456 -52.2954 439.292 -52.2954 440.746C-52.2954 442.199 -40.7097 451.698 -35.26 456.125C-33.6049 457.47 -33.0263 459.717 -33.8067 461.695L-50.4654 503.5" fill="#C0C1C1"/>
<path d="M240.472 504.5L251.723 501.084C255.036 500.075 256.323 496.053 254.204 493.309L250.101 487.983C249.055 486.625 247.392 485.898 245.689 486.073L224.42 488.225C222.503 488.413 220.639 487.472 219.66 485.804L213.813 475.851C212.834 474.196 212.915 472.112 214.001 470.524L224.608 455.016C225.118 454.263 225.413 453.389 225.466 452.488L227.451 416.118C227.532 414.598 226.915 413.118 225.761 412.11L216.294 403.824C214.202 401.995 214.028 398.807 215.892 396.749L221.135 390.979C222.65 389.311 225.104 388.881 227.102 389.93C230.147 391.544 234.17 393.575 234.17 393.064C234.17 392.459 236.396 381.551 237.576 375.848C238.005 373.79 239.668 372.243 241.733 371.947L252.649 370.427C254.687 370.145 256.296 368.517 256.551 366.459L257.932 355.336C258.16 353.507 259.461 352 261.218 351.503L297.533 341.24C298.592 340.944 299.732 341.038 300.724 341.509L319.364 350.4C320.799 351.086 322.489 350.965 323.816 350.104L333.525 343.742C335 342.773 335.792 341.038 335.55 339.29L333.539 324.588C333.324 323.028 333.928 321.454 335.148 320.446L360.238 299.557C360.493 299.342 360.775 299.154 361.083 299.006L366.487 296.249C370.001 294.46 369.746 289.335 366.058 287.909L342.135 278.629C341.478 278.373 340.78 278.279 340.07 278.333L332.627 279.005C330.535 279.194 328.577 277.929 327.907 275.925L325.157 267.841C324.46 265.77 322.395 264.492 320.236 264.788L311.895 265.918C308.086 266.443 305.391 262.287 307.402 258.991L307.724 258.467C309.642 255.333 307.268 251.324 303.607 251.513L270.592 253.194C269.626 253.248 268.687 253.598 267.936 254.216L262.881 258.372C260.225 260.551 256.216 259.126 255.532 255.75C254.902 252.683 254.271 249.724 254.11 249.226C253.923 248.648 251.388 246.846 249.041 245.272C246.856 243.806 243.879 244.492 242.564 246.792L232.534 264.196C231.836 265.407 230.629 266.227 229.248 266.429L207.537 269.617C205.458 269.926 203.447 268.77 202.656 266.819L202.374 266.133C201.1 262.999 196.219 253.471 193.979 256L178.479 263.5C177.34 264.778 179.142 264.93 177.479 264.5L171.979 264.196C168.774 263.376 178.598 272.657 179.175 275.925C179.429 277.405 172.039 275.437 170.979 276.5C170.979 276.5 164.593 286.397 163.479 287.5C162.366 288.603 161.479 290 161.479 290L149.979 284C148.571 283.664 142.093 283.058 140.979 284L127.519 301C126.473 301.901 125.883 303.233 125.923 304.618L126.03 308.196C126.084 310.173 124.877 311.962 123.026 312.635L110.528 317.154C109.79 317.423 109.12 317.88 108.61 318.485L106.559 320.88C105.298 322.359 105.11 324.471 106.076 326.152L112.66 337.504C113.036 338.136 117.635 342.612 118.252 343.002L129.088 349.862C130.415 350.696 131.206 352.162 131.206 353.722V359.169C131.206 361.362 129.664 363.245 127.519 363.662L118.775 365.37C117.179 365.679 115.879 366.822 115.342 368.356L110.863 381.282C110.528 382.236 110.528 383.272 110.85 384.227L116.415 400.959C116.522 401.296 116.603 401.645 116.63 401.995L118.628 424.444C118.722 425.479 118.453 426.515 117.877 427.389L106.143 445.05C105.794 445.588 105.553 446.179 105.446 446.812L101.047 472.569C100.913 473.336 100.98 474.116 101.235 474.855L105.754 487.795C106.867 490.969 110.904 491.897 113.277 489.516L113.827 488.965C115.704 487.082 118.775 487.203 120.505 489.207L123.804 493.04C125.306 494.789 127.881 495.139 129.798 493.847L145.582 483.208C146.87 482.334 148.519 482.186 149.954 482.805L161.929 488.037" fill="#CBCBCC"/>
<path d="M505.051 482.147L523.346 425.548C524.555 421.796 523.09 417.706 519.784 415.587C516.087 413.224 514.756 408.46 516.665 404.518L532.11 372.648C533.091 370.61 533.253 368.275 532.54 366.129L514.891 312.959C514.568 311.987 514.434 310.961 514.501 309.935L515.778 289.904C515.952 287.177 514.729 284.559 512.525 282.966L503.949 276.702V276.5L502.672 276.702L493.289 284.437C492.698 284.923 492.187 285.49 491.757 286.124L488.88 290.39C486.528 293.872 481.89 294.925 478.274 292.779L472.36 289.269C469.093 287.326 464.899 287.987 462.385 290.849L461.807 291.497C459.684 293.913 456.31 294.804 453.272 293.737L435.985 287.717C433.431 286.826 430.608 287.299 428.484 288.986L418.813 281.293C416.192 283.372 412.563 283.574 409.727 281.806L407.549 280.443C403.852 278.134 399.013 279.255 396.674 282.926C394.644 286.125 390.652 287.448 387.13 286.071L374.172 281.037C372.075 280.213 369.723 280.335 367.72 281.361L356.67 287.003C356.146 287.273 355.662 287.597 355.205 287.975L331.775 307.507C329.665 309.262 328.617 311.988 328.979 314.715L330.445 325.5C330.861 328.551 334.833 342.669 332.265 344.356L325.88 348.54C323.568 350.066 320.638 350.255 318.138 349.067L302.289 341.494C300.555 340.671 298.579 340.496 296.738 341.022L263.697 350.376C260.632 351.24 258.374 353.872 257.984 357.044L257.191 363.416C256.747 366.993 253.965 369.814 250.416 370.313L244.381 371.15C240.899 371.636 238.09 374.268 237.377 377.724C236.154 383.663 234.447 392.127 234.447 392.666C234.447 393.058 232.054 391.951 229.567 390.669C226.234 388.968 222.174 389.71 219.647 392.491L218.437 393.827C215.292 397.283 215.601 402.669 219.109 405.746L224.782 410.714C226.718 412.401 227.753 414.898 227.618 417.463L225.763 451.371C225.683 452.896 225.185 454.367 224.325 455.636L215.44 468.648C213.611 471.321 213.49 474.817 215.13 477.611L218.814 483.888C220.467 486.696 223.586 488.289 226.812 487.951L244.139 486.196C247.002 485.913 249.798 487.114 251.559 489.409C255.107 494.039 252.957 500.801 247.392 502.489L240.765 504.5" fill="#D8D9D9"/>
<path d="M212.807 179.697L217.57 172.033C218.568 170.433 217.651 168.336 215.802 167.959L187.187 162.258C186.742 162.164 186.323 161.976 185.986 161.68L174.127 151.825C173.574 151.367 172.872 151.152 172.171 151.206L163.455 151.932C161.715 152.08 160.285 150.561 160.554 148.84L165.425 116.759C165.506 116.208 165.425 115.643 165.169 115.145L159.219 103.287C158.72 102.278 158.881 101.068 159.65 100.248L171.537 87.4613C171.955 87.0176 172.211 86.4394 172.252 85.8209L173.129 73.9755C173.223 72.752 172.481 71.636 171.321 71.2192L143.164 61.3771C142.314 61.0813 141.68 60.3956 141.45 59.5351L136.661 41.8947C136.431 41.0476 135.811 40.3754 134.988 40.0661L118.191 33.8543C117.422 33.572 116.828 32.9535 116.558 32.1736L114.332 25.5047C113.941 24.3215 112.781 23.5686 111.54 23.6627L95.606 24.9535C94.2433 25.061 93.0156 24.1467 92.7323 22.8156L89.6697 8.42902C89.4808 7.52818 88.8467 6.78868 87.9833 6.46599L78.6066 2.90295C78.067 2.70127 77.6082 2.33824 77.2979 1.85421C76.7448 0.993699 75.7599 -0.512192 74.6401 -2.2601C73.8306 -3.51052 72.1576 -3.87355 70.9029 -3.08027L51.3806 9.31641C50.9624 9.58532 50.6116 9.96179 50.3957 10.4189L25.8276 60.9872C25.5173 61.6326 24.9641 62.1166 24.2895 62.3586L-1.43888 71.4074C-2.28885 71.7032 -2.93646 72.4158 -3.16581 73.2898L-9.25051 97.021C-9.37193 97.4915 -9.35844 97.989 -9.22353 98.4596L-5.7427 110.09C-5.62127 110.48 -5.5943 110.883 -5.66175 111.287L-7.61803 123.697C-7.72596 124.342 -7.57755 125.014 -7.22677 125.566L-1.39841 134.668C-0.0627441 136.766 -2.01903 139.401 -4.42053 138.715L-13.9186 136.026C-15.1598 135.677 -15.9828 134.507 -15.8884 133.216L-14.917 120.456C-14.7955 118.789 -16.1987 117.404 -17.8716 117.566L-32.5639 118.95C-33.9806 119.085 -35.0599 120.295 -35.0194 121.72L-34.3044 147.011C-34.2774 148.006 -33.6972 148.907 -32.8068 149.351L-18.6137 156.423C-18.0335 156.719 -17.5748 157.203 -17.3185 157.808L1.34037 202.944C1.40783 203.092 1.44831 203.253 1.48878 203.415L6.06243 224.927C6.35925 226.312 5.53625 227.684 4.1736 228.087L-16.482 234.097C-18.2089 234.595 -18.9779 236.598 -18.0335 238.117L-2.8555 262.561C-2.6936 262.83 -2.47774 263.059 -2.23489 263.26L21.2539 281.855C21.9825 282.433 22.3602 283.321 22.2658 284.235L20.7278 299.549C20.6333 300.518 21.0651 301.459 21.8476 302.023L38.5097 313.842C39.2517 314.366 40.2096 314.487 41.0731 314.151L48.3045 311.341C50.6116 310.44 52.8107 312.834 51.7179 315.052C50.9219 316.652 51.8933 318.575 53.6472 318.897L58.5312 319.812C59.2057 319.933 59.8938 319.812 60.4739 319.449L77.4463 308.813C78.3368 308.262 79.4566 308.262 80.3335 308.813L106.156 325.082C107.29 325.795 108.787 325.58 109.664 324.558L112.646 321.102C112.956 320.753 113.347 320.484 113.779 320.323L128.094 315.173C129.2 314.77 129.915 313.721 129.888 312.551L129.713 306.729C129.686 305.909 130.036 305.129 130.657 304.591L147.387 290.366C148.048 289.802 148.925 289.6 149.775 289.788L162.16 292.706C163.064 292.921 164.022 292.652 164.683 292.007L178.606 278.373C179.24 277.754 179.537 276.854 179.375 275.98L178.701 272.161C178.363 270.225 180.131 268.585 182.047 269.069L187.133 270.373C188.118 270.628 189.157 270.306 189.831 269.553L199.302 258.944C199.613 258.595 199.828 258.178 199.923 257.721L210.77 207.462C210.797 207.327 210.811 207.193 210.824 207.058L212.43 180.988C212.457 180.544 212.591 180.114 212.834 179.724L212.807 179.697Z" fill="#DEDFDF"/>
<path d="M492.821 230.35L482.121 201.317C482.013 201.035 481.892 200.779 481.744 200.524L462.308 168.141C462.201 167.966 462.093 167.804 461.958 167.643L444.501 145.565C443.801 144.691 443.451 143.588 443.478 142.471L443.909 129.408C443.949 128.304 443.586 127.215 442.913 126.34L361.172 21.9126C360.943 21.6166 360.741 21.2803 360.58 20.9439L314.871 -80.7121C313.444 -83.8737 309.204 -84.4791 306.956 -81.8422L303.322 -77.5639C302.757 -76.8912 302.38 -76.0706 302.246 -75.2095L296.216 -35.0099C295.987 -33.4493 294.977 -32.1039 293.551 -31.4312L252.364 -12.1252C251.624 -11.7754 250.803 -11.6274 249.982 -11.6947L224.045 -13.7262C223.453 -13.7666 222.847 -13.7127 222.282 -13.5378L211.554 -10.2417C209.885 -9.73045 208.055 -10.1744 206.816 -11.4122L206.103 -12.1252C205.376 -12.8517 204.421 -13.336 203.384 -13.4706L161.484 -19.0942C160.407 -19.2422 159.304 -19 158.375 -18.435L148.011 -12.0579C146.477 -11.1162 144.538 -11.1296 143.004 -12.0848L136.126 -16.4169C135.413 -16.8744 134.578 -17.1165 133.73 -17.1434L96.2719 -18.1659C95.3297 -18.1928 94.4009 -17.9372 93.5934 -17.426L77.1591 -6.959C74.9517 -5.54636 74.3191 -2.60001 75.7324 -0.407059C76.1765 0.292534 76.5803 0.897949 76.9034 1.39574C77.4552 2.24332 78.2493 2.8891 79.1915 3.25235L86.9039 6.18525C88.4114 6.75031 89.5151 8.05531 89.8516 9.61594L92.3147 21.1996C92.8127 23.527 94.9528 25.128 97.3217 24.9262L109.853 23.9037C112.02 23.7289 114.039 25.0608 114.725 27.1192L116.138 31.3571C116.596 32.7159 117.632 33.7922 118.978 34.29L133.851 39.806C135.278 40.3441 136.368 41.5281 136.772 43.008L140.998 58.6277C141.402 60.1345 142.533 61.3453 144 61.8566L169.627 70.8436C171.646 71.5567 172.938 73.5209 172.777 75.6601L172.063 85.266C171.983 86.3288 171.538 87.3379 170.812 88.1316L160.394 99.3789C159.061 100.818 158.752 102.944 159.64 104.707L164.661 114.756C165.091 115.631 165.253 116.613 165.105 117.582L160.717 146.507C160.259 149.521 162.736 152.185 165.791 151.929L171.108 151.485C172.346 151.377 173.571 151.768 174.527 152.561L185.335 161.562C185.94 162.06 186.667 162.409 187.434 162.571L212.617 167.603C215.848 168.248 217.45 171.921 215.713 174.733L212.766 179.496C212.348 180.155 212.119 180.922 212.066 181.689L210.504 207.116C210.491 207.358 210.464 207.587 210.41 207.816L199.777 257.231C199.575 258.159 199.656 259.128 200.019 260.002L202.482 266.043C203.303 268.061 205.39 269.259 207.543 268.936L229.146 265.774C230.573 265.559 231.824 264.711 232.551 263.46L242.498 246.266C243.871 243.898 246.953 243.185 249.228 244.706C251.503 246.226 253.979 248.002 254.168 248.567C254.329 249.051 254.935 251.876 255.54 254.85C256.254 258.321 260.413 259.801 263.172 257.554L268.018 253.598C268.798 252.966 269.767 252.589 270.777 252.536L303.578 250.867C307.374 250.679 309.837 254.823 307.845 258.065C305.759 261.469 308.558 265.761 312.515 265.222L320.443 264.146C322.677 263.837 324.817 265.169 325.558 267.308L328.236 275.151C328.936 277.21 330.969 278.528 333.136 278.326L340.444 277.667C341.171 277.6 341.898 277.707 342.584 277.963L394.835 298.184C396.935 298.991 399.317 298.211 400.528 296.314L403.637 291.417C405.024 289.224 407.918 288.578 410.125 289.937L416.922 294.161C418.618 295.211 420.785 295.09 422.346 293.865L429.817 287.973C431.082 286.977 432.778 286.694 434.299 287.219L455.296 294.511C457.113 295.143 459.118 294.619 460.384 293.179L464.139 288.941C465.646 287.246 468.136 286.856 470.088 288L480.883 294.39C483.036 295.668 485.809 295.036 487.209 292.977L492.041 285.847C492.296 285.47 492.606 285.134 492.956 284.851L502.701 276.846L503.979 276.645V239.795C503.979 237.898 502.835 236.176 501.086 235.436L495.406 233.041C494.194 232.53 493.252 231.548 492.808 230.324L492.821 230.35Z" fill="#FEE0AA" stroke="#FF831C" stroke-width="2" stroke-miterlimit="10"/>
<path d="M20.0916 159.937L23.1555 161.001C26.2596 162.078 29.6056 160.163 30.1834 156.96L32.0378 146.843C32.535 144.145 35.021 142.27 37.7892 142.523L42.7881 142.975C44.4678 143.121 45.9594 144.052 46.8463 145.461L50.1386 150.765C51.0658 152.24 52.6514 153.184 54.4118 153.277L68.8977 154.022C71.7331 154.168 73.9638 156.481 73.9638 159.299C73.9638 161.985 75.9929 164.245 78.6939 164.55L84.2437 165.188C88.0466 165.627 90.1698 169.761 88.275 173.058L73.4263 198.834C71.8003 201.666 67.984 202.371 65.4173 200.323L58.8194 195.019C57.6637 194.089 56.1721 193.69 54.7074 193.889L30.9628 197.226C28.0871 197.625 25.413 195.684 24.9427 192.852L24.3783 189.449C24.0558 187.522 22.6986 185.926 20.8307 185.302L17.1353 184.065C15.039 183.361 13.6012 181.446 13.5206 179.266L12.9831 165.122C12.8487 161.4 16.5441 158.701 20.0916 159.937Z" fill="#C9C9CA"/>
</g>
<ellipse opacity="0.3" cx="331.148" cy="186.332" rx="16" ry="6" fill="#FF831C"/>
<path d="M356.148 141.787C356.148 152.795 340.819 173.877 334.168 182.506C332.627 184.505 329.67 184.505 328.129 182.506C321.478 173.877 306.148 152.795 306.148 141.787C306.148 127.728 317.341 116.332 331.148 116.332C344.956 116.332 356.148 127.728 356.148 141.787Z" fill="#FF831C"/>
<circle cx="331.148" cy="141.332" r="10" fill="white"/>
<rect x="507" y="48" width="44" height="6" rx="3" fill="#FF831C"/>
<path d="M514.47 145.22H509.772V143.744H514.47V145.22ZM516.234 147.668H507.594V146.228H516.234V147.668ZM521.094 158.954H510.276V154.652H512.13V157.478H521.094V158.954ZM520.734 155.192H518.898V152.546H516.576V151.052H518.898V149.234H516.576V147.722H518.898V143.384H520.734V155.192ZM515.856 151.07C515.856 152.744 514.254 153.842 512.094 153.842C509.952 153.842 508.332 152.744 508.332 151.07C508.332 149.432 509.934 148.28 512.094 148.28C514.254 148.28 515.856 149.432 515.856 151.07ZM514.11 151.07C514.11 150.224 513.192 149.684 512.094 149.684C510.978 149.684 510.078 150.224 510.078 151.07C510.078 151.916 510.978 152.438 512.094 152.438C513.192 152.438 514.11 151.916 514.11 151.07ZM536.272 159.422H534.508V151.304H532.924V158.666H531.178V143.708H532.924V149.756H534.508V143.384H536.272V159.422ZM530.692 154.328L529.612 155.66C528.532 154.976 527.128 153.266 526.696 151.736C526.336 153.32 524.95 155.156 523.564 156.02L522.412 154.778C524.536 153.374 525.814 151.052 525.814 147.866V146.75H522.988V145.274H530.242V146.75H527.614V147.812C527.614 150.998 528.892 153.284 530.692 154.328ZM557.151 148.802H554.793V152.87H552.939V143.384H554.793V147.272H557.151V148.802ZM550.329 144.536C550.257 148.856 547.323 151.61 543.129 152.852L542.175 151.358C545.001 150.764 547.827 148.856 548.277 146.066H542.967V144.536H550.329ZM555.009 156.218C555.009 158.144 552.993 159.404 549.555 159.404C546.135 159.404 544.137 158.144 544.137 156.218C544.137 154.274 546.135 153.032 549.555 153.032C552.993 153.032 555.009 154.274 555.009 156.218ZM553.119 156.218C553.119 155.138 551.787 154.508 549.555 154.508C547.323 154.508 546.027 155.138 546.027 156.218C546.027 157.28 547.323 157.928 549.555 157.928C551.787 157.928 553.119 157.28 553.119 156.218ZM566.497 146.732C566.497 148.478 564.841 149.648 562.519 149.648C560.215 149.648 558.505 148.496 558.505 146.696C558.505 144.986 560.215 143.744 562.519 143.744C564.841 143.744 566.497 144.986 566.497 146.732ZM565.993 154.04V152.69H569.125V143.384H570.961V155.75H569.125V154.04H565.993ZM571.249 159.008H559.639V154.292H561.475V157.532H571.249V159.008ZM563.941 154.94H562.087V152.024C560.593 152.096 559.117 152.132 557.623 152.15L557.371 150.62C559.189 150.62 560.935 150.602 562.699 150.53C564.859 150.458 566.551 150.332 567.973 150.17L568.099 151.538C566.731 151.7 565.327 151.826 563.941 151.916V154.94ZM564.679 146.732C564.679 145.886 563.851 145.166 562.519 145.166C561.187 145.166 560.341 145.886 560.341 146.732C560.341 147.56 561.187 148.244 562.519 148.244C563.851 148.244 564.679 147.56 564.679 146.732ZM582.791 154.202L581.711 155.552C580.217 154.724 578.273 152.672 577.751 151.016C577.337 152.744 575.717 154.868 573.809 155.876L572.639 154.526C575.195 153.086 576.797 150.548 576.797 147.308V146.516H573.449V145.058H581.963V146.516H578.705V147.29C578.705 150.53 580.433 152.924 582.791 154.202ZM585.977 159.422H584.141V143.384H585.977V159.422ZM596.332 148.082C596.332 150.35 594.532 151.862 592.228 151.862C589.996 151.862 588.142 150.35 588.142 148.082C588.142 145.868 589.96 144.212 592.228 144.212C594.496 144.212 596.332 145.832 596.332 148.082ZM590.158 153.464H601.192V159.44H599.338V154.958H590.158V153.464ZM596.8 150.692L596.872 149.18H599.338V146.948H596.872L596.8 145.436H599.338V143.384H601.192V152.618H599.338V150.692H596.8ZM594.532 148.064C594.532 146.804 593.686 145.724 592.228 145.724C590.878 145.724 589.96 146.822 589.96 148.064C589.96 149.414 590.896 150.422 592.228 150.422C593.614 150.422 594.532 149.378 594.532 148.064ZM616.724 147.668H607.436V146.21H616.724V147.668ZM615.878 151.07C615.878 152.762 614.258 153.86 612.116 153.86C609.956 153.86 608.318 152.762 608.318 151.07C608.318 149.414 609.938 148.28 612.116 148.28C614.258 148.28 615.878 149.414 615.878 151.07ZM614.114 151.07C614.114 150.224 613.196 149.684 612.116 149.684C610.982 149.684 610.082 150.224 610.082 151.07C610.082 151.934 610.982 152.438 612.116 152.438C613.196 152.438 614.114 151.934 614.114 151.07ZM609.758 145.22V143.744H614.456V145.22H609.758ZM620.018 143.384V148.406H622.394V149.936H620.018V155.246H618.164V143.384H620.018ZM620.486 158.99H609.758V154.688H611.612V157.514H620.486V158.99ZM636.115 156.272C636.115 158.162 634.117 159.422 630.643 159.422C627.187 159.422 625.207 158.162 625.207 156.272C625.207 154.346 627.187 153.086 630.643 153.086C634.117 153.086 636.115 154.346 636.115 156.272ZM623.335 145.94V144.41H631.777V145.94H628.573V145.994C628.573 148.388 630.355 150.152 632.227 150.728L631.201 152.186C629.887 151.664 628.303 150.404 627.619 148.91C627.151 150.476 625.423 152.042 623.821 152.654L622.705 151.214C624.955 150.386 626.665 148.46 626.665 146.084V145.94H623.335ZM631.525 148.802V147.272H634.135V143.384H635.989V153.032H634.135V148.802H631.525ZM630.643 154.598C628.429 154.598 627.115 155.21 627.115 156.272C627.115 157.316 628.429 157.928 630.643 157.928C632.911 157.928 634.225 157.316 634.225 156.272C634.225 155.21 632.911 154.598 630.643 154.598ZM655.427 147.452H650.657C651.215 149.126 653.717 150.206 656.129 150.44L655.319 151.916C653.123 151.664 650.549 150.386 649.613 148.856C648.785 150.422 646.319 151.664 643.889 151.97L643.061 150.494C645.563 150.206 648.047 149.144 648.587 147.452H643.781V145.994H655.427V147.452ZM650.495 159.422H648.659V154.436H642.359V152.978H656.849V154.436H650.495V159.422ZM646.985 144.95V143.474H652.205V144.95H646.985ZM658.114 147.92V146.462H666.574V147.92H663.298C663.37 150.152 665.134 151.52 666.97 152.024L666.016 153.464C664.756 153.032 663.046 151.772 662.362 150.368C661.822 151.826 660.166 153.374 658.51 153.914L657.466 152.492C659.68 151.772 661.318 150.134 661.408 147.92H658.114ZM670.786 143.384V155.03H668.932V150.494H666.34V148.946H668.932V143.384H670.786ZM671.128 158.954H660.31V154.04H662.182V157.478H671.128V158.954ZM660.058 145.382V143.906H664.612V145.382H660.058ZM689.972 156.488C689.972 158.288 687.92 159.422 684.41 159.422C680.9 159.422 678.848 158.288 678.848 156.488C678.848 154.868 680.522 153.788 683.456 153.59V152.222H677.156V150.746H691.646V152.222H685.292V153.59C688.262 153.752 689.972 154.868 689.972 156.488ZM690.89 148.442L690.08 149.882C687.686 149.594 685.274 148.244 684.41 146.696C683.636 148.352 681.386 149.594 678.74 149.882L677.93 148.442C680.468 148.262 682.862 147.128 683.366 145.346H678.65V143.852H690.188V145.346H685.49C686.066 147.128 688.73 148.298 690.89 148.442ZM688.064 156.488C688.064 155.552 686.624 155.03 684.392 155.03C682.16 155.03 680.738 155.552 680.738 156.488C680.738 157.46 682.16 157.928 684.392 157.928C686.642 157.928 688.064 157.46 688.064 156.488Z" fill="#646464"/>
<path opacity="0.2" d="M556 79H670V94H556V79Z" fill="#FF831C"/>
<path d="M526.5 75.492H520.546C521.326 77.52 523.926 78.716 527.462 78.976L526.11 81.732C523.484 81.576 519.584 80.172 518.258 77.702C516.958 80.224 513.214 81.602 510.406 81.81L509.08 79.054C512.59 78.664 515.216 77.546 516.022 75.492H509.99V72.788H526.5V75.492ZM519.948 92.002H516.542V85.346H507.78V82.668H528.71V85.346H519.948V92.002ZM514.54 71.826V69.148H522.028V71.826H514.54ZM547.982 79.73C547.982 81.966 545.174 83.474 540.26 83.474C535.346 83.474 532.564 81.966 532.564 79.73C532.564 77.468 535.346 75.934 540.26 75.934C545.174 75.934 547.982 77.468 547.982 79.73ZM541.898 92.002H538.492V86.906H529.756V84.202H550.686V86.906H541.898V92.002ZM549.542 75.414H530.926V72.71H549.542V75.414ZM535.996 71.826V69.174H544.472V71.826H535.996ZM544.316 79.756C544.316 79.106 542.73 78.534 540.26 78.534C537.79 78.534 536.23 79.106 536.23 79.756C536.23 80.406 537.79 81.004 540.26 81.004C542.73 81.004 544.316 80.406 544.316 79.756ZM558.952 73.36V70.578H571.172V73.36H566.856C566.908 77 569.222 79.158 572.082 80.146L570.236 82.824C568.468 82.226 565.998 80.276 565.14 78.352C564.542 80.38 561.838 82.59 559.576 83.266L557.86 80.588C561.318 79.392 563.268 76.974 563.268 73.412V73.36H558.952ZM577.308 85.684H573.798V77.754H570.522V75.05H573.798V68.888H577.308V85.684ZM577.672 91.482H561.448V84.124H564.906V88.804H577.672V91.482ZM582.41 83.76H588.754V80.094H580.018V77.39H594.448C594.734 76.194 594.994 73.854 594.968 72.346H582.826V69.642H598.4C598.452 72.294 598.27 75.18 597.75 77.39H600.948V80.094H592.212V83.76H598.322V92.028H594.89V86.49H582.41V83.76ZM602.904 72.866V70.084H615.124V72.866H610.834C611.094 76.194 613.304 78.248 616.086 79.158L614.188 81.888C612.42 81.29 609.95 79.262 609.092 77.338C608.52 79.392 605.79 81.628 603.554 82.356L601.812 79.626C605.114 78.482 607.116 76.194 607.246 72.866H602.904ZM605.452 83.526H621.234V92.08H617.776V86.282H605.452V83.526ZM621.26 82.564H617.75V77.104H614.708V74.348H617.75V68.888H621.26V82.564ZM644.901 89.116H623.971V86.36H644.901V89.116ZM643.055 76.662C643.055 80.328 639.649 82.954 634.423 82.954C629.223 82.954 625.817 80.328 625.817 76.662C625.817 72.97 629.223 70.37 634.423 70.37C639.649 70.37 643.055 72.97 643.055 76.662ZM639.571 76.688C639.571 74.478 637.569 73.074 634.423 73.074C631.303 73.074 629.301 74.478 629.301 76.688C629.301 78.82 631.303 80.25 634.423 80.25C637.491 80.25 639.571 78.82 639.571 76.688ZM664.875 83.11H658.115V86.49H666.877V89.194H645.947V86.49H654.709V83.11H648.573V75.206H660.845V72.97H648.547V70.214H664.277V77.962H652.005V80.38H664.875V83.11ZM521.456 108.868C521.456 111.65 518.934 113.704 515.216 113.704C511.472 113.704 509.002 111.65 509.002 108.868C509.002 106.008 511.472 103.85 515.216 103.85C519.012 103.85 521.456 106.008 521.456 108.868ZM519.532 120.958V118.41H524.082V102.888H527.566V126.054H524.082V120.958H519.532ZM516.828 125.378H513.37V117.526C511.238 117.604 509.288 117.63 507.884 117.63L507.468 114.874C510.224 114.874 512.954 114.796 515.138 114.718C518.128 114.562 520.858 114.406 522.47 114.172L522.678 116.798C520.676 117.058 518.856 117.24 516.828 117.344V125.378ZM517.946 108.842C517.946 107.62 516.88 106.658 515.216 106.658C513.63 106.658 512.512 107.62 512.512 108.842C512.512 110.012 513.604 110.974 515.216 110.974C516.906 110.974 517.946 110.012 517.946 108.842ZM539.87 105.514C539.896 107.646 539.766 109.57 539.35 111.312H541.56V103.304H544.732V125.014H541.56V114.016H538.492C537.14 117.24 534.826 119.736 531.446 121.712L529.418 119.112C532.33 117.604 534.15 115.68 535.242 113.444L530.172 114.042L529.782 111.208L536.1 110.87C536.308 110.012 536.438 109.154 536.49 108.244H531.056V105.514H539.87ZM549.516 126.054H546.292V102.888H549.516V126.054ZM570.972 126.054H567.54V102.888H570.972V126.054ZM552.356 112.742C552.356 107.88 554.618 104.37 558.414 104.37C562.262 104.37 564.524 107.88 564.524 112.742C564.524 117.5 562.262 121.036 558.414 121.036C554.618 121.036 552.356 117.526 552.356 112.742ZM561.3 112.742C561.3 109.206 560.078 107.412 558.414 107.412C556.854 107.412 555.632 109.206 555.632 112.742C555.632 116.226 556.854 118.046 558.414 118.046C560.078 118.046 561.3 116.226 561.3 112.742ZM589.464 108.998H586.084V106.216H589.464V102.888H592.974V119.684H589.464V113.522H586.084V110.766H589.464V108.998ZM593.39 125.456H577.322V118.306H580.754V122.778H593.39V125.456ZM587.488 114.354L585.668 117.214C583.9 116.642 581.482 114.562 580.676 112.69C580 114.718 577.504 116.954 575.242 117.708L573.5 114.9C576.932 113.6 578.96 110.922 578.96 107.724V104.448H582.496V107.542C582.496 110.896 584.576 113.34 587.488 114.354ZM620.428 121.244C620.428 124.104 617.334 125.898 612.212 125.898C607.116 125.898 604.048 124.104 604.048 121.244C604.048 118.332 607.116 116.486 612.212 116.486C617.334 116.486 620.428 118.332 620.428 121.244ZM602.41 107.1V104.318H614.63V107.1H610.366C610.73 110.324 612.914 112.326 615.618 113.236L613.772 115.94C612.004 115.368 609.534 113.34 608.676 111.416C608.078 113.47 605.374 115.706 603.138 116.408L601.396 113.678C604.646 112.586 606.596 110.35 606.83 107.1H602.41ZM623.418 111.312H620.194V116.2H616.788V102.888H620.194V108.53H623.418V111.312ZM612.212 119.268C609.274 119.268 607.532 120.022 607.532 121.244C607.532 122.414 609.274 123.194 612.212 123.194C615.254 123.194 616.918 122.414 616.918 121.244C616.918 120.074 615.254 119.268 612.212 119.268ZM644.355 112.95L642.821 115.836C639.961 115.29 635.697 113.028 634.397 109.648C633.175 113.028 628.989 115.264 626.025 115.836L624.491 112.976C628.287 112.534 632.577 109.648 632.577 105.41V104.188H636.269V105.41C636.269 109.674 640.507 112.508 644.355 112.95ZM644.901 123.194H623.971V120.49H632.655V115.238H636.061V120.49H644.901V123.194ZM664.789 112.586C664.789 114.094 663.255 115.238 660.863 115.628V116.33C662.683 116.226 664.503 116.044 666.271 115.836L666.479 118.462C662.111 119.008 657.041 119.268 652.439 119.268C652.283 118.41 652.127 117.474 651.997 116.564C653.791 116.564 655.611 116.538 657.379 116.486V115.602C655.039 115.212 653.583 114.068 653.583 112.56C653.583 110.636 655.819 109.258 659.173 109.258C662.501 109.258 664.789 110.636 664.789 112.586ZM670.795 102.888V110.246H673.473V113.054H670.795V119.086H667.389V102.888H670.795ZM654.623 120.022H670.795V126.236H667.389V122.7H654.623V120.022ZM665.673 108.92H652.673V106.398H665.673V108.92ZM656.157 105.696V103.252H662.605V105.696H656.157ZM661.357 112.586C661.357 111.962 660.707 111.546 659.173 111.546C657.639 111.546 656.963 111.962 656.963 112.586C656.963 113.08 657.613 113.548 659.173 113.548C660.707 113.548 661.357 113.08 661.357 112.586ZM693.993 126.054H690.717V114.614H689.001V124.988H685.777V103.278H689.001V111.858H690.717V102.888H693.993V126.054ZM678.263 118.046H678.783C680.135 118.046 683.177 117.916 684.659 117.578L684.997 120.178C683.073 120.594 679.381 120.802 677.327 120.802H674.831V105.592H683.619V108.27H678.263V118.046ZM708.117 117.864H705.803C705.023 119.97 703.645 121.478 701.461 121.478C697.743 121.478 696.417 117.032 696.417 112.924C696.417 108.92 697.743 104.552 701.461 104.552C703.567 104.552 704.919 105.93 705.699 107.88H708.117V103.33H711.315V125.014H708.117V117.864ZM715.969 126.054H712.693V102.888H715.969V126.054ZM703.385 112.976C703.385 110.246 702.943 107.75 701.487 107.75C700.109 107.75 699.693 110.246 699.693 112.976C699.693 115.732 700.109 118.176 701.487 118.176C702.943 118.176 703.385 115.732 703.385 112.976ZM706.583 112.976C706.583 113.678 706.531 114.406 706.427 115.134H708.117V110.61H706.401C706.531 111.39 706.583 112.196 706.583 112.976ZM737.555 121.296C737.555 124.078 734.487 125.82 729.365 125.82C724.269 125.82 721.201 124.078 721.201 121.296C721.201 118.462 724.269 116.694 729.365 116.694C734.487 116.694 737.555 118.462 737.555 121.296ZM719.069 107.178V104.37H731.289V107.178H727.025C727.363 110.376 729.521 112.274 732.251 113.158L730.379 115.862C728.585 115.29 726.141 113.392 725.283 111.442C724.685 113.522 721.981 115.81 719.745 116.512L718.003 113.782C721.253 112.69 723.177 110.402 723.411 107.178H719.069ZM730.769 111.052V108.27H733.941V102.888H737.425V116.772H733.941V111.052H730.769ZM729.365 119.424C726.427 119.424 724.685 120.126 724.685 121.296C724.685 122.414 726.427 123.116 729.365 123.116C732.381 123.116 734.071 122.414 734.071 121.296C734.071 120.126 732.381 119.424 729.365 119.424ZM741.617 117.656L741.071 104.422H744.945L744.529 117.656H741.617ZM741.331 123.298V119.996H744.815V123.298H741.331Z" fill="#222222"/>
<defs>
<linearGradient id="paint0_linear_720_16793" x1="-212" y1="154.332" x2="814" y2="154.332" gradientUnits="userSpaceOnUse">
<stop stop-color="white"/>
<stop offset="0.798419" stop-color="#FFF5DE"/>
<stop offset="1" stop-color="#FFF2D6"/>
</linearGradient>
</defs>
</svg>
