<svg width="22" height="22" viewBox="0 0 22 22" fill="none" xmlns="http://www.w3.org/2000/svg">
<rect x="1" y="1" width="20" height="20" rx="10" stroke="#C2C2C2" stroke-width="2"/>
<path d="M13.127 17.2734C13.2129 17.2734 13.2917 17.2806 13.3633 17.2949C13.5495 17.3236 13.6426 17.5026 13.6426 17.832H8.35742V17.2734C8.54362 17.2734 8.70833 17.2591 8.85156 17.2305C9.35286 17.1445 9.60352 16.7865 9.60352 16.1562V9.15234H8.35742V8.59375H12.332V17.2734H13.127ZM12.5254 5.7793C12.5254 6.05143 12.4538 6.30924 12.3105 6.55273C12.0098 7.08268 11.5443 7.34766 10.9141 7.34766C10.6562 7.34766 10.4056 7.2832 10.1621 7.1543C9.60352 6.86784 9.32422 6.40951 9.32422 5.7793C9.32422 5.50716 9.38867 5.24935 9.51758 5.00586C9.83268 4.44727 10.2982 4.16797 10.9141 4.16797C11.1862 4.16797 11.444 4.23958 11.6875 4.38281C12.2461 4.68359 12.5254 5.14909 12.5254 5.7793Z" fill="#C2C2C2"/>
</svg>
