<svg width="816" height="448" viewBox="0 0 816 448" fill="none" xmlns="http://www.w3.org/2000/svg">
<rect x="1" y="1" width="814" height="446" rx="11" fill="url(#paint0_linear_720_16793)" stroke="#FF831C" stroke-width="2"/>
<circle cx="701.467" cy="301.009" r="12.0468" fill="#FEDEAF" stroke="#FFA555" stroke-width="4"/>
<path d="M714.465 364.483L725.24 358.028L747.109 401.752L736.412 408.386L714.465 364.483Z" fill="#FED39D"/>
<path d="M701.828 325.262L712.672 319.522C716.98 317.241 722.296 318.42 725.24 322.282M701.828 325.262V355.309L692.067 365.326L676.637 398.706C674.549 403.225 677.849 408.387 682.827 408.387C685.486 408.387 687.902 406.842 689.018 404.429L705.589 368.579L725.24 356.902M701.828 325.262L692.067 347.402L676.444 340.78M737.114 353.487V338.462L725.351 322.43C725.315 322.38 725.277 322.331 725.24 322.282M725.24 356.902V322.282M725.24 356.902L744.677 398.15C746.92 402.911 743.447 408.387 738.184 408.387C735.37 408.387 732.816 406.743 731.651 404.182L713.435 364.146M725.24 322.282V322.279M737.115 353.432L745.85 372.33M745.85 372.33L759.465 401.785L777.456 392.835C779.063 392.035 779.743 390.102 778.989 388.473L768.16 365.043C767.375 363.346 765.345 362.632 763.671 363.464L745.85 372.33ZM767.233 406.003C767.233 408.742 765.013 410.963 762.274 410.963C759.535 410.963 757.314 408.742 757.314 406.003C757.314 403.264 759.535 401.044 762.274 401.044C765.013 401.044 767.233 403.264 767.233 406.003Z" stroke="#FFA555" stroke-width="4" stroke-linecap="round" stroke-linejoin="round"/>
<mask id="mask0_720_16793" style="mask-type:alpha" maskUnits="userSpaceOnUse" x="2" y="2" width="812" height="444">
<rect x="2" y="2" width="812" height="444" rx="10" fill="#D9D9D9"/>
</mask>
<g mask="url(#mask0_720_16793)">
<path d="M204.792 572.532L192.149 567.028C190.53 566.326 188.652 566.484 187.19 567.473L170.691 578.566C168.512 580.028 165.588 579.641 163.868 577.649L160.743 574.023C158.78 571.744 155.282 571.615 153.146 573.736C150.451 576.431 145.85 575.384 144.589 571.787L139.945 558.543C139.658 557.712 139.572 556.823 139.73 555.949L144.402 528.644C144.531 527.928 144.79 527.254 145.205 526.638L157.662 507.962C158.321 506.973 158.622 505.798 158.507 504.622L156.371 480.844C156.328 480.443 156.257 480.056 156.128 479.669L150.236 461.982C149.878 460.893 149.878 459.717 150.265 458.642L154.967 445.141C155.569 443.392 157.06 442.116 158.866 441.758L167.781 440.024C170.218 439.551 171.967 437.415 171.967 434.936V429.546C171.967 427.769 171.05 426.121 169.545 425.16L158.178 417.98C157.475 417.535 156.887 416.919 156.472 416.202L151.53 399.218C151.114 398.501 150.526 397.885 149.824 397.441L122.575 380.212C120.883 379.152 118.733 379.137 117.042 380.212L101.002 390.303C99.8981 390.991 98.5794 391.249 97.2893 391.005L93.1324 390.231C90.839 389.801 85.3889 394.001 84.3569 396.093L81.2321 402.471C80.5154 403.933 79.1393 404.98 77.5482 405.281L68.102 407.072C66.5396 407.373 65.2065 408.362 64.4755 409.767L61.5513 415.385C59.4299 419.456 53.4669 418.969 52.0335 414.611L48.0342 402.443C47.5469 400.966 46.4288 399.791 44.9811 399.218L12.0986 386.519C9.63315 385.573 6.85232 386.619 5.63393 388.955L4.12885 391.836C3.45514 393.112 2.29408 394.058 0.903674 394.431L-18.9061 399.863C-22.2029 400.766 -25.4568 398.286 -25.4568 394.861V386.977C-25.4568 384.24 -27.5782 381.975 -30.316 381.803L-33.6559 381.588C-36.15 381.431 -38.4005 383.079 -39.0025 385.501L-41.855 396.91C-42.113 397.956 -42.7007 398.888 -43.5034 399.59L-59.443 413.264C-61.8941 415.357 -65.6353 414.74 -67.2837 411.96L-74.7375 399.332C-76.4862 396.365 -80.5858 395.907 -82.9509 398.386L-100.568 416.862C-101.743 418.094 -102.245 419.843 -101.886 421.52L-96.7833 445.513C-96.2243 448.122 -93.7732 449.885 -91.1214 449.584L-63.9152 446.459C-62.5535 446.302 -61.1917 446.689 -60.1167 447.534L-41.9983 461.781C-39.7622 463.544 -36.5084 463.171 -34.7309 460.936L-30.4737 455.561C-27.1769 451.404 -20.4972 454.299 -21.2855 459.56L-23.5217 474.394C-23.7367 475.871 -23.321 477.361 -22.3606 478.508L-11.6387 491.25C-10.2913 492.855 -10.0333 495.12 -11.008 496.983C-14.7062 504.035 -23.4643 520.905 -23.4643 522.453C-23.4643 524.001 -11.1227 534.12 -5.31734 538.835C-3.55425 540.269 -2.93788 542.662 -3.76926 544.769L-21.5149 589.302" fill="#C0C1C1"/>
<path d="M288.406 590.367L300.392 586.728C303.92 585.654 305.291 581.369 303.034 578.447L298.663 572.773C297.549 571.326 295.777 570.552 293.963 570.738L271.307 573.031C269.264 573.231 267.279 572.228 266.236 570.452L260.007 559.849C258.965 558.087 259.05 555.866 260.207 554.175L271.507 537.655C272.05 536.852 272.364 535.921 272.421 534.961L274.535 496.218C274.621 494.599 273.964 493.023 272.736 491.949L262.65 483.123C260.422 481.174 260.236 477.778 262.222 475.586L267.807 469.439C269.421 467.663 272.036 467.204 274.164 468.322C277.407 470.041 281.692 472.205 281.692 471.66C281.692 471.015 284.064 459.396 285.321 453.32C285.778 451.128 287.549 449.481 289.749 449.165L301.377 447.546C303.549 447.245 305.263 445.512 305.534 443.32L307.006 431.47C307.249 429.522 308.634 427.917 310.505 427.387L349.19 416.455C350.318 416.139 351.532 416.24 352.59 416.741L372.446 426.212C373.974 426.943 375.774 426.814 377.189 425.897L387.531 419.12C389.102 418.088 389.945 416.24 389.688 414.377L387.545 398.717C387.317 397.055 387.96 395.378 389.26 394.304L415.987 372.052C416.259 371.823 416.559 371.622 416.887 371.465L422.644 368.528C426.387 366.622 426.115 361.163 422.187 359.644L396.702 349.758C396.002 349.486 395.259 349.385 394.502 349.443L386.574 350.159C384.346 350.36 382.26 349.013 381.546 346.878L378.617 338.267C377.874 336.06 375.674 334.699 373.375 335.014L364.489 336.218C360.432 336.777 357.561 332.349 359.704 328.839L360.046 328.28C362.089 324.942 359.561 320.672 355.661 320.873L320.491 322.664C319.462 322.721 318.462 323.094 317.662 323.753L312.277 328.18C309.448 330.501 305.177 328.982 304.449 325.386C303.777 322.119 303.106 318.967 302.934 318.437C302.734 317.821 300.034 315.901 297.535 314.225C295.206 312.663 292.035 313.394 290.635 315.844L279.95 334.384C279.207 335.674 277.921 336.548 276.45 336.762L253.322 340.158C251.108 340.488 248.965 339.256 248.122 337.178L247.822 336.447C246.465 333.109 241.265 322.959 238.88 325.653L222.368 333.642C221.154 335.003 223.075 335.166 221.303 334.707L215.444 334.384C212.03 333.51 222.495 343.396 223.109 346.878C223.38 348.454 215.508 346.358 214.379 347.49C214.379 347.49 207.575 358.033 206.39 359.208C205.204 360.383 204.259 361.871 204.259 361.871L192.009 355.48C190.509 355.122 183.607 354.477 182.422 355.48L168.082 373.589C166.968 374.549 166.34 375.967 166.382 377.443L166.497 381.254C166.554 383.361 165.268 385.266 163.297 385.983L149.983 390.797C149.197 391.083 148.483 391.571 147.94 392.215L145.755 394.766C144.412 396.342 144.212 398.591 145.24 400.382L152.254 412.475C152.654 413.148 157.554 417.916 158.211 418.332L169.754 425.639C171.168 426.527 172.011 428.089 172.011 429.751V435.554C172.011 437.889 170.368 439.895 168.082 440.339L158.768 442.159C157.069 442.489 155.683 443.706 155.111 445.34L150.34 459.109C149.983 460.126 149.983 461.229 150.326 462.247L156.254 480.071C156.369 480.429 156.454 480.802 156.483 481.174L158.611 505.087C158.711 506.191 158.426 507.294 157.811 508.225L145.312 527.038C144.94 527.611 144.683 528.241 144.569 528.915L139.883 556.353C139.741 557.17 139.812 558.001 140.083 558.789L144.898 572.572C146.083 575.953 150.383 576.942 152.912 574.406L153.497 573.819C155.497 571.813 158.768 571.942 160.611 574.077L164.125 578.16C165.725 580.023 168.468 580.395 170.511 579.02L187.325 567.686C188.696 566.755 190.453 566.597 191.981 567.256L204.738 572.83" fill="#CBCBCC"/>
<path d="M570.249 566.556L589.738 506.264C591.027 502.267 589.466 497.91 585.943 495.652C582.006 493.136 580.588 488.06 582.621 483.861L599.074 449.912C600.119 447.741 600.291 445.254 599.532 442.967L580.731 386.328C580.387 385.293 580.244 384.2 580.316 383.107L581.676 361.769C581.862 358.864 580.559 356.075 578.211 354.378L569.075 347.706V347.49L567.715 347.706L557.72 355.945C557.09 356.463 556.546 357.067 556.088 357.743L553.023 362.286C550.518 365.996 545.577 367.118 541.725 364.831L535.425 361.093C531.945 359.022 527.478 359.727 524.8 362.775L524.184 363.465C521.922 366.039 518.328 366.988 515.092 365.852L496.677 359.439C493.956 358.49 490.949 358.994 488.687 360.791L478.385 352.596C475.593 354.81 471.726 355.026 468.705 353.142L466.385 351.69C462.448 349.231 457.293 350.425 454.801 354.336C452.639 357.744 448.386 359.153 444.634 357.686L430.831 352.323C428.597 351.446 426.091 351.575 423.957 352.668L412.187 358.678C411.629 358.966 411.113 359.311 410.626 359.714L385.668 380.52C383.42 382.389 382.303 385.294 382.689 388.199L384.25 399.688C384.694 402.937 388.925 417.977 386.19 419.774L379.388 424.231C376.925 425.856 373.804 426.058 371.14 424.792L354.258 416.726C352.411 415.848 350.306 415.661 348.344 416.222L313.147 426.187C309.882 427.107 307.477 429.911 307.061 433.29L306.217 440.077C305.744 443.888 302.78 446.893 299 447.425L292.57 448.316C288.862 448.834 285.869 451.638 285.11 455.319C283.807 461.646 281.988 470.661 281.988 471.237C281.988 471.654 279.44 470.475 276.79 469.109C273.239 467.297 268.915 468.088 266.223 471.05L264.934 472.473C261.583 476.154 261.913 481.892 265.65 485.17L271.693 490.461C273.755 492.259 274.857 494.919 274.714 497.651L272.738 533.771C272.652 535.396 272.122 536.963 271.206 538.315L261.741 552.176C259.794 555.024 259.665 558.748 261.412 561.724L265.335 568.41C267.096 571.401 270.418 573.098 273.855 572.739L292.313 570.869C295.363 570.567 298.341 571.847 300.217 574.292C303.997 579.224 301.706 586.427 295.778 588.225L288.718 590.367" fill="#D8D9D9"/>
<path d="M258.936 244.371L264.009 236.207C265.073 234.502 264.096 232.268 262.127 231.867L231.644 225.794C231.17 225.694 230.724 225.493 230.365 225.178L217.732 214.68C217.143 214.193 216.395 213.964 215.648 214.021L206.364 214.794C204.51 214.952 202.986 213.333 203.274 211.5L208.462 177.326C208.548 176.739 208.462 176.137 208.189 175.607L201.851 162.975C201.319 161.9 201.492 160.611 202.311 159.738L214.972 146.117C215.418 145.644 215.691 145.028 215.734 144.369L216.668 131.751C216.769 130.448 215.979 129.259 214.743 128.815L184.748 118.331C183.843 118.015 183.167 117.285 182.923 116.368L177.821 97.5769C177.577 96.6746 176.916 95.9585 176.039 95.629L158.146 89.0119C157.327 88.7111 156.694 88.0523 156.407 87.2216L154.036 80.1175C153.619 78.8571 152.383 78.055 151.061 78.1553L134.087 79.5303C132.636 79.6449 131.328 78.6709 131.026 77.2529L127.764 61.9276C127.563 60.968 126.887 60.1802 125.967 59.8365L115.979 56.041C115.404 55.8261 114.915 55.4394 114.585 54.9238C113.996 54.0071 112.946 52.403 111.753 50.541C110.891 49.209 109.109 48.8223 107.772 49.6673L86.9763 62.8729C86.5308 63.1594 86.1571 63.5604 85.9272 64.0474L59.756 117.915C59.4254 118.603 58.8361 119.118 58.1176 119.376L30.7103 129.015C29.8049 129.33 29.115 130.09 28.8707 131.021L22.389 156.3C22.2597 156.802 22.274 157.331 22.4177 157.833L26.1257 170.222C26.255 170.637 26.2838 171.067 26.2119 171.497L24.128 184.717C24.013 185.404 24.1711 186.12 24.5448 186.707L30.7535 196.404C32.1763 198.638 30.0923 201.446 27.5341 200.715L17.4163 197.85C16.0941 197.478 15.2174 196.232 15.318 194.857L16.3528 181.265C16.4821 179.489 14.9875 178.013 13.2054 178.185L-2.44564 179.661C-3.95469 179.804 -5.10444 181.093 -5.06133 182.611L-4.29962 209.552C-4.27087 210.612 -3.65288 211.572 -2.70434 212.044L12.4149 219.578C13.0329 219.893 13.5215 220.409 13.7946 221.053L33.6709 269.135C33.7428 269.292 33.7859 269.464 33.829 269.636L38.7011 292.553C39.0173 294.028 38.1406 295.489 36.689 295.918L14.6857 302.321C12.8461 302.851 12.0269 304.985 13.0329 306.603L29.2013 332.642C29.3737 332.928 29.6037 333.172 29.8624 333.387L54.8839 353.195C55.66 353.811 56.0624 354.756 55.9618 355.73L54.3234 372.044C54.2228 373.075 54.6827 374.078 55.5162 374.679L73.2655 387.269C74.056 387.827 75.0764 387.956 75.9962 387.598L83.6995 384.605C86.1571 383.645 88.4997 386.195 87.3356 388.558C86.4877 390.262 87.5225 392.31 89.3908 392.654L94.5934 393.628C95.312 393.757 96.045 393.628 96.663 393.241L114.743 381.912C115.691 381.325 116.884 381.325 117.818 381.912L145.326 399.243C146.533 400.002 148.129 399.773 149.063 398.684L152.239 395.003C152.57 394.631 152.986 394.344 153.446 394.172L168.695 388.687C169.873 388.257 170.635 387.14 170.606 385.894L170.42 379.692C170.391 378.818 170.765 377.988 171.426 377.415L189.247 362.261C189.951 361.66 190.885 361.445 191.791 361.645L204.984 364.754C205.947 364.983 206.967 364.696 207.672 364.009L222.503 349.485C223.179 348.827 223.495 347.867 223.323 346.936L222.604 342.868C222.245 340.806 224.127 339.059 226.168 339.574L231.586 340.963C232.636 341.236 233.742 340.892 234.461 340.09L244.55 328.789C244.88 328.417 245.11 327.973 245.211 327.486L256.766 273.947C256.795 273.804 256.809 273.661 256.823 273.518L258.534 245.746C258.562 245.273 258.706 244.815 258.965 244.399L258.936 244.371Z" fill="#DEDFDF"/>
<path d="M557.221 298.329L545.823 267.402C545.708 267.101 545.579 266.829 545.421 266.556L524.717 232.06C524.603 231.874 524.488 231.702 524.345 231.53L505.748 208.012C505.003 207.08 504.63 205.905 504.659 204.716L505.117 190.8C505.16 189.625 504.773 188.464 504.056 187.532L416.982 76.2908C416.738 75.9755 416.523 75.6172 416.351 75.2589L367.66 -33.0302C366.14 -36.3981 361.623 -37.043 359.229 -34.234L355.358 -29.6766C354.755 -28.96 354.354 -28.0858 354.211 -27.1686L347.787 15.6541C347.543 17.3165 346.468 18.7497 344.948 19.4663L301.074 40.032C300.286 40.4046 299.411 40.5623 298.536 40.4906L270.907 38.3266C270.276 38.2836 269.631 38.3409 269.029 38.5272L257.601 42.0384C255.824 42.583 253.874 42.1101 252.554 40.7916L251.795 40.032C251.02 39.2581 250.002 38.7422 248.898 38.5989L204.264 32.6083C203.117 32.4506 201.942 32.7086 200.952 33.3105L189.912 40.1037C188.277 41.1069 186.213 41.0926 184.578 40.075L177.252 35.4603C176.492 34.973 175.603 34.715 174.699 34.6864L134.797 33.5972C133.793 33.5685 132.804 33.8408 131.944 34.3854L114.437 45.5353C112.086 47.0401 111.412 50.1787 112.917 52.5148C113.39 53.26 113.821 53.9049 114.165 54.4352C114.752 55.3381 115.598 56.026 116.602 56.413L124.818 59.5372C126.424 60.1392 127.599 61.5293 127.958 63.1918L130.582 75.5312C131.112 78.0106 133.392 79.716 135.915 79.5011L149.264 78.4119C151.572 78.2256 153.723 79.6444 154.454 81.8371L155.96 86.3516C156.447 87.799 157.551 88.9456 158.985 89.4758L174.828 95.3518C176.348 95.925 177.51 97.1862 177.94 98.7627L182.442 115.402C182.872 117.007 184.076 118.297 185.639 118.841L212.939 128.415C215.089 129.174 216.466 131.267 216.294 133.545L215.534 143.778C215.448 144.91 214.975 145.985 214.2 146.831L203.103 158.812C201.683 160.345 201.354 162.61 202.3 164.487L207.648 175.193C208.107 176.124 208.279 177.171 208.121 178.202L203.447 209.015C202.96 212.225 205.598 215.063 208.852 214.791L214.516 214.318C215.835 214.203 217.14 214.619 218.158 215.464L229.671 225.052C230.316 225.582 231.091 225.955 231.908 226.127L258.734 231.487C262.175 232.175 263.881 236.087 262.032 239.083L258.892 244.156C258.447 244.858 258.204 245.675 258.146 246.492L256.483 273.579C256.469 273.837 256.44 274.08 256.383 274.324L245.056 326.964C244.841 327.953 244.927 328.985 245.314 329.916L247.938 336.351C248.812 338.501 251.035 339.776 253.329 339.432L276.341 336.064C277.861 335.835 279.194 334.932 279.969 333.599L290.564 315.284C292.027 312.761 295.31 312.002 297.733 313.621C300.156 315.241 302.795 317.132 302.995 317.734C303.167 318.25 303.813 321.26 304.458 324.427C305.218 328.125 309.648 329.701 312.587 327.308L317.749 323.094C318.581 322.421 319.613 322.019 320.688 321.962L355.63 320.185C359.673 319.984 362.297 324.398 360.175 327.852C357.953 331.478 360.935 336.05 365.15 335.477L373.595 334.33C375.976 334.001 378.255 335.419 379.044 337.698L381.897 346.053C382.643 348.246 384.808 349.651 387.116 349.436L394.902 348.733C395.676 348.662 396.45 348.776 397.181 349.049L452.841 370.589C455.078 371.449 457.616 370.618 458.906 368.597L462.218 363.38C463.695 361.044 466.778 360.356 469.129 361.804L476.37 366.304C478.176 367.422 480.485 367.293 482.148 365.989L490.106 359.711C491.453 358.651 493.26 358.35 494.88 358.909L517.247 366.676C519.183 367.35 521.319 366.791 522.667 365.258L526.667 360.743C528.273 358.937 530.926 358.522 533.005 359.74L544.504 366.547C546.798 367.909 549.751 367.235 551.243 365.043L556.39 357.447C556.662 357.046 556.992 356.687 557.365 356.386L567.746 347.859L569.108 347.644V308.39C569.108 306.369 567.889 304.535 566.025 303.747L559.974 301.196C558.684 300.651 557.68 299.605 557.207 298.301L557.221 298.329Z" fill="#FEE0AA" stroke="#FF831C" stroke-width="2" stroke-miterlimit="10"/>
<path d="M53.6456 223.322L56.9093 224.455C60.216 225.602 63.7803 223.563 64.3958 220.15L66.3713 209.373C66.9009 206.498 69.5491 204.502 72.4979 204.771L77.823 205.252C79.6123 205.408 81.2012 206.399 82.146 207.9L85.6531 213.551C86.6408 215.123 88.3299 216.128 90.2051 216.227L105.636 217.02C108.657 217.176 111.033 219.64 111.033 222.642C111.033 225.503 113.194 227.91 116.072 228.236L121.984 228.915C126.035 229.383 128.296 233.787 126.278 237.299L110.46 264.757C108.728 267.773 104.663 268.524 101.929 266.343L94.9003 260.693C93.6692 259.701 92.0803 259.277 90.52 259.489L65.2261 263.043C62.1628 263.468 59.3142 261.401 58.8131 258.384L58.2119 254.759C57.8684 252.706 56.4226 251.007 54.4329 250.341L50.4963 249.024C48.2633 248.273 46.7316 246.234 46.6457 243.912L46.0731 228.845C45.93 224.879 49.8665 222.005 53.6456 223.322Z" fill="#C9C9CA"/>
</g>
<ellipse opacity="0.3" cx="357" cy="185" rx="16" ry="6" fill="#FF831C"/>
<path d="M382 140.455C382 151.463 366.671 172.545 360.019 181.174C358.479 183.173 355.521 183.173 353.981 181.174C347.329 172.545 332 151.463 332 140.455C332 126.396 343.193 115 357 115C370.807 115 382 126.396 382 140.455Z" fill="#FF831C"/>
<circle cx="357" cy="140" r="10" fill="white"/>
<rect x="536" y="63" width="44" height="6" rx="3" fill="#FF831C"/>
<path d="M543.47 160.22H538.772V158.744H543.47V160.22ZM545.234 162.668H536.594V161.228H545.234V162.668ZM550.094 173.954H539.276V169.652H541.13V172.478H550.094V173.954ZM549.734 170.192H547.898V167.546H545.576V166.052H547.898V164.234H545.576V162.722H547.898V158.384H549.734V170.192ZM544.856 166.07C544.856 167.744 543.254 168.842 541.094 168.842C538.952 168.842 537.332 167.744 537.332 166.07C537.332 164.432 538.934 163.28 541.094 163.28C543.254 163.28 544.856 164.432 544.856 166.07ZM543.11 166.07C543.11 165.224 542.192 164.684 541.094 164.684C539.978 164.684 539.078 165.224 539.078 166.07C539.078 166.916 539.978 167.438 541.094 167.438C542.192 167.438 543.11 166.916 543.11 166.07ZM565.272 174.422H563.508V166.304H561.924V173.666H560.178V158.708H561.924V164.756H563.508V158.384H565.272V174.422ZM559.692 169.328L558.612 170.66C557.532 169.976 556.128 168.266 555.696 166.736C555.336 168.32 553.95 170.156 552.564 171.02L551.412 169.778C553.536 168.374 554.814 166.052 554.814 162.866V161.75H551.988V160.274H559.242V161.75H556.614V162.812C556.614 165.998 557.892 168.284 559.692 169.328ZM586.151 163.802H583.793V167.87H581.939V158.384H583.793V162.272H586.151V163.802ZM579.329 159.536C579.257 163.856 576.323 166.61 572.129 167.852L571.175 166.358C574.001 165.764 576.827 163.856 577.277 161.066H571.967V159.536H579.329ZM584.009 171.218C584.009 173.144 581.993 174.404 578.555 174.404C575.135 174.404 573.137 173.144 573.137 171.218C573.137 169.274 575.135 168.032 578.555 168.032C581.993 168.032 584.009 169.274 584.009 171.218ZM582.119 171.218C582.119 170.138 580.787 169.508 578.555 169.508C576.323 169.508 575.027 170.138 575.027 171.218C575.027 172.28 576.323 172.928 578.555 172.928C580.787 172.928 582.119 172.28 582.119 171.218ZM595.497 161.732C595.497 163.478 593.841 164.648 591.519 164.648C589.215 164.648 587.505 163.496 587.505 161.696C587.505 159.986 589.215 158.744 591.519 158.744C593.841 158.744 595.497 159.986 595.497 161.732ZM594.993 169.04V167.69H598.125V158.384H599.961V170.75H598.125V169.04H594.993ZM600.249 174.008H588.639V169.292H590.475V172.532H600.249V174.008ZM592.941 169.94H591.087V167.024C589.593 167.096 588.117 167.132 586.623 167.15L586.371 165.62C588.189 165.62 589.935 165.602 591.699 165.53C593.859 165.458 595.551 165.332 596.973 165.17L597.099 166.538C595.731 166.7 594.327 166.826 592.941 166.916V169.94ZM593.679 161.732C593.679 160.886 592.851 160.166 591.519 160.166C590.187 160.166 589.341 160.886 589.341 161.732C589.341 162.56 590.187 163.244 591.519 163.244C592.851 163.244 593.679 162.56 593.679 161.732ZM611.791 169.202L610.711 170.552C609.217 169.724 607.273 167.672 606.751 166.016C606.337 167.744 604.717 169.868 602.809 170.876L601.639 169.526C604.195 168.086 605.797 165.548 605.797 162.308V161.516H602.449V160.058H610.963V161.516H607.705V162.29C607.705 165.53 609.433 167.924 611.791 169.202ZM614.977 174.422H613.141V158.384H614.977V174.422ZM625.332 163.082C625.332 165.35 623.532 166.862 621.228 166.862C618.996 166.862 617.142 165.35 617.142 163.082C617.142 160.868 618.96 159.212 621.228 159.212C623.496 159.212 625.332 160.832 625.332 163.082ZM619.158 168.464H630.192V174.44H628.338V169.958H619.158V168.464ZM625.8 165.692L625.872 164.18H628.338V161.948H625.872L625.8 160.436H628.338V158.384H630.192V167.618H628.338V165.692H625.8ZM623.532 163.064C623.532 161.804 622.686 160.724 621.228 160.724C619.878 160.724 618.96 161.822 618.96 163.064C618.96 164.414 619.896 165.422 621.228 165.422C622.614 165.422 623.532 164.378 623.532 163.064ZM645.724 162.668H636.436V161.21H645.724V162.668ZM644.878 166.07C644.878 167.762 643.258 168.86 641.116 168.86C638.956 168.86 637.318 167.762 637.318 166.07C637.318 164.414 638.938 163.28 641.116 163.28C643.258 163.28 644.878 164.414 644.878 166.07ZM643.114 166.07C643.114 165.224 642.196 164.684 641.116 164.684C639.982 164.684 639.082 165.224 639.082 166.07C639.082 166.934 639.982 167.438 641.116 167.438C642.196 167.438 643.114 166.934 643.114 166.07ZM638.758 160.22V158.744H643.456V160.22H638.758ZM649.018 158.384V163.406H651.394V164.936H649.018V170.246H647.164V158.384H649.018ZM649.486 173.99H638.758V169.688H640.612V172.514H649.486V173.99ZM665.115 171.272C665.115 173.162 663.117 174.422 659.643 174.422C656.187 174.422 654.207 173.162 654.207 171.272C654.207 169.346 656.187 168.086 659.643 168.086C663.117 168.086 665.115 169.346 665.115 171.272ZM652.335 160.94V159.41H660.777V160.94H657.573V160.994C657.573 163.388 659.355 165.152 661.227 165.728L660.201 167.186C658.887 166.664 657.303 165.404 656.619 163.91C656.151 165.476 654.423 167.042 652.821 167.654L651.705 166.214C653.955 165.386 655.665 163.46 655.665 161.084V160.94H652.335ZM660.525 163.802V162.272H663.135V158.384H664.989V168.032H663.135V163.802H660.525ZM659.643 169.598C657.429 169.598 656.115 170.21 656.115 171.272C656.115 172.316 657.429 172.928 659.643 172.928C661.911 172.928 663.225 172.316 663.225 171.272C663.225 170.21 661.911 169.598 659.643 169.598ZM684.427 162.452H679.657C680.215 164.126 682.717 165.206 685.129 165.44L684.319 166.916C682.123 166.664 679.549 165.386 678.613 163.856C677.785 165.422 675.319 166.664 672.889 166.97L672.061 165.494C674.563 165.206 677.047 164.144 677.587 162.452H672.781V160.994H684.427V162.452ZM679.495 174.422H677.659V169.436H671.359V167.978H685.849V169.436H679.495V174.422ZM675.985 159.95V158.474H681.205V159.95H675.985ZM687.114 162.92V161.462H695.574V162.92H692.298C692.37 165.152 694.134 166.52 695.97 167.024L695.016 168.464C693.756 168.032 692.046 166.772 691.362 165.368C690.822 166.826 689.166 168.374 687.51 168.914L686.466 167.492C688.68 166.772 690.318 165.134 690.408 162.92H687.114ZM699.786 158.384V170.03H697.932V165.494H695.34V163.946H697.932V158.384H699.786ZM700.128 173.954H689.31V169.04H691.182V172.478H700.128V173.954ZM689.058 160.382V158.906H693.612V160.382H689.058ZM718.972 171.488C718.972 173.288 716.92 174.422 713.41 174.422C709.9 174.422 707.848 173.288 707.848 171.488C707.848 169.868 709.522 168.788 712.456 168.59V167.222H706.156V165.746H720.646V167.222H714.292V168.59C717.262 168.752 718.972 169.868 718.972 171.488ZM719.89 163.442L719.08 164.882C716.686 164.594 714.274 163.244 713.41 161.696C712.636 163.352 710.386 164.594 707.74 164.882L706.93 163.442C709.468 163.262 711.862 162.128 712.366 160.346H707.65V158.852H719.188V160.346H714.49C715.066 162.128 717.73 163.298 719.89 163.442ZM717.064 171.488C717.064 170.552 715.624 170.03 713.392 170.03C711.16 170.03 709.738 170.552 709.738 171.488C709.738 172.46 711.16 172.928 713.392 172.928C715.642 172.928 717.064 172.46 717.064 171.488Z" fill="#646464"/>
<path opacity="0.2" d="M585 94H699V109H585V94Z" fill="#FF831C"/>
<path d="M555.5 90.492H549.546C550.326 92.52 552.926 93.716 556.462 93.976L555.11 96.732C552.484 96.576 548.584 95.172 547.258 92.702C545.958 95.224 542.214 96.602 539.406 96.81L538.08 94.054C541.59 93.664 544.216 92.546 545.022 90.492H538.99V87.788H555.5V90.492ZM548.948 107.002H545.542V100.346H536.78V97.668H557.71V100.346H548.948V107.002ZM543.54 86.826V84.148H551.028V86.826H543.54ZM576.982 94.73C576.982 96.966 574.174 98.474 569.26 98.474C564.346 98.474 561.564 96.966 561.564 94.73C561.564 92.468 564.346 90.934 569.26 90.934C574.174 90.934 576.982 92.468 576.982 94.73ZM570.898 107.002H567.492V101.906H558.756V99.202H579.686V101.906H570.898V107.002ZM578.542 90.414H559.926V87.71H578.542V90.414ZM564.996 86.826V84.174H573.472V86.826H564.996ZM573.316 94.756C573.316 94.106 571.73 93.534 569.26 93.534C566.79 93.534 565.23 94.106 565.23 94.756C565.23 95.406 566.79 96.004 569.26 96.004C571.73 96.004 573.316 95.406 573.316 94.756ZM587.952 88.36V85.578H600.172V88.36H595.856C595.908 92 598.222 94.158 601.082 95.146L599.236 97.824C597.468 97.226 594.998 95.276 594.14 93.352C593.542 95.38 590.838 97.59 588.576 98.266L586.86 95.588C590.318 94.392 592.268 91.974 592.268 88.412V88.36H587.952ZM606.308 100.684H602.798V92.754H599.522V90.05H602.798V83.888H606.308V100.684ZM606.672 106.482H590.448V99.124H593.906V103.804H606.672V106.482ZM611.41 98.76H617.754V95.094H609.018V92.39H623.448C623.734 91.194 623.994 88.854 623.968 87.346H611.826V84.642H627.4C627.452 87.294 627.27 90.18 626.75 92.39H629.948V95.094H621.212V98.76H627.322V107.028H623.89V101.49H611.41V98.76ZM631.904 87.866V85.084H644.124V87.866H639.834C640.094 91.194 642.304 93.248 645.086 94.158L643.188 96.888C641.42 96.29 638.95 94.262 638.092 92.338C637.52 94.392 634.79 96.628 632.554 97.356L630.812 94.626C634.114 93.482 636.116 91.194 636.246 87.866H631.904ZM634.452 98.526H650.234V107.08H646.776V101.282H634.452V98.526ZM650.26 97.564H646.75V92.104H643.708V89.348H646.75V83.888H650.26V97.564ZM673.901 104.116H652.971V101.36H673.901V104.116ZM672.055 91.662C672.055 95.328 668.649 97.954 663.423 97.954C658.223 97.954 654.817 95.328 654.817 91.662C654.817 87.97 658.223 85.37 663.423 85.37C668.649 85.37 672.055 87.97 672.055 91.662ZM668.571 91.688C668.571 89.478 666.569 88.074 663.423 88.074C660.303 88.074 658.301 89.478 658.301 91.688C658.301 93.82 660.303 95.25 663.423 95.25C666.491 95.25 668.571 93.82 668.571 91.688ZM693.875 98.11H687.115V101.49H695.877V104.194H674.947V101.49H683.709V98.11H677.573V90.206H689.845V87.97H677.547V85.214H693.277V92.962H681.005V95.38H693.875V98.11ZM550.456 123.868C550.456 126.65 547.934 128.704 544.216 128.704C540.472 128.704 538.002 126.65 538.002 123.868C538.002 121.008 540.472 118.85 544.216 118.85C548.012 118.85 550.456 121.008 550.456 123.868ZM548.532 135.958V133.41H553.082V117.888H556.566V141.054H553.082V135.958H548.532ZM545.828 140.378H542.37V132.526C540.238 132.604 538.288 132.63 536.884 132.63L536.468 129.874C539.224 129.874 541.954 129.796 544.138 129.718C547.128 129.562 549.858 129.406 551.47 129.172L551.678 131.798C549.676 132.058 547.856 132.24 545.828 132.344V140.378ZM546.946 123.842C546.946 122.62 545.88 121.658 544.216 121.658C542.63 121.658 541.512 122.62 541.512 123.842C541.512 125.012 542.604 125.974 544.216 125.974C545.906 125.974 546.946 125.012 546.946 123.842ZM568.87 120.514C568.896 122.646 568.766 124.57 568.35 126.312H570.56V118.304H573.732V140.014H570.56V129.016H567.492C566.14 132.24 563.826 134.736 560.446 136.712L558.418 134.112C561.33 132.604 563.15 130.68 564.242 128.444L559.172 129.042L558.782 126.208L565.1 125.87C565.308 125.012 565.438 124.154 565.49 123.244H560.056V120.514H568.87ZM578.516 141.054H575.292V117.888H578.516V141.054ZM599.972 141.054H596.54V117.888H599.972V141.054ZM581.356 127.742C581.356 122.88 583.618 119.37 587.414 119.37C591.262 119.37 593.524 122.88 593.524 127.742C593.524 132.5 591.262 136.036 587.414 136.036C583.618 136.036 581.356 132.526 581.356 127.742ZM590.3 127.742C590.3 124.206 589.078 122.412 587.414 122.412C585.854 122.412 584.632 124.206 584.632 127.742C584.632 131.226 585.854 133.046 587.414 133.046C589.078 133.046 590.3 131.226 590.3 127.742ZM618.464 123.998H615.084V121.216H618.464V117.888H621.974V134.684H618.464V128.522H615.084V125.766H618.464V123.998ZM622.39 140.456H606.322V133.306H609.754V137.778H622.39V140.456ZM616.488 129.354L614.668 132.214C612.9 131.642 610.482 129.562 609.676 127.69C609 129.718 606.504 131.954 604.242 132.708L602.5 129.9C605.932 128.6 607.96 125.922 607.96 122.724V119.448H611.496V122.542C611.496 125.896 613.576 128.34 616.488 129.354ZM649.428 136.244C649.428 139.104 646.334 140.898 641.212 140.898C636.116 140.898 633.048 139.104 633.048 136.244C633.048 133.332 636.116 131.486 641.212 131.486C646.334 131.486 649.428 133.332 649.428 136.244ZM631.41 122.1V119.318H643.63V122.1H639.366C639.73 125.324 641.914 127.326 644.618 128.236L642.772 130.94C641.004 130.368 638.534 128.34 637.676 126.416C637.078 128.47 634.374 130.706 632.138 131.408L630.396 128.678C633.646 127.586 635.596 125.35 635.83 122.1H631.41ZM652.418 126.312H649.194V131.2H645.788V117.888H649.194V123.53H652.418V126.312ZM641.212 134.268C638.274 134.268 636.532 135.022 636.532 136.244C636.532 137.414 638.274 138.194 641.212 138.194C644.254 138.194 645.918 137.414 645.918 136.244C645.918 135.074 644.254 134.268 641.212 134.268ZM673.355 127.95L671.821 130.836C668.961 130.29 664.697 128.028 663.397 124.648C662.175 128.028 657.989 130.264 655.025 130.836L653.491 127.976C657.287 127.534 661.577 124.648 661.577 120.41V119.188H665.269V120.41C665.269 124.674 669.507 127.508 673.355 127.95ZM673.901 138.194H652.971V135.49H661.655V130.238H665.061V135.49H673.901V138.194ZM693.789 127.586C693.789 129.094 692.255 130.238 689.863 130.628V131.33C691.683 131.226 693.503 131.044 695.271 130.836L695.479 133.462C691.111 134.008 686.041 134.268 681.439 134.268C681.283 133.41 681.127 132.474 680.997 131.564C682.791 131.564 684.611 131.538 686.379 131.486V130.602C684.039 130.212 682.583 129.068 682.583 127.56C682.583 125.636 684.819 124.258 688.173 124.258C691.501 124.258 693.789 125.636 693.789 127.586ZM699.795 117.888V125.246H702.473V128.054H699.795V134.086H696.389V117.888H699.795ZM683.623 135.022H699.795V141.236H696.389V137.7H683.623V135.022ZM694.673 123.92H681.673V121.398H694.673V123.92ZM685.157 120.696V118.252H691.605V120.696H685.157ZM690.357 127.586C690.357 126.962 689.707 126.546 688.173 126.546C686.639 126.546 685.963 126.962 685.963 127.586C685.963 128.08 686.613 128.548 688.173 128.548C689.707 128.548 690.357 128.08 690.357 127.586ZM722.993 141.054H719.717V129.614H718.001V139.988H714.777V118.278H718.001V126.858H719.717V117.888H722.993V141.054ZM707.263 133.046H707.783C709.135 133.046 712.177 132.916 713.659 132.578L713.997 135.178C712.073 135.594 708.381 135.802 706.327 135.802H703.831V120.592H712.619V123.27H707.263V133.046ZM737.117 132.864H734.803C734.023 134.97 732.645 136.478 730.461 136.478C726.743 136.478 725.417 132.032 725.417 127.924C725.417 123.92 726.743 119.552 730.461 119.552C732.567 119.552 733.919 120.93 734.699 122.88H737.117V118.33H740.315V140.014H737.117V132.864ZM744.969 141.054H741.693V117.888H744.969V141.054ZM732.385 127.976C732.385 125.246 731.943 122.75 730.487 122.75C729.109 122.75 728.693 125.246 728.693 127.976C728.693 130.732 729.109 133.176 730.487 133.176C731.943 133.176 732.385 130.732 732.385 127.976ZM735.583 127.976C735.583 128.678 735.531 129.406 735.427 130.134H737.117V125.61H735.401C735.531 126.39 735.583 127.196 735.583 127.976ZM766.555 136.296C766.555 139.078 763.487 140.82 758.365 140.82C753.269 140.82 750.201 139.078 750.201 136.296C750.201 133.462 753.269 131.694 758.365 131.694C763.487 131.694 766.555 133.462 766.555 136.296ZM748.069 122.178V119.37H760.289V122.178H756.025C756.363 125.376 758.521 127.274 761.251 128.158L759.379 130.862C757.585 130.29 755.141 128.392 754.283 126.442C753.685 128.522 750.981 130.81 748.745 131.512L747.003 128.782C750.253 127.69 752.177 125.402 752.411 122.178H748.069ZM759.769 126.052V123.27H762.941V117.888H766.425V131.772H762.941V126.052H759.769ZM758.365 134.424C755.427 134.424 753.685 135.126 753.685 136.296C753.685 137.414 755.427 138.116 758.365 138.116C761.381 138.116 763.071 137.414 763.071 136.296C763.071 135.126 761.381 134.424 758.365 134.424ZM770.617 132.656L770.071 119.422H773.945L773.529 132.656H770.617ZM770.331 138.298V134.996H773.815V138.298H770.331Z" fill="#222222"/>
<defs>
<linearGradient id="paint0_linear_720_16793" x1="-212" y1="224" x2="814" y2="224" gradientUnits="userSpaceOnUse">
<stop stop-color="white"/>
<stop offset="0.798419" stop-color="#FFF5DE"/>
<stop offset="1" stop-color="#FFF2D6"/>
</linearGradient>
</defs>
</svg>
