<svg width="20" height="26" viewBox="0 0 20 26" fill="none" xmlns="http://www.w3.org/2000/svg">
<path d="M19.9178 10.2367C19.9178 14.0459 15.1216 20.8175 12.1997 24.5894C11.0709 26.0465 8.9279 26.0464 7.79919 24.5894C4.87725 20.8175 0.0810547 14.0459 0.0810547 10.2367C0.0810547 4.75896 4.52166 0.318359 9.99942 0.318359C15.4772 0.318359 19.9178 4.75896 19.9178 10.2367Z" fill="#FF831C"/>
<path d="M14.4076 10.2367C14.4076 12.6713 12.434 14.6449 9.99944 14.6449C7.56488 14.6449 5.59128 12.6713 5.59128 10.2367C5.59128 7.80218 7.56488 5.82858 9.99944 5.82858C12.434 5.82858 14.4076 7.80218 14.4076 10.2367Z" fill="#FDC974"/>
</svg>
