<svg width="174" height="48" viewBox="0 0 174 48" fill="none" xmlns="http://www.w3.org/2000/svg">
<path d="M65.7209 25.4782L70.3486 30.6953H76.9874L69.462 22.3609L76.8144 15.3037H70.3486L65.7209 19.7632V10H60.3147V30.6953H65.7209V25.4782Z" fill="#222222"/>
<path fill-rule="evenodd" clip-rule="evenodd" d="M25.7368 19.4817C25.2394 20.5208 25.0015 21.7115 25.0015 23.032V23.0536C25.0015 24.3525 25.2394 25.5431 25.7368 26.5822C26.2125 27.6213 26.8829 28.5089 27.7262 29.2449C28.5696 29.9593 29.5427 30.5221 30.6672 30.9118C31.7917 31.3014 32.9594 31.4963 34.2353 31.4963C35.5111 31.4963 36.7221 31.3014 37.8466 30.9118C38.9711 30.5221 39.9658 29.9593 40.7876 29.2232C41.6093 28.4872 42.2581 27.5997 42.7554 26.5389C43.2528 25.4782 43.4907 24.3092 43.4907 23.0103C43.4907 21.7115 43.2312 20.5208 42.7554 19.4601C42.2797 18.3993 41.6093 17.5118 40.7876 16.7758C39.9442 16.0614 38.9711 15.4985 37.8466 15.1089C36.7221 14.7192 35.4895 14.5244 34.2353 14.5244C32.981 14.5244 31.7917 14.7192 30.6672 15.1089C29.5427 15.4985 28.5696 16.0614 27.7262 16.7974C26.9045 17.5334 26.2341 18.421 25.7368 19.4817ZM35.8571 26.7337C35.3814 26.9286 34.8408 27.0368 34.2569 27.0368C33.6514 27.0368 33.1108 26.9502 32.635 26.7337C32.1593 26.5173 31.7701 26.2358 31.4241 25.8895C31.0997 25.5431 30.8402 25.1102 30.6672 24.6339C30.4942 24.1577 30.4077 23.6381 30.4077 23.0536C30.4077 22.4691 30.4942 21.9496 30.6672 21.4517C30.8402 20.9754 31.0997 20.5425 31.4241 20.1745C31.7484 19.8064 32.1593 19.525 32.635 19.3085C33.1108 19.1137 33.673 19.0055 34.2569 19.0055C34.8408 19.0055 35.3814 19.1137 35.8571 19.3085C36.3329 19.5034 36.7437 19.8064 37.0681 20.1528C37.3925 20.4992 37.6304 20.9321 37.825 21.43C38.0196 21.9279 38.1061 22.4908 38.1061 23.0536C38.1061 23.6165 37.998 24.1577 37.825 24.6339C37.652 25.1102 37.3925 25.5431 37.0681 25.8895C36.7437 26.2358 36.3329 26.5173 35.8571 26.7337Z" fill="#222222"/>
<path d="M17.1085 23.3567L15.0109 15.3037H9.8642L7.74498 23.3567L5.51763 15.3037H0.695312L5.23651 30.7169H9.8642L12.4159 21.1053L14.9676 30.7169H19.5953L24.1798 15.3037H19.3575L17.1085 23.3567Z" fill="#222222"/>
<path d="M52.5298 15.6284C51.9329 15.8632 51.4201 16.1821 51.0327 16.6266L50.6917 15.3037H46.064V30.6736H51.4702V22.4475C51.4702 22.0795 51.5134 21.7115 51.6432 21.3867C51.7729 21.0404 51.9243 20.759 52.1406 20.5208C52.3568 20.2827 52.5947 20.0879 52.8758 19.958C53.1569 19.8064 53.4597 19.7415 53.7624 19.7415H56.8764L57.8062 15.2821H54.4328C53.7624 15.2821 53.1353 15.4119 52.5298 15.6284Z" fill="#222222"/>
<path d="M84.0154 30.6953L78.047 15.2821H83.6046L87.0861 24.7205L90.5677 15.2821H96.1253L90.1568 30.6953H84.0154Z" fill="#222222"/>
<path fill-rule="evenodd" clip-rule="evenodd" d="M115.415 15.3037H110.83L110.808 15.2821L110.333 16.3645C109.576 15.8233 108.776 15.4119 107.889 15.1522C107.003 14.8924 106.051 14.7625 105.056 14.7625C103.91 14.7625 102.851 14.9573 101.856 15.3687C100.861 15.78 99.9961 16.3428 99.2609 17.0788C98.5256 17.8149 97.9634 18.6808 97.5309 19.6982C97.12 20.7157 96.9038 21.863 96.9038 23.032C96.9038 24.201 97.12 25.2833 97.5093 26.2791C97.8985 27.2749 98.4607 28.1192 99.196 28.8552C99.9312 29.5696 100.796 30.1541 101.791 30.5654C102.807 30.9767 103.91 31.2148 105.121 31.2148C106.094 31.2365 107.024 31.1066 107.932 30.8035C108.841 30.5221 109.641 30.0675 110.376 29.4614L110.787 30.7169H115.415V15.3037ZM108.538 25.7163C107.889 26.409 107.003 26.7554 105.921 26.7554C104.84 26.7554 103.975 26.409 103.305 25.7163C102.634 25.0236 102.31 24.1793 102.31 23.032C102.31 21.8846 102.656 20.9538 103.305 20.2827C103.953 19.6116 104.84 19.2653 105.921 19.2653C107.003 19.2653 107.868 19.59 108.538 20.2827C109.208 20.9754 109.533 21.9279 109.533 23.032C109.533 24.136 109.187 25.0236 108.538 25.7163Z" fill="#222222"/>
<path d="M124.454 10V30.6953H119.047V10H124.454Z" fill="#222222"/>
<path d="M133.471 30.6953V10H128.065V30.6953H133.471Z" fill="#222222"/>
<path fill-rule="evenodd" clip-rule="evenodd" d="M141.775 25.8029C142.554 26.7987 143.678 27.2749 145.17 27.2749C146.208 27.2749 147.095 27.1234 147.852 26.7987C148.609 26.474 149.3 25.9544 149.949 25.2617L153.452 27.8594C152.458 29.0068 151.333 29.8943 150.057 30.5438C148.782 31.1932 147.289 31.4963 145.581 31.4963C144.175 31.4963 142.9 31.3014 141.732 30.9118C140.564 30.5221 139.569 29.9593 138.726 29.2449C137.883 28.5089 137.212 27.6213 136.758 26.5822C136.282 25.5431 136.066 24.3525 136.066 23.032C136.066 21.7115 136.304 20.5858 136.78 19.5467C137.256 18.5076 137.904 17.5984 138.748 16.8623C139.569 16.1263 140.542 15.5635 141.645 15.1522C142.748 14.7409 143.938 14.546 145.192 14.546C146.446 14.546 147.679 14.7409 148.782 15.1305C149.863 15.5202 150.814 16.083 151.593 16.7974C152.371 17.5334 152.977 18.421 153.431 19.4817C153.885 20.5425 154.101 21.7331 154.101 23.0753L141.797 25.8245L141.775 25.8029ZM145.386 18.6808C144.219 18.6808 143.246 18.9622 142.489 19.5467C141.732 20.1095 141.234 20.9105 141.04 21.9279L148.609 20.2394C148.263 19.7848 147.83 19.4168 147.289 19.1137C146.749 18.8107 146.122 18.6808 145.386 18.6808Z" fill="#222222"/>
<path d="M172.698 33.2714C173.109 32.3189 173.304 31.2798 173.304 30.1108V15.3037H167.898V23.6381C167.725 24.4174 167.357 25.0452 166.795 25.5215C166.233 25.9977 165.562 26.2358 164.784 26.2358C164.438 26.2358 164.113 26.1709 163.767 26.0627C163.443 25.9544 163.14 25.7596 162.881 25.4998C162.621 25.24 162.405 24.872 162.254 24.4391C162.102 24.0061 162.016 23.4649 162.016 22.8155V15.3037H156.61V24.504C156.61 25.4132 156.783 26.2575 157.15 27.0152C157.518 27.7728 158.015 28.4223 158.664 28.9851C159.313 29.5263 160.07 29.9593 160.956 30.2623C161.843 30.5654 162.794 30.7169 163.832 30.7169C164.546 30.7169 165.281 30.587 165.995 30.3273C166.708 30.0675 167.336 29.6778 167.876 29.2016V30.4139C167.876 30.9118 167.811 31.3447 167.638 31.7344C167.487 32.124 167.249 32.4488 166.968 32.7085C166.687 32.9683 166.341 33.1631 165.973 33.3147C165.606 33.4662 165.195 33.5311 164.762 33.5311C164.135 33.5311 163.573 33.3796 163.075 33.0332C162.556 32.6869 162.275 32.189 162.21 31.5396H156.804C156.891 32.7302 157.215 33.7476 157.734 34.5702C158.275 35.4145 158.924 36.0856 159.724 36.6051C160.524 37.1247 161.41 37.4927 162.405 37.7092C163.4 37.9256 164.395 38.0339 165.389 37.9906C166.514 37.9256 167.573 37.7092 168.547 37.3195C169.52 36.9299 170.363 36.3887 171.055 35.7176C171.747 35.0465 172.309 34.2239 172.698 33.2714Z" fill="#222222"/>
</svg>
