<svg width="816" height="449" viewBox="0 0 816 449" fill="none" xmlns="http://www.w3.org/2000/svg">
<rect x="1" y="1.28906" width="814" height="446" rx="11" fill="url(#paint0_linear_906_581)" stroke="#FF831C" stroke-width="2"/>
<path d="M721.773 318.37L702.046 326.589V352.892L693.827 364.4L679.031 391.524L676.565 406.32L686.429 408.786L706.156 369.331L714.376 364.4L729.171 403.032L739.035 409.608L745.61 403.032L725.883 357.002C725.609 351.248 725.226 338.097 725.883 331.521C726.541 324.945 723.417 320.014 721.773 318.37Z" fill="#FED39D"/>
<ellipse cx="701.689" cy="301.613" rx="12.0122" ry="12.0122" fill="#FED39D" stroke="#FF831C" stroke-width="4"/>
<path d="M714.651 364.905L725.395 358.468L747.202 402.067L736.536 408.682L714.651 364.905Z" fill="#FED39D"/>
<path d="M702.049 325.796L712.862 320.073C717.158 317.799 722.459 318.974 725.395 322.825M702.049 325.796V355.757L692.317 365.745L676.931 399.03C674.849 403.536 678.139 408.683 683.104 408.683C685.755 408.683 688.164 407.142 689.276 404.736L705.8 368.989L725.395 357.346M702.049 325.796L692.317 347.873L676.739 341.27M737.235 353.941V338.959L725.506 322.973C725.469 322.923 725.432 322.874 725.395 322.825M725.395 357.346V322.825M725.395 357.346L744.776 398.475C747.013 403.222 743.549 408.683 738.302 408.683C735.496 408.683 732.949 407.044 731.787 404.49L713.624 364.569M725.395 322.825V322.822M737.236 353.886L745.946 372.729M745.946 372.729L759.522 402.1L777.461 393.175C779.063 392.378 779.741 390.451 778.99 388.826L768.191 365.463C767.409 363.771 765.384 363.059 763.715 363.889L745.946 372.729ZM767.267 406.306C767.267 409.037 765.053 411.251 762.322 411.251C759.591 411.251 757.377 409.037 757.377 406.306C757.377 403.575 759.591 401.361 762.322 401.361C765.053 401.361 767.267 403.575 767.267 406.306Z" stroke="#FF831C" stroke-width="4" stroke-linecap="round" stroke-linejoin="round"/>
<path d="M766.16 363.578L747.255 372.619L759.584 401.388L780.133 390.702L766.16 363.578Z" fill="#FF831C"/>
<mask id="mask0_906_581" style="mask-type:alpha" maskUnits="userSpaceOnUse" x="2" y="2" width="812" height="445">
<rect x="2" y="2.28906" width="812" height="444" rx="10" fill="#D9D9D9"/>
</mask>
<g mask="url(#mask0_906_581)">
<path d="M204.792 572.821L192.149 567.317C190.53 566.615 188.652 566.773 187.19 567.762L170.691 578.855C168.512 580.317 165.588 579.93 163.868 577.938L160.743 574.312C158.78 572.033 155.282 571.904 153.146 574.025C150.451 576.72 145.85 575.673 144.589 572.076L139.945 558.832C139.658 558.001 139.572 557.112 139.73 556.238L144.402 528.934C144.531 528.217 144.79 527.543 145.205 526.927L157.662 508.251C158.321 507.262 158.622 506.087 158.507 504.912L156.371 481.133C156.328 480.732 156.257 480.345 156.128 479.958L150.236 462.271C149.878 461.182 149.878 460.006 150.265 458.931L154.967 445.43C155.569 443.681 157.06 442.405 158.866 442.047L167.781 440.313C170.218 439.84 171.967 437.704 171.967 435.225V429.835C171.967 428.058 171.05 426.41 169.545 425.45L158.178 418.269C157.475 417.824 156.887 417.208 156.472 416.491L151.53 399.507C151.114 398.79 150.526 398.174 149.824 397.73L122.575 380.501C120.883 379.441 118.733 379.427 117.042 380.501L101.002 390.592C99.8981 391.28 98.5794 391.538 97.2893 391.294L93.1324 390.52C90.839 390.09 85.3889 394.29 84.3569 396.382L81.2321 402.76C80.5154 404.222 79.1393 405.269 77.5482 405.57L68.102 407.361C66.5396 407.662 65.2065 408.651 64.4755 410.056L61.5513 415.674C59.4299 419.745 53.4669 419.258 52.0335 414.9L48.0342 402.732C47.5469 401.255 46.4288 400.08 44.9811 399.507L12.0986 386.808C9.63315 385.862 6.85233 386.908 5.63393 389.244L4.12885 392.125C3.45514 393.401 2.29408 394.347 0.903671 394.72L-18.9061 400.152C-22.2029 401.055 -25.4568 398.575 -25.4568 395.15V387.266C-25.4568 384.529 -27.5782 382.264 -30.316 382.092L-33.6559 381.877C-36.15 381.72 -38.4005 383.368 -39.0025 385.79L-41.855 397.199C-42.113 398.246 -42.7007 399.177 -43.5034 399.879L-59.443 413.553C-61.8941 415.646 -65.6353 415.029 -67.2837 412.249L-74.7375 399.621C-76.4862 396.655 -80.5858 396.196 -82.9509 398.676L-100.568 417.151C-101.743 418.383 -102.245 420.132 -101.886 421.809L-96.7833 445.802C-96.2243 448.411 -93.7732 450.174 -91.1214 449.873L-63.9152 446.748C-62.5535 446.591 -61.1917 446.978 -60.1167 447.823L-41.9983 462.07C-39.7622 463.833 -36.5084 463.461 -34.7309 461.225L-30.4737 455.85C-27.1769 451.693 -20.4972 454.588 -21.2855 459.849L-23.5217 474.683C-23.7367 476.16 -23.321 477.65 -22.3606 478.797L-11.6387 491.539C-10.2913 493.144 -10.0333 495.409 -11.008 497.272C-14.7062 504.324 -23.4643 521.194 -23.4643 522.742C-23.4643 524.29 -11.1227 534.409 -5.31734 539.124C-3.55424 540.558 -2.93787 542.951 -3.76926 545.058L-21.5149 589.591" fill="#C0C1C1"/>
<path d="M288.406 590.656L300.392 587.017C303.92 585.943 305.291 581.659 303.034 578.736L298.663 573.062C297.549 571.615 295.777 570.841 293.963 571.027L271.307 573.32C269.264 573.52 267.279 572.517 266.236 570.741L260.007 560.138C258.965 558.376 259.05 556.155 260.207 554.464L271.507 537.944C272.05 537.142 272.364 536.21 272.421 535.25L274.535 496.507C274.621 494.888 273.964 493.312 272.736 492.238L262.65 483.412C260.422 481.463 260.236 478.067 262.222 475.875L267.807 469.728C269.421 467.952 272.036 467.493 274.164 468.611C277.407 470.33 281.692 472.494 281.692 471.949C281.692 471.305 284.064 459.685 285.321 453.61C285.778 451.417 287.549 449.77 289.749 449.454L301.377 447.835C303.549 447.534 305.263 445.801 305.534 443.609L307.006 431.759C307.249 429.811 308.634 428.206 310.505 427.676L349.19 416.744C350.318 416.428 351.532 416.529 352.59 417.03L372.446 426.501C373.974 427.232 375.774 427.103 377.189 426.186L387.531 419.409C389.102 418.377 389.945 416.529 389.688 414.666L387.545 399.006C387.317 397.344 387.96 395.667 389.26 394.593L415.987 372.341C416.259 372.112 416.559 371.911 416.887 371.754L422.644 368.817C426.387 366.911 426.115 361.452 422.187 359.933L396.702 350.047C396.002 349.775 395.259 349.674 394.502 349.732L386.574 350.448C384.346 350.649 382.26 349.302 381.546 347.167L378.617 338.556C377.874 336.349 375.674 334.988 373.375 335.303L364.489 336.507C360.432 337.066 357.561 332.638 359.704 329.128L360.046 328.569C362.089 325.231 359.561 320.961 355.661 321.162L320.491 322.953C319.462 323.01 318.462 323.383 317.662 324.042L312.277 328.469C309.448 330.79 305.177 329.271 304.449 325.675C303.777 322.408 303.106 319.256 302.934 318.726C302.734 318.11 300.034 316.19 297.535 314.514C295.206 312.952 292.035 313.683 290.635 316.133L279.95 334.673C279.207 335.963 277.921 336.837 276.45 337.051L253.322 340.447C251.108 340.777 248.965 339.545 248.122 337.467L247.822 336.736C246.465 333.398 241.265 323.248 238.88 325.942L222.368 333.931C221.154 335.292 223.075 335.455 221.303 334.996L215.444 334.673C212.03 333.799 222.495 343.685 223.109 347.167C223.38 348.743 215.508 346.648 214.379 347.779C214.379 347.779 207.575 358.322 206.39 359.497C205.204 360.672 204.259 362.16 204.259 362.16L192.009 355.769C190.509 355.411 183.607 354.766 182.422 355.769L168.082 373.878C166.968 374.838 166.34 376.257 166.382 377.732L166.497 381.543C166.554 383.65 165.268 385.555 163.297 386.272L149.983 391.086C149.197 391.372 148.483 391.86 147.94 392.504L145.755 395.055C144.412 396.631 144.212 398.88 145.24 400.671L152.254 412.764C152.654 413.438 157.554 418.205 158.211 418.621L169.754 425.928C171.168 426.816 172.011 428.378 172.011 430.04V435.843C172.011 438.178 170.368 440.184 168.082 440.628L158.768 442.448C157.069 442.778 155.683 443.995 155.111 445.629L150.34 459.398C149.983 460.415 149.983 461.519 150.326 462.536L156.254 480.36C156.369 480.718 156.454 481.091 156.483 481.463L158.611 505.376C158.711 506.48 158.426 507.583 157.811 508.514L145.312 527.327C144.94 527.9 144.683 528.53 144.569 529.204L139.883 556.642C139.741 557.459 139.812 558.29 140.083 559.078L144.898 572.861C146.083 576.243 150.383 577.231 152.912 574.695L153.497 574.108C155.497 572.102 158.768 572.231 160.611 574.366L164.125 578.449C165.725 580.312 168.468 580.684 170.511 579.309L187.325 567.975C188.696 567.044 190.453 566.886 191.981 567.545L204.738 573.119" fill="#CBCBCC"/>
<path d="M570.249 566.845L589.738 506.553C591.027 502.556 589.466 498.199 585.943 495.941C582.006 493.425 580.588 488.349 582.621 484.151L599.074 450.202C600.119 448.03 600.291 445.543 599.532 443.256L580.731 386.617C580.387 385.582 580.244 384.489 580.316 383.396L581.676 362.058C581.862 359.153 580.559 356.364 578.211 354.667L569.075 347.995V347.779L567.715 347.995L557.72 356.234C557.09 356.752 556.546 357.356 556.088 358.032L553.023 362.575C550.518 366.285 545.577 367.407 541.725 365.12L535.425 361.382C531.945 359.311 527.478 360.016 524.8 363.064L524.184 363.754C521.922 366.328 518.328 367.277 515.092 366.141L496.677 359.728C493.956 358.779 490.949 359.283 488.687 361.08L478.385 352.885C475.593 355.099 471.726 355.315 468.705 353.431L466.385 351.979C462.448 349.52 457.293 350.714 454.801 354.625C452.639 358.033 448.386 359.442 444.634 357.975L430.831 352.612C428.597 351.735 426.091 351.864 423.957 352.957L412.187 358.967C411.629 359.255 411.113 359.6 410.626 360.003L385.668 380.809C383.42 382.679 382.303 385.583 382.689 388.488L384.25 399.977C384.694 403.226 388.925 418.266 386.19 420.063L379.388 424.52C376.925 426.145 373.804 426.347 371.14 425.081L354.258 417.015C352.411 416.137 350.306 415.951 348.344 416.511L313.147 426.476C309.882 427.396 307.477 430.2 307.061 433.579L306.217 440.366C305.744 444.177 302.78 447.182 299 447.714L292.57 448.605C288.862 449.123 285.869 451.927 285.11 455.608C283.807 461.935 281.988 470.951 281.988 471.526C281.988 471.943 279.44 470.764 276.79 469.398C273.239 467.586 268.915 468.377 266.223 471.339L264.934 472.762C261.583 476.443 261.913 482.181 265.65 485.459L271.693 490.751C273.755 492.548 274.857 495.208 274.714 497.94L272.738 534.06C272.652 535.685 272.122 537.253 271.206 538.604L261.741 552.466C259.794 555.313 259.665 559.037 261.412 562.013L265.335 568.7C267.096 571.69 270.418 573.387 273.855 573.028L292.313 571.158C295.363 570.856 298.341 572.136 300.217 574.581C303.997 579.513 301.706 586.717 295.778 588.514L288.718 590.656" fill="#D8D9D9"/>
<path d="M258.936 244.66L264.009 236.496C265.073 234.791 264.096 232.557 262.127 232.156L231.644 226.083C231.17 225.983 230.724 225.782 230.365 225.467L217.732 214.969C217.143 214.482 216.395 214.253 215.648 214.31L206.364 215.083C204.51 215.241 202.986 213.622 203.274 211.789L208.462 177.615C208.548 177.028 208.462 176.426 208.189 175.896L201.851 163.264C201.319 162.189 201.492 160.9 202.311 160.027L214.972 146.406C215.418 145.933 215.691 145.317 215.734 144.658L216.668 132.04C216.769 130.737 215.979 129.548 214.743 129.104L184.748 118.62C183.843 118.305 183.167 117.574 182.923 116.657L177.821 97.866C177.577 96.9637 176.916 96.2475 176.039 95.9181L158.146 89.301C157.327 89.0002 156.694 88.3414 156.407 87.5106L154.036 80.4066C153.619 79.1462 152.383 78.3441 151.061 78.4443L134.087 79.8193C132.636 79.9339 131.328 78.96 131.026 77.542L127.764 62.2167C127.563 61.257 126.887 60.4693 125.967 60.1256L115.979 56.33C115.404 56.1152 114.915 55.7285 114.585 55.2128C113.996 54.2962 112.946 52.692 111.753 50.8301C110.891 49.4981 109.109 49.1114 107.772 49.9564L86.9763 63.162C86.5308 63.4484 86.1571 63.8495 85.9272 64.3364L59.756 118.204C59.4254 118.892 58.8361 119.407 58.1176 119.665L30.7103 129.304C29.8049 129.62 29.115 130.379 28.8707 131.31L22.389 156.589C22.2597 157.091 22.274 157.62 22.4177 158.122L26.1257 170.511C26.255 170.926 26.2838 171.356 26.2119 171.786L24.128 185.006C24.013 185.693 24.1711 186.409 24.5448 186.996L30.7535 196.693C32.1763 198.927 30.0923 201.735 27.5341 201.004L17.4163 198.14C16.0941 197.767 15.2174 196.521 15.318 195.146L16.3528 181.554C16.4821 179.778 14.9875 178.303 13.2054 178.474L-2.44564 179.95C-3.95469 180.093 -5.10444 181.382 -5.06133 182.9L-4.29962 209.841C-4.27087 210.901 -3.65288 211.861 -2.70433 212.333L12.4149 219.867C13.0329 220.182 13.5215 220.698 13.7946 221.342L33.6709 269.424C33.7428 269.581 33.7859 269.753 33.829 269.925L38.7011 292.842C39.0173 294.317 38.1406 295.778 36.689 296.207L14.6857 302.61C12.8461 303.14 12.0269 305.274 13.0329 306.892L29.2013 332.931C29.3737 333.217 29.6037 333.461 29.8624 333.676L54.8839 353.484C55.66 354.1 56.0624 355.045 55.9618 356.019L54.3234 372.333C54.2228 373.364 54.6827 374.367 55.5162 374.968L73.2655 387.558C74.056 388.117 75.0764 388.245 75.9962 387.887L83.6995 384.894C86.1571 383.934 88.4997 386.484 87.3356 388.847C86.4877 390.551 87.5225 392.6 89.3908 392.943L94.5934 393.917C95.312 394.046 96.045 393.917 96.663 393.531L114.743 382.201C115.691 381.614 116.884 381.614 117.818 382.201L145.326 399.532C146.533 400.291 148.129 400.062 149.063 398.973L152.239 395.292C152.57 394.92 152.986 394.633 153.446 394.461L168.695 388.976C169.873 388.546 170.635 387.429 170.606 386.183L170.42 379.981C170.391 379.107 170.765 378.277 171.426 377.704L189.247 362.55C189.951 361.949 190.885 361.734 191.791 361.935L204.984 365.043C205.947 365.272 206.967 364.985 207.672 364.298L222.503 349.774C223.179 349.116 223.495 348.156 223.323 347.225L222.604 343.157C222.245 341.095 224.127 339.348 226.168 339.863L231.586 341.252C232.636 341.525 233.742 341.181 234.461 340.379L244.55 329.078C244.88 328.706 245.11 328.262 245.211 327.775L256.766 274.236C256.795 274.093 256.809 273.95 256.823 273.807L258.534 246.035C258.562 245.562 258.706 245.104 258.965 244.688L258.936 244.66Z" fill="#DEDFDF"/>
<path d="M557.221 298.618L545.823 267.691C545.708 267.39 545.579 267.118 545.421 266.845L524.717 232.349C524.603 232.163 524.488 231.991 524.345 231.819L505.748 208.301C505.003 207.369 504.63 206.194 504.659 205.005L505.117 191.089C505.16 189.914 504.773 188.753 504.056 187.821L416.982 76.5799C416.738 76.2646 416.523 75.9063 416.351 75.548L367.66 -32.7411C366.14 -36.109 361.623 -36.7539 359.229 -33.945L355.358 -29.3875C354.755 -28.6709 354.354 -27.7967 354.211 -26.8795L347.787 15.9431C347.543 17.6056 346.468 19.0387 344.948 19.7553L301.074 40.3211C300.286 40.6937 299.411 40.8513 298.536 40.7797L270.907 38.6156C270.276 38.5726 269.631 38.63 269.029 38.8163L257.601 42.3275C255.824 42.8721 253.874 42.3992 252.554 41.0807L251.795 40.3211C251.02 39.5472 250.002 39.0312 248.898 38.8879L204.264 32.8973C203.117 32.7397 201.942 32.9977 200.952 33.5996L189.912 40.3927C188.277 41.3959 186.213 41.3816 184.578 40.3641L177.252 35.7493C176.492 35.262 175.603 35.0041 174.699 34.9754L134.797 33.8862C133.793 33.8576 132.804 34.1299 131.944 34.6745L114.437 45.8244C112.086 47.3292 111.412 50.4678 112.917 52.8038C113.39 53.5491 113.821 54.194 114.165 54.7243C114.752 55.6272 115.598 56.3151 116.602 56.702L124.818 59.8263C126.424 60.4282 127.599 61.8184 127.958 63.4808L130.582 75.8203C131.112 78.2997 133.392 80.0051 135.915 79.7901L149.264 78.7009C151.572 78.5146 153.723 79.9335 154.454 82.1262L155.96 86.6406C156.447 88.0881 157.551 89.2346 158.985 89.7649L174.828 95.6408C176.348 96.2141 177.51 97.4753 177.94 99.0517L182.442 115.691C182.872 117.296 184.076 118.586 185.639 119.13L212.939 128.704C215.089 129.463 216.466 131.556 216.294 133.834L215.534 144.067C215.448 145.199 214.975 146.274 214.2 147.12L203.103 159.101C201.683 160.634 201.354 162.899 202.3 164.776L207.648 175.482C208.107 176.413 208.279 177.46 208.121 178.491L203.447 209.304C202.96 212.515 205.598 215.352 208.852 215.08L214.516 214.607C215.835 214.492 217.14 214.908 218.158 215.753L229.671 225.341C230.316 225.872 231.091 226.244 231.908 226.416L258.734 231.776C262.175 232.464 263.881 236.377 262.032 239.372L258.892 244.445C258.447 245.147 258.204 245.964 258.146 246.781L256.483 273.868C256.469 274.126 256.44 274.369 256.383 274.613L245.056 327.253C244.841 328.242 244.927 329.274 245.314 330.205L247.938 336.64C248.812 338.79 251.035 340.065 253.329 339.721L276.341 336.353C277.861 336.124 279.194 335.221 279.969 333.888L290.564 315.573C292.027 313.05 295.31 312.291 297.733 313.91C300.156 315.53 302.795 317.421 302.995 318.023C303.167 318.539 303.813 321.549 304.458 324.716C305.218 328.414 309.648 329.99 312.587 327.597L317.749 323.383C318.581 322.71 319.613 322.308 320.688 322.251L355.63 320.474C359.673 320.273 362.297 324.688 360.175 328.141C357.953 331.767 360.935 336.339 365.15 335.766L373.595 334.619C375.976 334.29 378.255 335.708 379.044 337.987L381.897 346.342C382.643 348.535 384.808 349.94 387.116 349.725L394.902 349.022C395.676 348.951 396.45 349.065 397.181 349.338L452.841 370.878C455.078 371.738 457.616 370.907 458.906 368.886L462.218 363.669C463.695 361.333 466.778 360.645 469.129 362.093L476.37 366.593C478.176 367.711 480.485 367.582 482.148 366.278L490.106 360C491.453 358.94 493.26 358.639 494.88 359.198L517.247 366.965C519.183 367.639 521.319 367.08 522.667 365.547L526.667 361.032C528.273 359.226 530.926 358.811 533.005 360.029L544.504 366.837C546.798 368.198 549.751 367.524 551.243 365.332L556.39 357.736C556.662 357.335 556.992 356.976 557.365 356.675L567.746 348.148L569.108 347.933V308.679C569.108 306.658 567.889 304.824 566.025 304.036L559.974 301.485C558.684 300.94 557.68 299.894 557.207 298.59L557.221 298.618Z" fill="#FEE0AA" stroke="#FF831C" stroke-width="2" stroke-miterlimit="10"/>
<path d="M53.6456 223.611L56.9093 224.744C60.216 225.891 63.7803 223.852 64.3958 220.439L66.3713 209.662C66.9009 206.788 69.5491 204.791 72.4979 205.06L77.823 205.541C79.6123 205.697 81.2012 206.688 82.146 208.189L85.6531 213.84C86.6408 215.412 88.3299 216.417 90.2051 216.516L105.636 217.309C108.657 217.465 111.033 219.929 111.033 222.931C111.033 225.792 113.194 228.199 116.072 228.525L121.984 229.204C126.035 229.672 128.296 234.076 126.278 237.588L110.46 265.046C108.728 268.062 104.663 268.813 101.929 266.632L94.9003 260.982C93.6692 259.99 92.0803 259.566 90.52 259.778L65.2261 263.332C62.1628 263.757 59.3142 261.69 58.8131 258.673L58.2119 255.048C57.8684 252.995 56.4226 251.296 54.4329 250.63L50.4963 249.313C48.2633 248.563 46.7316 246.523 46.6457 244.201L46.0731 229.134C45.93 225.169 49.8665 222.294 53.6456 223.611Z" fill="#C9C9CA"/>
</g>
<ellipse opacity="0.3" cx="357" cy="185.289" rx="16" ry="6" fill="#FF831C"/>
<path d="M382 140.744C382 151.752 366.671 172.834 360.019 181.463C358.479 183.462 355.521 183.462 353.981 181.463C347.329 172.834 332 151.752 332 140.744C332 126.685 343.193 115.289 357 115.289C370.807 115.289 382 126.685 382 140.744Z" fill="#FF831C"/>
<circle cx="357" cy="140.289" r="10" fill="white"/>
<rect x="536" y="63.2891" width="44" height="6" rx="3" fill="#FF831C"/>
<path d="M543.47 160.509H538.772V159.033H543.47V160.509ZM545.234 162.957H536.594V161.517H545.234V162.957ZM550.094 174.243H539.276V169.941H541.13V172.767H550.094V174.243ZM549.734 170.481H547.898V167.835H545.576V166.341H547.898V164.523H545.576V163.011H547.898V158.673H549.734V170.481ZM544.856 166.359C544.856 168.033 543.254 169.131 541.094 169.131C538.952 169.131 537.332 168.033 537.332 166.359C537.332 164.721 538.934 163.569 541.094 163.569C543.254 163.569 544.856 164.721 544.856 166.359ZM543.11 166.359C543.11 165.513 542.192 164.973 541.094 164.973C539.978 164.973 539.078 165.513 539.078 166.359C539.078 167.205 539.978 167.727 541.094 167.727C542.192 167.727 543.11 167.205 543.11 166.359ZM565.272 174.711H563.508V166.593H561.924V173.955H560.178V158.997H561.924V165.045H563.508V158.673H565.272V174.711ZM559.692 169.617L558.612 170.949C557.532 170.265 556.128 168.555 555.696 167.025C555.336 168.609 553.95 170.445 552.564 171.309L551.412 170.067C553.536 168.663 554.814 166.341 554.814 163.155V162.039H551.988V160.563H559.242V162.039H556.614V163.101C556.614 166.287 557.892 168.573 559.692 169.617ZM586.151 164.091H583.793V168.159H581.939V158.673H583.793V162.561H586.151V164.091ZM579.329 159.825C579.257 164.145 576.323 166.899 572.129 168.141L571.175 166.647C574.001 166.053 576.827 164.145 577.277 161.355H571.967V159.825H579.329ZM584.009 171.507C584.009 173.433 581.993 174.693 578.555 174.693C575.135 174.693 573.137 173.433 573.137 171.507C573.137 169.563 575.135 168.321 578.555 168.321C581.993 168.321 584.009 169.563 584.009 171.507ZM582.119 171.507C582.119 170.427 580.787 169.797 578.555 169.797C576.323 169.797 575.027 170.427 575.027 171.507C575.027 172.569 576.323 173.217 578.555 173.217C580.787 173.217 582.119 172.569 582.119 171.507ZM595.497 162.021C595.497 163.767 593.841 164.937 591.519 164.937C589.215 164.937 587.505 163.785 587.505 161.985C587.505 160.275 589.215 159.033 591.519 159.033C593.841 159.033 595.497 160.275 595.497 162.021ZM594.993 169.329V167.979H598.125V158.673H599.961V171.039H598.125V169.329H594.993ZM600.249 174.297H588.639V169.581H590.475V172.821H600.249V174.297ZM592.941 170.229H591.087V167.313C589.593 167.385 588.117 167.421 586.623 167.439L586.371 165.909C588.189 165.909 589.935 165.891 591.699 165.819C593.859 165.747 595.551 165.621 596.973 165.459L597.099 166.827C595.731 166.989 594.327 167.115 592.941 167.205V170.229ZM593.679 162.021C593.679 161.175 592.851 160.455 591.519 160.455C590.187 160.455 589.341 161.175 589.341 162.021C589.341 162.849 590.187 163.533 591.519 163.533C592.851 163.533 593.679 162.849 593.679 162.021ZM611.791 169.491L610.711 170.841C609.217 170.013 607.273 167.961 606.751 166.305C606.337 168.033 604.717 170.157 602.809 171.165L601.639 169.815C604.195 168.375 605.797 165.837 605.797 162.597V161.805H602.449V160.347H610.963V161.805H607.705V162.579C607.705 165.819 609.433 168.213 611.791 169.491ZM614.977 174.711H613.141V158.673H614.977V174.711ZM625.332 163.371C625.332 165.639 623.532 167.151 621.228 167.151C618.996 167.151 617.142 165.639 617.142 163.371C617.142 161.157 618.96 159.501 621.228 159.501C623.496 159.501 625.332 161.121 625.332 163.371ZM619.158 168.753H630.192V174.729H628.338V170.247H619.158V168.753ZM625.8 165.981L625.872 164.469H628.338V162.237H625.872L625.8 160.725H628.338V158.673H630.192V167.907H628.338V165.981H625.8ZM623.532 163.353C623.532 162.093 622.686 161.013 621.228 161.013C619.878 161.013 618.96 162.111 618.96 163.353C618.96 164.703 619.896 165.711 621.228 165.711C622.614 165.711 623.532 164.667 623.532 163.353ZM645.724 162.957H636.436V161.499H645.724V162.957ZM644.878 166.359C644.878 168.051 643.258 169.149 641.116 169.149C638.956 169.149 637.318 168.051 637.318 166.359C637.318 164.703 638.938 163.569 641.116 163.569C643.258 163.569 644.878 164.703 644.878 166.359ZM643.114 166.359C643.114 165.513 642.196 164.973 641.116 164.973C639.982 164.973 639.082 165.513 639.082 166.359C639.082 167.223 639.982 167.727 641.116 167.727C642.196 167.727 643.114 167.223 643.114 166.359ZM638.758 160.509V159.033H643.456V160.509H638.758ZM649.018 158.673V163.695H651.394V165.225H649.018V170.535H647.164V158.673H649.018ZM649.486 174.279H638.758V169.977H640.612V172.803H649.486V174.279ZM665.115 171.561C665.115 173.451 663.117 174.711 659.643 174.711C656.187 174.711 654.207 173.451 654.207 171.561C654.207 169.635 656.187 168.375 659.643 168.375C663.117 168.375 665.115 169.635 665.115 171.561ZM652.335 161.229V159.699H660.777V161.229H657.573V161.283C657.573 163.677 659.355 165.441 661.227 166.017L660.201 167.475C658.887 166.953 657.303 165.693 656.619 164.199C656.151 165.765 654.423 167.331 652.821 167.943L651.705 166.503C653.955 165.675 655.665 163.749 655.665 161.373V161.229H652.335ZM660.525 164.091V162.561H663.135V158.673H664.989V168.321H663.135V164.091H660.525ZM659.643 169.887C657.429 169.887 656.115 170.499 656.115 171.561C656.115 172.605 657.429 173.217 659.643 173.217C661.911 173.217 663.225 172.605 663.225 171.561C663.225 170.499 661.911 169.887 659.643 169.887ZM684.427 162.741H679.657C680.215 164.415 682.717 165.495 685.129 165.729L684.319 167.205C682.123 166.953 679.549 165.675 678.613 164.145C677.785 165.711 675.319 166.953 672.889 167.259L672.061 165.783C674.563 165.495 677.047 164.433 677.587 162.741H672.781V161.283H684.427V162.741ZM679.495 174.711H677.659V169.725H671.359V168.267H685.849V169.725H679.495V174.711ZM675.985 160.239V158.763H681.205V160.239H675.985ZM687.114 163.209V161.751H695.574V163.209H692.298C692.37 165.441 694.134 166.809 695.97 167.313L695.016 168.753C693.756 168.321 692.046 167.061 691.362 165.657C690.822 167.115 689.166 168.663 687.51 169.203L686.466 167.781C688.68 167.061 690.318 165.423 690.408 163.209H687.114ZM699.786 158.673V170.319H697.932V165.783H695.34V164.235H697.932V158.673H699.786ZM700.128 174.243H689.31V169.329H691.182V172.767H700.128V174.243ZM689.058 160.671V159.195H693.612V160.671H689.058ZM718.972 171.777C718.972 173.577 716.92 174.711 713.41 174.711C709.9 174.711 707.848 173.577 707.848 171.777C707.848 170.157 709.522 169.077 712.456 168.879V167.511H706.156V166.035H720.646V167.511H714.292V168.879C717.262 169.041 718.972 170.157 718.972 171.777ZM719.89 163.731L719.08 165.171C716.686 164.883 714.274 163.533 713.41 161.985C712.636 163.641 710.386 164.883 707.74 165.171L706.93 163.731C709.468 163.551 711.862 162.417 712.366 160.635H707.65V159.141H719.188V160.635H714.49C715.066 162.417 717.73 163.587 719.89 163.731ZM717.064 171.777C717.064 170.841 715.624 170.319 713.392 170.319C711.16 170.319 709.738 170.841 709.738 171.777C709.738 172.749 711.16 173.217 713.392 173.217C715.642 173.217 717.064 172.749 717.064 171.777Z" fill="#646464"/>
<path opacity="0.2" d="M585 94.2891H699V109.289H585V94.2891Z" fill="#FF831C"/>
<path d="M555.5 90.7811H549.546C550.326 92.8091 552.926 94.0051 556.462 94.2651L555.11 97.0211C552.484 96.8651 548.584 95.4611 547.258 92.9911C545.958 95.5131 542.214 96.8911 539.406 97.0991L538.08 94.3431C541.59 93.9531 544.216 92.8351 545.022 90.7811H538.99V88.0771H555.5V90.7811ZM548.948 107.291H545.542V100.635H536.78V97.9571H557.71V100.635H548.948V107.291ZM543.54 87.1151V84.4371H551.028V87.1151H543.54ZM576.982 95.0191C576.982 97.2551 574.174 98.7631 569.26 98.7631C564.346 98.7631 561.564 97.2551 561.564 95.0191C561.564 92.7571 564.346 91.2231 569.26 91.2231C574.174 91.2231 576.982 92.7571 576.982 95.0191ZM570.898 107.291H567.492V102.195H558.756V99.4911H579.686V102.195H570.898V107.291ZM578.542 90.7031H559.926V87.9991H578.542V90.7031ZM564.996 87.1151V84.4631H573.472V87.1151H564.996ZM573.316 95.0451C573.316 94.3951 571.73 93.8231 569.26 93.8231C566.79 93.8231 565.23 94.3951 565.23 95.0451C565.23 95.6951 566.79 96.2931 569.26 96.2931C571.73 96.2931 573.316 95.6951 573.316 95.0451ZM587.952 88.6491V85.8671H600.172V88.6491H595.856C595.908 92.2891 598.222 94.4471 601.082 95.4351L599.236 98.1131C597.468 97.5151 594.998 95.5651 594.14 93.6411C593.542 95.6691 590.838 97.8791 588.576 98.5551L586.86 95.8771C590.318 94.6811 592.268 92.2631 592.268 88.7011V88.6491H587.952ZM606.308 100.973H602.798V93.0431H599.522V90.3391H602.798V84.1771H606.308V100.973ZM606.672 106.771H590.448V99.4131H593.906V104.093H606.672V106.771ZM611.41 99.0491H617.754V95.3831H609.018V92.6791H623.448C623.734 91.4831 623.994 89.1431 623.968 87.6351H611.826V84.9311H627.4C627.452 87.5831 627.27 90.4691 626.75 92.6791H629.948V95.3831H621.212V99.0491H627.322V107.317H623.89V101.779H611.41V99.0491ZM631.904 88.1551V85.3731H644.124V88.1551H639.834C640.094 91.4831 642.304 93.5371 645.086 94.4471L643.188 97.1771C641.42 96.5791 638.95 94.5511 638.092 92.6271C637.52 94.6811 634.79 96.9171 632.554 97.6451L630.812 94.9151C634.114 93.7711 636.116 91.4831 636.246 88.1551H631.904ZM634.452 98.8151H650.234V107.369H646.776V101.571H634.452V98.8151ZM650.26 97.8531H646.75V92.3931H643.708V89.6371H646.75V84.1771H650.26V97.8531ZM673.901 104.405H652.971V101.649H673.901V104.405ZM672.055 91.9511C672.055 95.6171 668.649 98.2431 663.423 98.2431C658.223 98.2431 654.817 95.6171 654.817 91.9511C654.817 88.2591 658.223 85.6591 663.423 85.6591C668.649 85.6591 672.055 88.2591 672.055 91.9511ZM668.571 91.9771C668.571 89.7671 666.569 88.3631 663.423 88.3631C660.303 88.3631 658.301 89.7671 658.301 91.9771C658.301 94.1091 660.303 95.5391 663.423 95.5391C666.491 95.5391 668.571 94.1091 668.571 91.9771ZM693.875 98.3991H687.115V101.779H695.877V104.483H674.947V101.779H683.709V98.3991H677.573V90.4951H689.845V88.2591H677.547V85.5031H693.277V93.2511H681.005V95.6691H693.875V98.3991ZM550.456 124.157C550.456 126.939 547.934 128.993 544.216 128.993C540.472 128.993 538.002 126.939 538.002 124.157C538.002 121.297 540.472 119.139 544.216 119.139C548.012 119.139 550.456 121.297 550.456 124.157ZM548.532 136.247V133.699H553.082V118.177H556.566V141.343H553.082V136.247H548.532ZM545.828 140.667H542.37V132.815C540.238 132.893 538.288 132.919 536.884 132.919L536.468 130.163C539.224 130.163 541.954 130.085 544.138 130.007C547.128 129.851 549.858 129.695 551.47 129.461L551.678 132.087C549.676 132.347 547.856 132.529 545.828 132.633V140.667ZM546.946 124.131C546.946 122.909 545.88 121.947 544.216 121.947C542.63 121.947 541.512 122.909 541.512 124.131C541.512 125.301 542.604 126.263 544.216 126.263C545.906 126.263 546.946 125.301 546.946 124.131ZM568.87 120.803C568.896 122.935 568.766 124.859 568.35 126.601H570.56V118.593H573.732V140.303H570.56V129.305H567.492C566.14 132.529 563.826 135.025 560.446 137.001L558.418 134.401C561.33 132.893 563.15 130.969 564.242 128.733L559.172 129.331L558.782 126.497L565.1 126.159C565.308 125.301 565.438 124.443 565.49 123.533H560.056V120.803H568.87ZM578.516 141.343H575.292V118.177H578.516V141.343ZM599.972 141.343H596.54V118.177H599.972V141.343ZM581.356 128.031C581.356 123.169 583.618 119.659 587.414 119.659C591.262 119.659 593.524 123.169 593.524 128.031C593.524 132.789 591.262 136.325 587.414 136.325C583.618 136.325 581.356 132.815 581.356 128.031ZM590.3 128.031C590.3 124.495 589.078 122.701 587.414 122.701C585.854 122.701 584.632 124.495 584.632 128.031C584.632 131.515 585.854 133.335 587.414 133.335C589.078 133.335 590.3 131.515 590.3 128.031ZM618.464 124.287H615.084V121.505H618.464V118.177H621.974V134.973H618.464V128.811H615.084V126.055H618.464V124.287ZM622.39 140.745H606.322V133.595H609.754V138.067H622.39V140.745ZM616.488 129.643L614.668 132.503C612.9 131.931 610.482 129.851 609.676 127.979C609 130.007 606.504 132.243 604.242 132.997L602.5 130.189C605.932 128.889 607.96 126.211 607.96 123.013V119.737H611.496V122.831C611.496 126.185 613.576 128.629 616.488 129.643ZM649.428 136.533C649.428 139.393 646.334 141.187 641.212 141.187C636.116 141.187 633.048 139.393 633.048 136.533C633.048 133.621 636.116 131.775 641.212 131.775C646.334 131.775 649.428 133.621 649.428 136.533ZM631.41 122.389V119.607H643.63V122.389H639.366C639.73 125.613 641.914 127.615 644.618 128.525L642.772 131.229C641.004 130.657 638.534 128.629 637.676 126.705C637.078 128.759 634.374 130.995 632.138 131.697L630.396 128.967C633.646 127.875 635.596 125.639 635.83 122.389H631.41ZM652.418 126.601H649.194V131.489H645.788V118.177H649.194V123.819H652.418V126.601ZM641.212 134.557C638.274 134.557 636.532 135.311 636.532 136.533C636.532 137.703 638.274 138.483 641.212 138.483C644.254 138.483 645.918 137.703 645.918 136.533C645.918 135.363 644.254 134.557 641.212 134.557ZM673.355 128.239L671.821 131.125C668.961 130.579 664.697 128.317 663.397 124.937C662.175 128.317 657.989 130.553 655.025 131.125L653.491 128.265C657.287 127.823 661.577 124.937 661.577 120.699V119.477H665.269V120.699C665.269 124.963 669.507 127.797 673.355 128.239ZM673.901 138.483H652.971V135.779H661.655V130.527H665.061V135.779H673.901V138.483ZM693.789 127.875C693.789 129.383 692.255 130.527 689.863 130.917V131.619C691.683 131.515 693.503 131.333 695.271 131.125L695.479 133.751C691.111 134.297 686.041 134.557 681.439 134.557C681.283 133.699 681.127 132.763 680.997 131.853C682.791 131.853 684.611 131.827 686.379 131.775V130.891C684.039 130.501 682.583 129.357 682.583 127.849C682.583 125.925 684.819 124.547 688.173 124.547C691.501 124.547 693.789 125.925 693.789 127.875ZM699.795 118.177V125.535H702.473V128.343H699.795V134.375H696.389V118.177H699.795ZM683.623 135.311H699.795V141.525H696.389V137.989H683.623V135.311ZM694.673 124.209H681.673V121.687H694.673V124.209ZM685.157 120.985V118.541H691.605V120.985H685.157ZM690.357 127.875C690.357 127.251 689.707 126.835 688.173 126.835C686.639 126.835 685.963 127.251 685.963 127.875C685.963 128.369 686.613 128.837 688.173 128.837C689.707 128.837 690.357 128.369 690.357 127.875ZM722.993 141.343H719.717V129.903H718.001V140.277H714.777V118.567H718.001V127.147H719.717V118.177H722.993V141.343ZM707.263 133.335H707.783C709.135 133.335 712.177 133.205 713.659 132.867L713.997 135.467C712.073 135.883 708.381 136.091 706.327 136.091H703.831V120.881H712.619V123.559H707.263V133.335ZM737.117 133.153H734.803C734.023 135.259 732.645 136.767 730.461 136.767C726.743 136.767 725.417 132.321 725.417 128.213C725.417 124.209 726.743 119.841 730.461 119.841C732.567 119.841 733.919 121.219 734.699 123.169H737.117V118.619H740.315V140.303H737.117V133.153ZM744.969 141.343H741.693V118.177H744.969V141.343ZM732.385 128.265C732.385 125.535 731.943 123.039 730.487 123.039C729.109 123.039 728.693 125.535 728.693 128.265C728.693 131.021 729.109 133.465 730.487 133.465C731.943 133.465 732.385 131.021 732.385 128.265ZM735.583 128.265C735.583 128.967 735.531 129.695 735.427 130.423H737.117V125.899H735.401C735.531 126.679 735.583 127.485 735.583 128.265ZM766.555 136.585C766.555 139.367 763.487 141.109 758.365 141.109C753.269 141.109 750.201 139.367 750.201 136.585C750.201 133.751 753.269 131.983 758.365 131.983C763.487 131.983 766.555 133.751 766.555 136.585ZM748.069 122.467V119.659H760.289V122.467H756.025C756.363 125.665 758.521 127.563 761.251 128.447L759.379 131.151C757.585 130.579 755.141 128.681 754.283 126.731C753.685 128.811 750.981 131.099 748.745 131.801L747.003 129.071C750.253 127.979 752.177 125.691 752.411 122.467H748.069ZM759.769 126.341V123.559H762.941V118.177H766.425V132.061H762.941V126.341H759.769ZM758.365 134.713C755.427 134.713 753.685 135.415 753.685 136.585C753.685 137.703 755.427 138.405 758.365 138.405C761.381 138.405 763.071 137.703 763.071 136.585C763.071 135.415 761.381 134.713 758.365 134.713ZM770.617 132.945L770.071 119.711H773.945L773.529 132.945H770.617ZM770.331 138.587V135.285H773.815V138.587H770.331Z" fill="#222222"/>
<defs>
<linearGradient id="paint0_linear_906_581" x1="-212" y1="224.289" x2="814" y2="224.289" gradientUnits="userSpaceOnUse">
<stop stop-color="white"/>
<stop offset="0.798419" stop-color="#FFF5DE"/>
<stop offset="1" stop-color="#FFF2D6"/>
</linearGradient>
</defs>
</svg>
