<svg width="1229" height="259" viewBox="0 0 1229 259" fill="none" xmlns="http://www.w3.org/2000/svg">
<rect x="0.644531" y="0.932617" width="1228" height="258" fill="#FFFAF0"/>
<path d="M480.836 203.447C480.836 203.447 565.524 166.494 614.643 166.494C663.763 166.494 675.957 182.072 719.679 182.072C763.4 182.072 759.52 164.442 827.707 164.442C895.894 164.442 956.483 129.54 1012.83 129.54C1069.18 129.54 1144.83 130.621 1195.14 149.587C1207.72 154.329 1219.14 159.76 1228.64 165.702V203.447H480.844" fill="#DDF3D0"/>
<path d="M1228.63 203.771H0.644531V258.933H1228.63V203.771Z" fill="#C2E9F9"/>
<path d="M806.982 191.546V200.28C806.982 202.025 808.407 203.446 810.155 203.446H860.425C867.009 203.446 872.347 198.117 872.347 191.546C872.347 189.801 870.923 188.379 869.175 188.379H810.155C808.407 188.379 806.982 189.801 806.982 191.546Z" fill="#BB9572"/>
<path d="M835.201 89.8027C836.062 89.8027 836.753 90.5008 836.753 91.352V188.371H833.641V91.352C833.641 90.4923 834.34 89.8027 835.193 89.8027H835.201Z" fill="#BB9572"/>
<path d="M839.671 107.543L871.82 175.738C873.423 179.135 870.942 183.042 867.172 183.042H839.662V107.535L839.671 107.543Z" fill="white"/>
<path d="M830.758 176.513H799.785C795.956 176.513 793.475 172.478 795.206 169.073L830.758 99.0986V176.521V176.513Z" fill="white"/>
</svg>
