<svg width="194" height="33" viewBox="0 0 194 33" fill="none" xmlns="http://www.w3.org/2000/svg">
<path d="M73.166 17.9784L78.3494 23.9408H85.7853L77.3563 14.4158L85.5915 6.35044H78.3494L73.166 11.447V0.289062H67.1108V23.9408H73.166V17.9784Z" fill="#FF831C"/>
<path fill-rule="evenodd" clip-rule="evenodd" d="M28.3811 11.1253C27.824 12.3129 27.5576 13.6736 27.5576 15.1827V15.2075C27.5576 16.6919 27.824 18.0526 28.3811 19.2402C28.914 20.4277 29.6648 21.442 30.6095 22.2832C31.5541 23.0996 32.644 23.7429 33.9035 24.1882C35.163 24.6335 36.471 24.8562 37.9 24.8562C39.3291 24.8562 40.6855 24.6335 41.945 24.1882C43.2045 23.7429 44.3186 23.0996 45.239 22.2585C46.1595 21.4173 46.8861 20.403 47.4432 19.1907C48.0003 17.9784 48.2667 16.6424 48.2667 15.158C48.2667 13.6736 47.976 12.3129 47.4432 11.1006C46.9103 9.88831 46.1595 8.87396 45.239 8.03279C44.2944 7.21636 43.2045 6.57311 41.945 6.12778C40.6855 5.68245 39.3049 5.45979 37.9 5.45979C36.4952 5.45979 35.163 5.68245 33.9035 6.12778C32.644 6.57311 31.5541 7.21636 30.6095 8.05753C29.6891 8.8987 28.9382 9.91305 28.3811 11.1253ZM39.7166 19.4133C39.1838 19.636 38.5782 19.7597 37.9243 19.7597C37.2461 19.7597 36.6405 19.6607 36.1077 19.4133C35.5748 19.1659 35.1388 18.8443 34.7513 18.4485C34.388 18.0526 34.0973 17.5578 33.9035 17.0135C33.7098 16.4692 33.6129 15.8755 33.6129 15.2075C33.6129 14.5395 33.7098 13.9457 33.9035 13.3767C34.0973 12.8324 34.388 12.3376 34.7513 11.917C35.1146 11.4964 35.5748 11.1748 36.1077 10.9274C36.6405 10.7047 37.2703 10.581 37.9243 10.581C38.5782 10.581 39.1838 10.7047 39.7166 10.9274C40.2495 11.1501 40.7097 11.4964 41.073 11.8923C41.4363 12.2881 41.7028 12.7829 41.9207 13.352C42.1387 13.921 42.2356 14.5642 42.2356 15.2075C42.2356 15.8507 42.1145 16.4692 41.9207 17.0135C41.727 17.5578 41.4363 18.0526 41.073 18.4485C40.7097 18.8443 40.2495 19.1659 39.7166 19.4133Z" fill="#FF831C"/>
<path d="M18.7169 15.5538L16.3674 6.35044H10.6028L8.22911 15.5538L5.73433 6.35044H0.333008L5.41945 23.9656H10.6028L13.4609 12.9809L16.319 23.9656H21.5023L26.6372 6.35044H21.2359L18.7169 15.5538Z" fill="#FF831C"/>
<path d="M58.3911 6.72155C57.7226 6.98983 57.1482 7.35428 56.7143 7.86231L56.3323 6.35044H51.149V23.9161H57.2043V14.5148C57.2043 14.0942 57.2527 13.6736 57.3981 13.3025C57.5434 12.9066 57.7129 12.585 57.9552 12.3129C58.1974 12.0407 58.4638 11.8181 58.7787 11.6696C59.0935 11.4964 59.4327 11.4222 59.7717 11.4222H63.2596L64.3011 6.3257H60.5226C59.7717 6.3257 59.0693 6.47414 58.3911 6.72155Z" fill="#FF831C"/>
<path d="M93.6572 23.9408L86.9721 6.3257H93.197L97.0966 17.1125L100.996 6.3257H107.221L100.536 23.9408H93.6572Z" fill="#FF831C"/>
<path fill-rule="evenodd" clip-rule="evenodd" d="M128.826 6.35044H123.691L123.667 6.3257L123.134 7.56272C122.287 6.94421 121.39 6.47415 120.397 6.17726C119.404 5.88038 118.339 5.73194 117.224 5.73194C115.941 5.73194 114.754 5.9546 113.64 6.42466C112.525 6.89473 111.557 7.53798 110.733 8.37915C109.91 9.22032 109.28 10.2099 108.795 11.3727C108.335 12.5355 108.093 13.8468 108.093 15.1827C108.093 16.5187 108.335 17.7557 108.771 18.8938C109.207 20.0318 109.837 20.9967 110.66 21.8379C111.484 22.6543 112.453 23.3223 113.567 23.7924C114.705 24.2624 115.941 24.5346 117.297 24.5346C118.387 24.5593 119.428 24.4109 120.446 24.0645C121.463 23.7429 122.359 23.2234 123.183 22.5306L123.643 23.9656H128.826V6.35044ZM121.124 18.2505C120.397 19.0422 119.404 19.4381 118.193 19.4381C116.982 19.4381 116.013 19.0422 115.262 18.2505C114.512 17.4589 114.148 16.494 114.148 15.1827C114.148 13.8715 114.536 12.8077 115.262 12.0407C115.989 11.2738 116.982 10.8779 118.193 10.8779C119.404 10.8779 120.373 11.249 121.124 12.0407C121.875 12.8324 122.238 13.921 122.238 15.1827C122.238 16.4445 121.851 17.4589 121.124 18.2505Z" fill="#FF831C"/>
<path d="M138.951 0.289062V23.9408H132.895V0.289062H138.951Z" fill="#FF831C"/>
<path d="M149.051 23.9408V0.289062H142.996V23.9408H149.051Z" fill="#FF831C"/>
<path fill-rule="evenodd" clip-rule="evenodd" d="M158.352 18.3495C159.224 19.4876 160.483 20.0318 162.155 20.0318C163.317 20.0318 164.31 19.8587 165.158 19.4876C166.006 19.1165 166.781 18.5227 167.507 17.731L171.431 20.6998C170.317 22.0111 169.058 23.0254 167.629 23.7676C166.2 24.5098 164.528 24.8562 162.615 24.8562C161.04 24.8562 159.611 24.6335 158.303 24.1882C156.995 23.7429 155.881 23.0996 154.937 22.2832C153.992 21.442 153.241 20.4277 152.733 19.2402C152.2 18.0526 151.957 16.6919 151.957 15.1827C151.957 13.6736 152.224 12.3871 152.757 11.1995C153.29 10.012 154.016 8.97292 154.961 8.13175C155.881 7.29058 156.971 6.64733 158.207 6.17726C159.442 5.70719 160.774 5.48453 162.179 5.48453C163.584 5.48453 164.964 5.70719 166.2 6.15252C167.411 6.59785 168.476 7.2411 169.348 8.05753C170.22 8.8987 170.898 9.91305 171.407 11.1253C171.916 12.3376 172.158 13.6983 172.158 15.2322L158.376 18.3742L158.352 18.3495ZM162.397 10.2099C161.089 10.2099 159.999 10.5316 159.151 11.1995C158.303 11.8428 157.746 12.7582 157.528 13.921L166.006 11.9912C165.618 11.4717 165.134 11.0511 164.528 10.7047C163.923 10.3584 163.22 10.2099 162.397 10.2099Z" fill="#FF831C"/>
<path d="M192.988 26.8849C193.448 25.7963 193.666 24.6088 193.666 23.2728V6.35044H187.611V15.8755C187.417 16.7661 187.006 17.4836 186.376 18.0279C185.746 18.5722 184.995 18.8443 184.123 18.8443C183.736 18.8443 183.372 18.7701 182.985 18.6464C182.621 18.5227 182.282 18.3 181.992 18.0031C181.701 17.7063 181.459 17.2857 181.289 16.7909C181.12 16.2961 181.023 15.6775 181.023 14.9353V6.35044H174.968V16.8651C174.968 17.9042 175.161 18.869 175.573 19.735C175.985 20.6009 176.542 21.3431 177.269 21.9863C177.995 22.6048 178.843 23.0996 179.836 23.446C180.829 23.7924 181.895 23.9656 183.057 23.9656C183.857 23.9656 184.68 23.8171 185.48 23.5202C186.279 23.2234 186.981 22.778 187.587 22.2337V23.6192C187.587 24.1882 187.514 24.683 187.32 25.1284C187.151 25.5737 186.884 25.9448 186.57 26.2417C186.255 26.5386 185.867 26.7612 185.455 26.9344C185.044 27.1076 184.583 27.1818 184.099 27.1818C183.397 27.1818 182.767 27.0086 182.21 26.6128C181.628 26.2169 181.314 25.6479 181.241 24.9057H175.186C175.282 26.2664 175.646 27.4292 176.227 28.3693C176.833 29.3342 177.559 30.1012 178.455 30.6949C179.352 31.2887 180.345 31.7093 181.459 31.9567C182.573 32.2041 183.687 32.3278 184.801 32.2783C186.061 32.2041 187.248 31.9567 188.338 31.5114C189.428 31.066 190.372 30.4475 191.147 29.6806C191.922 28.9136 192.552 27.9735 192.988 26.8849Z" fill="#FF831C"/>
</svg>
