<svg width="188" height="229" viewBox="0 0 188 229" fill="none" xmlns="http://www.w3.org/2000/svg">
<rect width="188" height="229" rx="6" fill="#FFFAF0"/>
<path d="M64.3713 29.7434H62.3313V20.2034H64.3713V29.7434ZM58.8913 28.8634H50.6113V21.3434H58.8913V28.8634ZM56.8313 27.2434V22.9634H52.6713V27.2434H56.8313ZM63.9913 33.5234V35.0034H54.6913V36.3234H64.8113V37.9234H52.6513V30.6834H64.4513V32.2834H54.6913V33.5234H63.9913ZM82.716 35.6434H66.616V34.0234H82.716V35.6434ZM81.136 26.1034C81.136 28.7234 78.576 30.6034 74.656 30.6034C70.796 30.6034 68.216 28.7234 68.216 26.1034C68.216 23.5034 70.796 21.6034 74.656 21.6034C78.576 21.6034 81.136 23.5034 81.136 26.1034ZM79.036 26.1234C79.036 24.4234 77.316 23.2834 74.656 23.2834C72.036 23.2834 70.296 24.4234 70.296 26.1234C70.296 27.8034 72.036 28.9234 74.656 28.9234C77.296 28.9234 79.036 27.8034 79.036 26.1234ZM98.0607 31.1434H92.5607V34.1234H99.6207V35.7634H83.5207V34.1234H90.5207V31.1434H85.5807V25.3834H95.5007V23.0834H85.5207V21.4434H97.5407V27.0434H87.6407V29.4834H98.0607V31.1434ZM120.279 38.0234H118.319V29.0034H116.419V37.1634H114.499V20.5634H116.419V27.2834H118.319V20.2034H120.279V38.0234ZM113.359 31.0434L113.639 32.7034C112.439 33.0034 110.019 33.2434 107.879 33.2634H106.119V22.3234H108.159V31.5634C109.939 31.5634 112.199 31.3834 113.359 31.0434ZM131.544 31.7834L131.764 33.4634C129.784 33.8434 127.804 33.9234 124.824 33.9434H122.864V26.6434H128.444V23.4034H122.864V21.7634H130.504V28.3034H124.904V32.2434C126.744 32.2434 129.244 32.1834 131.544 31.7834ZM131.724 30.7634V29.0834H134.804V26.1634H131.724V24.4834H134.804V20.2034H136.844V38.0234H134.804V30.7634H131.724ZM64.2313 50.7234H58.9313C59.5513 52.5834 62.3313 53.7834 65.0113 54.0434L64.1113 55.6834C61.6713 55.4034 58.8113 53.9834 57.7713 52.2834C56.8513 54.0234 54.1113 55.4034 51.4113 55.7434L50.4913 54.1034C53.2713 53.7834 56.0313 52.6034 56.6313 50.7234H51.2913V49.1034H64.2313V50.7234ZM58.7513 64.0234H56.7113V58.4834H49.7113V56.8634H65.8113V58.4834H58.7513V64.0234ZM54.8513 47.9434V46.3034H60.6513V47.9434H54.8513ZM67.216 51.2434V49.6234H76.616V51.2434H72.976C73.056 53.7234 75.016 55.2434 77.056 55.8034L75.996 57.4034C74.596 56.9234 72.696 55.5234 71.936 53.9634C71.336 55.5834 69.496 57.3034 67.656 57.9034L66.496 56.3234C68.956 55.5234 70.776 53.7034 70.876 51.2434H67.216ZM81.296 46.2034V59.1434H79.236V54.1034H76.356V52.3834H79.236V46.2034H81.296ZM81.676 63.5034H69.656V58.0434H71.736V61.8634H81.676V63.5034ZM69.376 48.4234V46.7834H74.436V48.4234H69.376ZM102.455 60.5034C102.455 62.6234 100.215 64.0234 96.3946 64.0234C92.5946 64.0234 90.3746 62.6234 90.3746 60.5034C90.3746 58.3434 92.5946 56.9634 96.3946 56.9634C100.215 56.9634 102.455 58.3434 102.455 60.5034ZM88.5946 49.0434V47.3434H97.9746V49.0434H94.4146V49.1034C94.4146 51.7234 96.3946 53.7034 98.4546 54.3634L97.3346 55.9834C95.8346 55.3834 94.1346 53.9834 93.3546 52.3234C92.8346 54.0634 90.9346 55.8034 89.1346 56.4834L87.9346 54.8834C90.4346 53.9634 92.3146 51.8234 92.3146 49.1834V49.0434H88.5946ZM104.855 52.3034H102.215V56.7434H100.155V46.2034H102.215V50.6034H104.855V52.3034ZM100.355 60.5034C100.355 59.3034 98.8946 58.6234 96.3946 58.6234C93.9146 58.6234 92.4746 59.3034 92.4746 60.5034C92.4746 61.6634 93.9146 62.3634 96.3946 62.3634C98.8946 62.3634 100.355 61.6634 100.355 60.5034ZM120.859 54.2834L119.799 55.8634C117.139 55.1834 114.239 53.1634 113.319 50.9634C112.499 53.1834 109.539 55.2234 106.839 55.8634L105.839 54.2034C108.759 53.7434 112.279 51.3434 112.279 48.2834V47.2234H114.419V48.2834C114.419 51.3034 118.179 53.7834 120.859 54.2834ZM121.379 61.7834H105.279V60.1234H112.279V55.7434H114.319V60.1234H121.379V61.7834ZM138.284 55.9234H122.184V54.3834H138.284V55.9234ZM136.704 63.8834H124.244V59.7634H134.184V58.5634H124.184V57.0834H136.224V61.2034H126.284V62.4234H136.704V63.8834ZM136.504 53.3034H124.304V49.3034H134.064V48.1634H124.264V46.6634H136.124V50.6834H126.364V51.8034H136.504V53.3034ZM51.9925 82.0834L52.1725 83.6234C48.7925 84.0834 44.7925 84.2434 40.9525 84.2834L40.6525 82.6034C41.9725 82.6034 43.7525 82.6034 45.3325 82.5634V81.6034C43.4925 81.3634 42.1925 80.5034 42.1925 79.2034C42.1925 77.6434 43.9725 76.7034 46.3325 76.7034C48.7125 76.7034 50.4925 77.6434 50.4925 79.2034C50.4925 80.5034 49.1925 81.3634 47.3725 81.6034V82.4634C49.0125 82.3834 50.9525 82.2434 51.9925 82.0834ZM55.0925 72.2034V77.6834H57.6525V79.4034H55.0925V84.1034H53.0525V72.2034H55.0925ZM43.1725 85.0234H55.0925V90.0834H53.0525V86.6834H43.1725V85.0234ZM51.3725 76.2634H41.3325V74.7034H51.3725V76.2634ZM43.8925 73.9234V72.3634H48.8725V73.9234H43.8925ZM48.4925 79.2034C48.4925 78.5434 47.6525 78.2034 46.3325 78.2034C45.0325 78.2034 44.1725 78.5434 44.1725 79.2034C44.1725 79.8434 45.0525 80.2034 46.3325 80.2034C47.6525 80.2034 48.4925 79.8234 48.4925 79.2034ZM72.6772 85.1234H70.6372V72.2034H72.6772V85.1234ZM73.0972 89.5034H60.8972V83.9034H62.9372V87.8634H73.0972V89.5034ZM67.6772 77.8834C67.6772 80.4234 65.8372 82.2434 63.1172 82.2434C60.3972 82.2434 58.5172 80.4234 58.5172 77.9034C58.5172 75.3634 60.3772 73.5234 63.1172 73.5234C65.8372 73.5234 67.6772 75.3434 67.6772 77.8834ZM65.6372 77.8834C65.6372 76.3234 64.6772 75.2234 63.1172 75.2234C61.5972 75.2234 60.5772 76.3634 60.5772 77.8834C60.5772 79.3434 61.5972 80.5034 63.1172 80.5034C64.6772 80.5034 65.6372 79.3434 65.6372 77.8834ZM89.9419 90.0234H87.9819V81.1634H86.2219V89.1834H84.2819V72.5634H86.2219V79.4634H87.9819V72.2034H89.9419V90.0234ZM83.1219 82.5234C83.1219 84.6034 81.5619 85.9834 79.2819 85.9834C77.0019 85.9834 75.4419 84.4834 75.4419 82.5234C75.4419 80.3834 77.0019 79.0234 79.2819 79.0234C81.5619 79.0234 83.1219 80.4234 83.1219 82.5234ZM74.7619 78.1434V76.4434H83.6219V78.1434H74.7619ZM81.2419 82.5234C81.2419 81.4034 80.4219 80.6634 79.2819 80.6634C78.1419 80.6634 77.3219 81.4034 77.3219 82.5234C77.3219 83.6034 78.1419 84.3434 79.2819 84.3434C80.4219 84.3434 81.2419 83.5634 81.2419 82.5234ZM76.8619 75.2434V73.5234H81.6819V75.2434H76.8619ZM105.907 82.4634H100.867V86.1234H107.927V87.7634H91.8266V86.1234H98.8266V82.4634H93.8466V73.4834H95.8866V76.3434H103.867V73.4634H105.907V82.4634ZM103.867 80.8234V77.9634H95.8866V80.8234H103.867ZM123.751 90.0234H121.791V72.2034H123.751V90.0234ZM120.231 89.1834H118.311V80.1234H115.751V78.4234H118.311V72.5634H120.231V89.1834ZM117.751 84.1834L116.571 85.6034C115.311 84.8034 113.711 82.9234 113.191 81.0634C112.751 83.0034 111.331 84.9834 109.611 86.0634L108.371 84.6634C110.531 83.2434 112.191 80.4234 112.191 76.7634V73.9634H114.171V76.7434C114.171 80.1434 115.671 82.9034 117.751 84.1834ZM140.156 77.9834C140.156 80.6834 137.596 82.5634 133.676 82.5634C129.816 82.5634 127.236 80.6834 127.236 77.9834C127.236 75.3034 129.816 73.4034 133.676 73.4034C137.596 73.4034 140.156 75.3034 140.156 77.9834ZM138.056 77.9834C138.056 76.2634 136.336 75.1034 133.676 75.1034C131.056 75.1034 129.316 76.2634 129.316 77.9834C129.316 79.7034 131.056 80.8634 133.676 80.8634C136.316 80.8634 138.056 79.7034 138.056 77.9834ZM141.736 87.7634H125.636V86.1234H129.356V83.0234L131.436 83.0034V86.1234H135.876V83.0034L137.936 83.0234V86.1234H141.736V87.7634ZM143.821 83.6434L143.561 73.4434H145.861L145.601 83.6434H143.821ZM143.621 87.8234V85.6634H145.821V87.8234H143.621Z" fill="#FF831C"/>
<path d="M93.9999 124.541C97.3406 124.541 100.049 121.833 100.049 118.492C100.049 115.152 97.3406 112.443 93.9999 112.443C90.6592 112.443 87.951 115.152 87.951 118.492C87.951 121.833 90.6592 124.541 93.9999 124.541Z" fill="url(#paint0_linear_757_1265)"/>
<path d="M93.9999 136.67C97.3406 136.67 100.049 133.962 100.049 130.621C100.049 127.28 97.3406 124.572 93.9999 124.572C90.6592 124.572 87.951 127.28 87.951 130.621C87.951 133.962 90.6592 136.67 93.9999 136.67Z" fill="url(#paint1_linear_757_1265)"/>
<path d="M93.9999 148.801C97.3406 148.801 100.049 146.093 100.049 142.752C100.049 139.412 97.3406 136.704 93.9999 136.704C90.6592 136.704 87.951 139.412 87.951 142.752C87.951 146.093 90.6592 148.801 93.9999 148.801Z" fill="url(#paint2_linear_757_1265)"/>
<path d="M93.9999 160.933C97.3406 160.933 100.049 158.225 100.049 154.884C100.049 151.543 97.3406 148.835 93.9999 148.835C90.6592 148.835 87.951 151.543 87.951 154.884C87.951 158.225 90.6592 160.933 93.9999 160.933Z" fill="url(#paint3_linear_757_1265)"/>
<path d="M93.9999 173.062C97.3406 173.062 100.049 170.353 100.049 167.013C100.049 163.672 97.3406 160.964 93.9999 160.964C90.6592 160.964 87.951 163.672 87.951 167.013C87.951 170.353 90.6592 173.062 93.9999 173.062Z" fill="url(#paint4_linear_757_1265)"/>
<path d="M93.9999 185.19C97.3406 185.19 100.049 182.482 100.049 179.142C100.049 175.801 97.3406 173.093 93.9999 173.093C90.6592 173.093 87.951 175.801 87.951 179.142C87.951 182.482 90.6592 185.19 93.9999 185.19Z" fill="url(#paint5_linear_757_1265)"/>
<path d="M51.1114 163.667C54.4521 163.667 57.1602 160.958 57.1602 157.618C57.1602 154.277 54.4521 151.569 51.1114 151.569C47.7707 151.569 45.0625 154.277 45.0625 157.618C45.0625 160.958 47.7707 163.667 51.1114 163.667Z" fill="url(#paint6_linear_757_1265)"/>
<path d="M59.7019 172.257C63.0426 172.257 65.7508 169.549 65.7508 166.208C65.7508 162.868 63.0426 160.159 59.7019 160.159C56.3613 160.159 53.6531 162.868 53.6531 166.208C53.6531 169.549 56.3613 172.257 59.7019 172.257Z" fill="url(#paint7_linear_757_1265)"/>
<path d="M68.2925 180.848C71.6332 180.848 74.3414 178.14 74.3414 174.799C74.3414 171.458 71.6332 168.75 68.2925 168.75C64.9518 168.75 62.2437 171.458 62.2437 174.799C62.2437 178.14 64.9518 180.848 68.2925 180.848Z" fill="url(#paint8_linear_757_1265)"/>
<path d="M76.8515 189.407C80.1922 189.407 82.9004 186.699 82.9004 183.358C82.9004 180.017 80.1922 177.309 76.8515 177.309C73.5108 177.309 70.8027 180.017 70.8027 183.358C70.8027 186.699 73.5108 189.407 76.8515 189.407Z" fill="url(#paint9_linear_757_1265)"/>
<path d="M85.4409 197.997C88.7816 197.997 91.4897 195.289 91.4897 191.948C91.4897 188.608 88.7816 185.9 85.4409 185.9C82.1002 185.9 79.392 188.608 79.392 191.948C79.392 195.289 82.1002 197.997 85.4409 197.997Z" fill="url(#paint10_linear_757_1265)"/>
<path d="M93.9999 206.556C97.3406 206.556 100.049 203.848 100.049 200.507C100.049 197.167 97.3406 194.459 93.9999 194.459C90.6592 194.459 87.951 197.167 87.951 200.507C87.951 203.848 90.6592 206.556 93.9999 206.556Z" fill="url(#paint11_linear_757_1265)"/>
<path d="M136.89 163.667C140.23 163.667 142.939 160.958 142.939 157.618C142.939 154.277 140.23 151.569 136.89 151.569C133.549 151.569 130.841 154.277 130.841 157.618C130.841 160.958 133.549 163.667 136.89 163.667Z" fill="url(#paint12_linear_757_1265)"/>
<path d="M128.331 172.257C131.671 172.257 134.38 169.549 134.38 166.208C134.38 162.868 131.671 160.159 128.331 160.159C124.99 160.159 122.282 162.868 122.282 166.208C122.282 169.549 124.99 172.257 128.331 172.257Z" fill="url(#paint13_linear_757_1265)"/>
<path d="M119.74 180.848C123.081 180.848 125.789 178.14 125.789 174.799C125.789 171.458 123.081 168.75 119.74 168.75C116.399 168.75 113.691 171.458 113.691 174.799C113.691 178.14 116.399 180.848 119.74 180.848Z" fill="url(#paint14_linear_757_1265)"/>
<path d="M111.149 189.407C114.49 189.407 117.198 186.699 117.198 183.358C117.198 180.017 114.49 177.309 111.149 177.309C107.809 177.309 105.101 180.017 105.101 183.358C105.101 186.699 107.809 189.407 111.149 189.407Z" fill="url(#paint15_linear_757_1265)"/>
<path d="M102.59 197.997C105.931 197.997 108.639 195.289 108.639 191.948C108.639 188.608 105.931 185.9 102.59 185.9C99.2498 185.9 96.5416 188.608 96.5416 191.948C96.5416 195.289 99.2498 197.997 102.59 197.997Z" fill="url(#paint16_linear_757_1265)"/>
<defs>
<linearGradient id="paint0_linear_757_1265" x1="94.0005" y1="206.556" x2="94.0005" y2="87.3483" gradientUnits="userSpaceOnUse">
<stop stop-color="#FF831C"/>
<stop offset="1" stop-color="#FFF2D6"/>
</linearGradient>
<linearGradient id="paint1_linear_757_1265" x1="94.0005" y1="206.556" x2="94.0005" y2="87.3483" gradientUnits="userSpaceOnUse">
<stop stop-color="#FF831C"/>
<stop offset="1" stop-color="#FFF2D6"/>
</linearGradient>
<linearGradient id="paint2_linear_757_1265" x1="94.0005" y1="206.556" x2="94.0005" y2="87.3483" gradientUnits="userSpaceOnUse">
<stop stop-color="#FF831C"/>
<stop offset="1" stop-color="#FFF2D6"/>
</linearGradient>
<linearGradient id="paint3_linear_757_1265" x1="94.0005" y1="206.556" x2="94.0005" y2="87.3483" gradientUnits="userSpaceOnUse">
<stop stop-color="#FF831C"/>
<stop offset="1" stop-color="#FFF2D6"/>
</linearGradient>
<linearGradient id="paint4_linear_757_1265" x1="94.0005" y1="206.556" x2="94.0005" y2="87.3483" gradientUnits="userSpaceOnUse">
<stop stop-color="#FF831C"/>
<stop offset="1" stop-color="#FFF2D6"/>
</linearGradient>
<linearGradient id="paint5_linear_757_1265" x1="94.0005" y1="206.556" x2="94.0005" y2="87.3483" gradientUnits="userSpaceOnUse">
<stop stop-color="#FF831C"/>
<stop offset="1" stop-color="#FFF2D6"/>
</linearGradient>
<linearGradient id="paint6_linear_757_1265" x1="94.0005" y1="206.556" x2="94.0005" y2="87.3483" gradientUnits="userSpaceOnUse">
<stop stop-color="#FF831C"/>
<stop offset="1" stop-color="#FFF2D6"/>
</linearGradient>
<linearGradient id="paint7_linear_757_1265" x1="94.0005" y1="206.556" x2="94.0005" y2="87.3483" gradientUnits="userSpaceOnUse">
<stop stop-color="#FF831C"/>
<stop offset="1" stop-color="#FFF2D6"/>
</linearGradient>
<linearGradient id="paint8_linear_757_1265" x1="94.0005" y1="206.556" x2="94.0005" y2="87.3483" gradientUnits="userSpaceOnUse">
<stop stop-color="#FF831C"/>
<stop offset="1" stop-color="#FFF2D6"/>
</linearGradient>
<linearGradient id="paint9_linear_757_1265" x1="94.0005" y1="206.556" x2="94.0005" y2="87.3483" gradientUnits="userSpaceOnUse">
<stop stop-color="#FF831C"/>
<stop offset="1" stop-color="#FFF2D6"/>
</linearGradient>
<linearGradient id="paint10_linear_757_1265" x1="94.0005" y1="206.556" x2="94.0005" y2="87.3483" gradientUnits="userSpaceOnUse">
<stop stop-color="#FF831C"/>
<stop offset="1" stop-color="#FFF2D6"/>
</linearGradient>
<linearGradient id="paint11_linear_757_1265" x1="94.0005" y1="206.556" x2="94.0005" y2="87.3483" gradientUnits="userSpaceOnUse">
<stop stop-color="#FF831C"/>
<stop offset="1" stop-color="#FFF2D6"/>
</linearGradient>
<linearGradient id="paint12_linear_757_1265" x1="94.0005" y1="206.556" x2="94.0005" y2="87.3483" gradientUnits="userSpaceOnUse">
<stop stop-color="#FF831C"/>
<stop offset="1" stop-color="#FFF2D6"/>
</linearGradient>
<linearGradient id="paint13_linear_757_1265" x1="94.0005" y1="206.556" x2="94.0005" y2="87.3483" gradientUnits="userSpaceOnUse">
<stop stop-color="#FF831C"/>
<stop offset="1" stop-color="#FFF2D6"/>
</linearGradient>
<linearGradient id="paint14_linear_757_1265" x1="94.0005" y1="206.556" x2="94.0005" y2="87.3483" gradientUnits="userSpaceOnUse">
<stop stop-color="#FF831C"/>
<stop offset="1" stop-color="#FFF2D6"/>
</linearGradient>
<linearGradient id="paint15_linear_757_1265" x1="94.0005" y1="206.556" x2="94.0005" y2="87.3483" gradientUnits="userSpaceOnUse">
<stop stop-color="#FF831C"/>
<stop offset="1" stop-color="#FFF2D6"/>
</linearGradient>
<linearGradient id="paint16_linear_757_1265" x1="94.0005" y1="206.556" x2="94.0005" y2="87.3483" gradientUnits="userSpaceOnUse">
<stop stop-color="#FF831C"/>
<stop offset="1" stop-color="#FFF2D6"/>
</linearGradient>
</defs>
</svg>
