<svg width="20" height="20" viewBox="0 0 20 20" fill="none" xmlns="http://www.w3.org/2000/svg">
<path fill-rule="evenodd" clip-rule="evenodd" d="M7.42206 0.25C6.73793 0.25 6.1614 0.7606 6.07872 1.43972L5.60542 5.32745H2.95334C2.20044 5.32745 1.59009 5.9378 1.59009 6.6907C1.59009 7.44361 2.20044 8.05396 2.95334 8.05396H5.2735L4.79972 11.9456H2.05173C1.29883 11.9456 0.688477 12.556 0.688477 13.3089C0.688477 14.0618 1.29883 14.6721 2.05173 14.6721H4.4678L4.03427 18.2332C3.93611 19.0395 4.56537 19.75 5.37761 19.75C6.06175 19.75 6.63828 19.2394 6.72095 18.5603L7.1943 14.6721H11.4771L11.0435 18.2332C10.9454 19.0395 11.5746 19.75 12.3869 19.75C13.071 19.75 13.6476 19.2394 13.7302 18.5603L14.2036 14.6721H17.0471C17.8 14.6721 18.4103 14.0618 18.4103 13.3089C18.4103 12.556 17.8 11.9456 17.0471 11.9456H14.5355L15.0093 8.05395H17.9487C18.7016 8.05395 19.312 7.44361 19.312 6.6907C19.312 5.9378 18.7016 5.32745 17.9487 5.32745H15.3412L15.7747 1.7668C15.8728 0.960513 15.2436 0.25 14.4313 0.25C13.7472 0.25 13.1707 0.7606 13.088 1.43972L12.6147 5.32745H8.33193L8.76541 1.7668C8.86357 0.960513 8.23431 0.25 7.42206 0.25ZM11.809 11.9456L12.2828 8.05395L8 8.05396L7.52623 11.9456H11.809Z" fill="#726C5E"/>
</svg>
