<svg width="26" height="28" viewBox="0 0 26 28" fill="none" xmlns="http://www.w3.org/2000/svg">
<path fill-rule="evenodd" clip-rule="evenodd" d="M9.39948 0.386719C8.44432 0.386719 7.6394 1.09959 7.52397 2.04775L6.86319 7.47552H3.16112C2.10995 7.47552 1.25781 8.32766 1.25781 9.37883C1.25781 10.43 2.10995 11.2821 3.16112 11.2821H6.39977L5.73827 16.7158H1.90233C0.851162 16.7158 -0.000976562 17.5679 -0.000976562 18.6191C-0.000976562 19.6702 0.851163 20.5224 1.90233 20.5224H5.27485L4.66961 25.494C4.53256 26.6197 5.41111 27.6116 6.54512 27.6116C7.50028 27.6116 8.3052 26.8988 8.42063 25.9506L9.08146 20.5224L15.0613 20.5224L14.456 25.494C14.319 26.6197 15.1975 27.6116 16.3315 27.6116C17.2867 27.6116 18.0916 26.8988 18.207 25.9506L18.8679 20.5224H22.8381C23.8893 20.5224 24.7414 19.6702 24.7414 18.6191C24.7414 17.5679 23.8893 16.7158 22.8381 16.7158H19.3313L19.9928 11.2821H24.0969C25.1481 11.2821 26.0002 10.43 26.0002 9.37883C26.0002 8.32766 25.1481 7.47552 24.0969 7.47552H20.4562L21.0614 2.5044C21.1984 1.3787 20.3199 0.386719 19.1859 0.386719C18.2307 0.386719 17.4258 1.09959 17.3104 2.04775L16.6496 7.47552H10.6698L11.275 2.5044C11.412 1.3787 10.5335 0.386719 9.39948 0.386719ZM15.5247 16.7158L16.1862 11.2821L10.2064 11.2821L9.54488 16.7158L15.5247 16.7158Z" fill="#FF831C"/>
</svg>
