<svg width="198" height="48" viewBox="0 0 198 48" fill="none" xmlns="http://www.w3.org/2000/svg">
<path d="M74.315 25.6893L79.6037 31.6518H87.1909L78.5905 22.1267L86.9932 14.0614H79.6037L74.315 19.1579V8H68.1365V31.6518H74.315V25.6893Z" fill="#222222"/>
<path fill-rule="evenodd" clip-rule="evenodd" d="M28.6188 18.8363C28.0504 20.0238 27.7785 21.3845 27.7785 22.8937V22.9184C27.7785 24.4028 28.0504 25.7636 28.6188 26.9511C29.1625 28.1386 29.9286 29.153 30.8925 29.9942C31.8563 30.8106 32.9685 31.4538 34.2536 31.8992C35.5387 32.3445 36.8733 32.5671 38.3314 32.5671C39.7895 32.5671 41.1735 32.3445 42.4586 31.8992C43.7438 31.4538 44.8806 30.8106 45.8197 29.9694C46.7589 29.1282 47.5003 28.1139 48.0687 26.9016C48.6371 25.6893 48.909 24.3534 48.909 22.8689C48.909 21.3845 48.6124 20.0238 48.0687 18.8115C47.525 17.5992 46.7589 16.5849 45.8197 15.7437C44.8559 14.9273 43.7438 14.284 42.4586 13.8387C41.1735 13.3934 39.7648 13.1707 38.3314 13.1707C36.898 13.1707 35.5387 13.3934 34.2536 13.8387C32.9685 14.284 31.8563 14.9273 30.8925 15.7685C29.9534 16.6096 29.1872 17.624 28.6188 18.8363ZM40.1849 27.1243C39.6412 27.3469 39.0234 27.4706 38.3561 27.4706C37.6641 27.4706 37.0463 27.3717 36.5026 27.1243C35.9588 26.8769 35.514 26.5552 35.1186 26.1594C34.7479 25.7636 34.4513 25.2688 34.2536 24.7245C34.0559 24.1802 33.957 23.5864 33.957 22.9184C33.957 22.2504 34.0559 21.6567 34.2536 21.0876C34.4513 20.5433 34.7479 20.0485 35.1186 19.628C35.4893 19.2074 35.9588 18.8857 36.5026 18.6383C37.0463 18.4157 37.6888 18.292 38.3561 18.292C39.0234 18.292 39.6412 18.4157 40.1849 18.6383C40.7286 18.861 41.1982 19.2074 41.5689 19.6032C41.9396 19.9991 42.2115 20.4939 42.4339 21.0629C42.6563 21.6319 42.7552 22.2752 42.7552 22.9184C42.7552 23.5617 42.6316 24.1802 42.4339 24.7245C42.2362 25.2688 41.9396 25.7636 41.5689 26.1594C41.1982 26.5552 40.7286 26.8769 40.1849 27.1243Z" fill="#222222"/>
<path d="M18.7579 23.2648L16.3607 14.0614H10.4787L8.05676 23.2648L5.51122 14.0614H0L5.18994 31.6765H10.4787L13.395 20.6918L16.3112 31.6765H21.6L26.8394 14.0614H21.3282L18.7579 23.2648Z" fill="#222222"/>
<path d="M59.2394 14.4325C58.5572 14.7008 57.9712 15.0652 57.5285 15.5732L57.1387 14.0614H51.8499V31.627H58.0284V22.2257C58.0284 21.8051 58.0779 21.3845 58.2262 21.0134C58.3744 20.6176 58.5474 20.2959 58.7946 20.0238C59.0417 19.7517 59.3136 19.529 59.6348 19.3806C59.9561 19.2074 60.3021 19.1331 60.6481 19.1331H64.2069L65.2696 14.0366H61.4143C60.6481 14.0366 59.9314 14.1851 59.2394 14.4325Z" fill="#222222"/>
<path d="M95.223 31.6518L88.4019 14.0366H94.7534L98.7324 24.8234L102.711 14.0366H109.063L102.242 31.6518H95.223Z" fill="#222222"/>
<path fill-rule="evenodd" clip-rule="evenodd" d="M131.108 14.0614H125.868L125.844 14.0366L125.3 15.2737C124.435 14.6551 123.52 14.1851 122.507 13.8882C121.494 13.5913 120.407 13.4429 119.27 13.4429C117.96 13.4429 116.749 13.6655 115.612 14.1356C114.475 14.6057 113.487 15.2489 112.646 16.0901C111.806 16.9313 111.163 17.9209 110.669 19.0837C110.2 20.2465 109.953 21.5577 109.953 22.8937C109.953 24.2297 110.2 25.4667 110.645 26.6047C111.089 27.7428 111.732 28.7077 112.572 29.5488C113.412 30.3653 114.401 31.0332 115.538 31.5033C116.699 31.9734 117.96 32.2455 119.344 32.2455C120.456 32.2703 121.519 32.1218 122.557 31.7755C123.595 31.4538 124.509 30.9343 125.349 30.2416L125.819 31.6765H131.108V14.0614ZM123.249 25.9615C122.507 26.7532 121.494 27.149 120.258 27.149C119.023 27.149 118.034 26.7532 117.268 25.9615C116.502 25.1698 116.131 24.2049 116.131 22.8937C116.131 21.5824 116.526 20.5186 117.268 19.7517C118.009 18.9847 119.023 18.5889 120.258 18.5889C121.494 18.5889 122.483 18.96 123.249 19.7517C124.015 20.5433 124.385 21.6319 124.385 22.8937C124.385 24.1554 123.99 25.1698 123.249 25.9615Z" fill="#222222"/>
<path d="M141.438 8V31.6518H135.26V8H141.438Z" fill="#222222"/>
<path d="M151.744 31.6518V8H145.565V31.6518H151.744Z" fill="#222222"/>
<path fill-rule="evenodd" clip-rule="evenodd" d="M161.234 26.0604C162.124 27.1985 163.409 27.7428 165.114 27.7428C166.3 27.7428 167.314 27.5696 168.179 27.1985C169.044 26.8274 169.835 26.2336 170.576 25.4419L174.58 28.4108C173.443 29.722 172.158 30.7364 170.699 31.4786C169.241 32.2208 167.536 32.5671 165.584 32.5671C163.977 32.5671 162.519 32.3445 161.185 31.8992C159.85 31.4538 158.713 30.8106 157.749 29.9942C156.786 29.153 156.019 28.1386 155.5 26.9511C154.957 25.7636 154.71 24.4028 154.71 22.8937C154.71 21.3845 154.981 20.098 155.525 18.9105C156.069 17.7229 156.81 16.6839 157.774 15.8427C158.713 15.0015 159.825 14.3583 161.086 13.8882C162.346 13.4181 163.705 13.1955 165.139 13.1955C166.572 13.1955 167.981 13.4181 169.241 13.8635C170.477 14.3088 171.564 14.952 172.454 15.7685C173.344 16.6096 174.036 17.624 174.555 18.8363C175.074 20.0485 175.321 21.4093 175.321 22.9432L161.259 26.0852L161.234 26.0604ZM165.361 17.9209C164.027 17.9209 162.915 18.2425 162.05 18.9105C161.185 19.5537 160.616 20.4691 160.394 21.6319L169.044 19.7022C168.648 19.1826 168.154 18.762 167.536 18.4157C166.918 18.0693 166.202 17.9209 165.361 17.9209Z" fill="#222222"/>
<path d="M196.575 34.5959C197.045 33.5073 197.267 32.3197 197.267 30.9838V14.0614H191.089V23.5864C190.891 24.4771 190.471 25.1945 189.828 25.7388C189.186 26.2831 188.419 26.5552 187.53 26.5552C187.134 26.5552 186.764 26.481 186.368 26.3573C185.997 26.2336 185.651 26.011 185.355 25.7141C185.058 25.4172 184.811 24.9966 184.638 24.5018C184.465 24.007 184.366 23.3885 184.366 22.6463V14.0614H178.188V24.576C178.188 25.6151 178.386 26.58 178.806 27.4459C179.226 28.3118 179.794 29.054 180.536 29.6973C181.277 30.3158 182.142 30.8106 183.155 31.1569C184.169 31.5033 185.256 31.6765 186.442 31.6765C187.258 31.6765 188.098 31.5281 188.914 31.2312C189.729 30.9343 190.446 30.489 191.064 29.9447V31.3301C191.064 31.8992 190.99 32.394 190.792 32.8393C190.619 33.2846 190.347 33.6557 190.026 33.9526C189.705 34.2495 189.309 34.4722 188.889 34.6453C188.469 34.8185 187.999 34.8927 187.505 34.8927C186.788 34.8927 186.146 34.7196 185.577 34.3237C184.984 33.9279 184.663 33.3588 184.589 32.6166H178.41C178.509 33.9773 178.88 35.1401 179.473 36.0803C180.091 37.0451 180.832 37.8121 181.747 38.4059C182.661 38.9996 183.674 39.4202 184.811 39.6676C185.948 39.915 187.085 40.0387 188.222 39.9892C189.507 39.915 190.718 39.6676 191.83 39.2223C192.942 38.777 193.906 38.1585 194.697 37.3915C195.488 36.6246 196.13 35.6844 196.575 34.5959Z" fill="#222222"/>
</svg>
