<svg width="16" height="16" viewBox="0 0 16 16" fill="none" xmlns="http://www.w3.org/2000/svg">
<path d="M12.5142 0H3.4858C1.56064 0 0 1.56064 0 3.4858V12.5142C0 14.4394 1.56064 16 3.4858 16H12.5142C14.4394 16 16 14.4394 16 12.5142V3.4858C16 1.56064 14.4394 0 12.5142 0Z" fill="white"/>
<path d="M7.33752 8.12015L6.62536 5.38867H4.87778L4.16094 8.12015L3.40662 5.38867H1.77148L3.31292 10.6174H4.88247L5.74923 7.35646L6.61599 10.6174H8.18554L9.74103 5.38867H8.10589L7.3422 8.12015H7.33752Z" fill="#FF6B00"/>
<path d="M10.1256 10.6174L8.10156 5.38867H9.98502L11.1657 8.58867L12.3464 5.38867H14.2298L12.2058 10.6174H10.1209H10.1256Z" fill="#FF6B00"/>
</svg>
