<svg width="173" height="28" viewBox="0 0 173 28" fill="none" xmlns="http://www.w3.org/2000/svg">
<path d="M65.0256 15.4782L69.6533 20.6953H76.2921L68.7667 12.3609L76.1191 5.30371H69.6533L65.0256 9.76315V0H59.6194V20.6953H65.0256V15.4782Z" fill="#222222"/>
<path fill-rule="evenodd" clip-rule="evenodd" d="M25.0414 9.48173C24.5441 10.5208 24.3062 11.7115 24.3062 13.032V13.0536C24.3062 14.3525 24.5441 15.5431 25.0414 16.5822C25.5172 17.6213 26.1876 18.5089 27.0309 19.2449C27.8743 19.9593 28.8474 20.5221 29.9719 20.9118C31.0964 21.3014 32.2641 21.4963 33.54 21.4963C34.8158 21.4963 36.0268 21.3014 37.1513 20.9118C38.2758 20.5221 39.2705 19.9593 40.0923 19.2232C40.914 18.4872 41.5627 17.5997 42.0601 16.5389C42.5575 15.4782 42.7954 14.3092 42.7954 13.0103C42.7954 11.7115 42.5359 10.5208 42.0601 9.46008C41.5844 8.39934 40.914 7.51178 40.0923 6.77576C39.2489 6.06138 38.2758 5.49854 37.1513 5.10888C36.0268 4.71922 34.7942 4.52439 33.54 4.52439C32.2857 4.52439 31.0964 4.71922 29.9719 5.10888C28.8474 5.49854 27.8743 6.06138 27.0309 6.79741C26.2092 7.53343 25.5388 8.42099 25.0414 9.48173ZM35.1618 16.7337C34.6861 16.9286 34.1455 17.0368 33.5616 17.0368C32.9561 17.0368 32.4155 16.9502 31.9397 16.7337C31.464 16.5173 31.0747 16.2358 30.7288 15.8895C30.4044 15.5431 30.1449 15.1102 29.9719 14.6339C29.7989 14.1577 29.7124 13.6381 29.7124 13.0536C29.7124 12.4691 29.7989 11.9496 29.9719 11.4517C30.1449 10.9754 30.4044 10.5425 30.7288 10.1745C31.0531 9.80645 31.464 9.52503 31.9397 9.30855C32.4155 9.11372 32.9777 9.00548 33.5616 9.00548C34.1455 9.00548 34.6861 9.11372 35.1618 9.30855C35.6376 9.50338 36.0484 9.80645 36.3728 10.1528C36.6972 10.4992 36.9351 10.9321 37.1297 11.43C37.3243 11.9279 37.4108 12.4908 37.4108 13.0536C37.4108 13.6165 37.3027 14.1577 37.1297 14.6339C36.9567 15.1102 36.6972 15.5431 36.3728 15.8895C36.0484 16.2358 35.6376 16.5173 35.1618 16.7337Z" fill="#222222"/>
<path d="M16.4132 13.3567L14.3156 5.30371H9.16889L7.04966 13.3567L4.82232 5.30371H0L4.54119 20.7169H9.16889L11.7206 11.1053L14.2723 20.7169H18.9L23.4845 5.30371H18.6621L16.4132 13.3567Z" fill="#222222"/>
<path d="M51.8345 5.62842C51.2376 5.86317 50.7248 6.18207 50.3374 6.62659L49.9964 5.30371H45.3687V20.6736H50.7749V12.4475C50.7749 12.0795 50.8181 11.7115 50.9479 11.3867C51.0776 11.0404 51.229 10.759 51.4452 10.5208C51.6615 10.2827 51.8994 10.0879 52.1805 9.95798C52.4616 9.80645 52.7644 9.7415 53.0671 9.7415H56.1811L57.1109 5.28206H53.7375C53.0671 5.28206 52.44 5.41195 51.8345 5.62842Z" fill="#222222"/>
<path d="M83.3201 20.6953L77.3517 5.28206H82.9092L86.3908 14.7205L89.8724 5.28206H95.43L89.4615 20.6953H83.3201Z" fill="#222222"/>
<path fill-rule="evenodd" clip-rule="evenodd" d="M114.719 5.30371H110.135L110.113 5.28206L109.637 6.36445C108.881 5.82326 108.08 5.41195 107.194 5.15217C106.307 4.8924 105.356 4.76251 104.361 4.76251C103.215 4.76251 102.155 4.95734 101.161 5.36865C100.166 5.77996 99.3008 6.3428 98.5655 7.07883C97.8303 7.81485 97.2681 8.68076 96.8356 9.69821C96.4247 10.7157 96.2085 11.863 96.2085 13.032C96.2085 14.2009 96.4247 15.2833 96.8139 16.2791C97.2032 17.2749 97.7654 18.1192 98.5007 18.8552C99.2359 19.5696 100.101 20.1541 101.096 20.5654C102.112 20.9767 103.215 21.2148 104.426 21.2148C105.399 21.2365 106.329 21.1066 107.237 20.8035C108.145 20.5221 108.945 20.0675 109.681 19.4614L110.092 20.7169H114.719V5.30371ZM107.843 15.7163C107.194 16.409 106.307 16.7554 105.226 16.7554C104.145 16.7554 103.28 16.409 102.609 15.7163C101.939 15.0236 101.615 14.1793 101.615 13.032C101.615 11.8846 101.961 10.9538 102.609 10.2827C103.258 9.61162 104.145 9.26525 105.226 9.26525C106.307 9.26525 107.172 9.58997 107.843 10.2827C108.513 10.9754 108.837 11.9279 108.837 13.032C108.837 14.136 108.491 15.0236 107.843 15.7163Z" fill="#222222"/>
<path d="M123.758 0V20.6953H118.352V0H123.758Z" fill="#222222"/>
<path d="M132.776 20.6953V0H127.37V20.6953H132.776Z" fill="#222222"/>
<path fill-rule="evenodd" clip-rule="evenodd" d="M141.08 15.8029C141.858 16.7987 142.983 17.2749 144.475 17.2749C145.513 17.2749 146.399 17.1234 147.156 16.7987C147.913 16.474 148.605 15.9544 149.254 15.2617L152.757 17.8594C151.762 19.0068 150.638 19.8943 149.362 20.5437C148.086 21.1932 146.594 21.4963 144.886 21.4963C143.48 21.4963 142.204 21.3014 141.037 20.9118C139.869 20.5221 138.874 19.9593 138.031 19.2449C137.187 18.5089 136.517 17.6213 136.063 16.5822C135.587 15.5431 135.371 14.3525 135.371 13.032C135.371 11.7115 135.609 10.5858 136.084 9.54667C136.56 8.50758 137.209 7.59837 138.052 6.86235C138.874 6.12632 139.847 5.56348 140.95 5.15217C142.053 4.74087 143.242 4.54604 144.496 4.54604C145.751 4.54604 146.983 4.74087 148.086 5.13053C149.167 5.52019 150.119 6.08303 150.897 6.79741C151.676 7.53343 152.281 8.42099 152.736 9.48173C153.19 10.5425 153.406 11.7331 153.406 13.0753L141.101 15.8245L141.08 15.8029ZM144.691 8.68076C143.523 8.68076 142.55 8.96218 141.793 9.54667C141.037 10.1095 140.539 10.9105 140.345 11.9279L147.913 10.2394C147.567 9.7848 147.135 9.41679 146.594 9.11372C146.053 8.81065 145.426 8.68076 144.691 8.68076Z" fill="#222222"/>
<path d="M172.003 23.2714C172.414 22.3189 172.609 21.2798 172.609 20.1108V5.30371H167.202V13.6381C167.029 14.4174 166.662 15.0452 166.1 15.5215C165.537 15.9977 164.867 16.2358 164.088 16.2358C163.742 16.2358 163.418 16.1709 163.072 16.0627C162.748 15.9544 162.445 15.7596 162.186 15.4998C161.926 15.24 161.71 14.872 161.558 14.4391C161.407 14.0061 161.321 13.4649 161.321 12.8155V5.30371H155.914V14.504C155.914 15.4132 156.087 16.2575 156.455 17.0152C156.823 17.7728 157.32 18.4223 157.969 18.9851C158.617 19.5263 159.374 19.9593 160.261 20.2623C161.148 20.5654 162.099 20.7169 163.137 20.7169C163.851 20.7169 164.586 20.587 165.299 20.3273C166.013 20.0675 166.64 19.6778 167.181 19.2016V20.4139C167.181 20.9118 167.116 21.3447 166.943 21.7344C166.792 22.124 166.554 22.4488 166.273 22.7085C165.991 22.9683 165.645 23.1631 165.278 23.3147C164.91 23.4662 164.499 23.5311 164.067 23.5311C163.44 23.5311 162.878 23.3796 162.38 23.0332C161.861 22.6869 161.58 22.189 161.515 21.5395H156.109C156.195 22.7302 156.52 23.7476 157.039 24.5702C157.579 25.4145 158.228 26.0856 159.028 26.6051C159.828 27.1247 160.715 27.4927 161.71 27.7092C162.705 27.9256 163.699 28.0339 164.694 27.9906C165.818 27.9256 166.878 27.7092 167.851 27.3195C168.824 26.9298 169.668 26.3887 170.36 25.7176C171.052 25.0465 171.614 24.2239 172.003 23.2714Z" fill="#222222"/>
</svg>
